<svg xmlns="http://www.w3.org/2000/svg" xmlns:xlink="http://www.w3.org/1999/xlink" xmlns:inkscape="http://www.inkscape.org/namespaces/inkscape" version="1.1" width="549.83877" height="283.22688" viewBox="0 0 549.83877 283.22688">
<defs>
<clipPath id="clip_1">
<path transform="matrix(1,0,0,-1,0,283.22688)" d="M31.90875 36.393125H548.39877V270.1931H31.90875Z"/>
</clipPath>
<clipPath id="clip_2">
<path transform="matrix(1,0,0,-1,0,283.22688)" d="M31.90875 36.393125H548.39877V270.1931H31.90875Z"/>
</clipPath>
<clipPath id="clip_3">
<path transform="matrix(1,0,0,-1,0,283.22688)" d="M31.90875 36.393125H548.39877V270.1931H31.90875Z"/>
</clipPath>
<clipPath id="clip_4">
<path transform="matrix(1,0,0,-1,0,283.22688)" d="M31.90875 36.393125H548.39877V270.1931H31.90875Z"/>
</clipPath>
<clipPath id="clip_5">
<path transform="matrix(1,0,0,-1,0,283.22688)" d="M31.90875 36.393125H548.39877V270.1931H31.90875Z"/>
</clipPath>
<clipPath id="clip_6">
<path transform="matrix(1,0,0,-1,0,283.22688)" d="M31.90875 36.393125H548.39877V270.1931H31.90875Z"/>
</clipPath>
<clipPath id="clip_7">
<path transform="matrix(1,0,0,-1,0,283.22688)" d="M31.90875 36.393125H548.39877V270.1931H31.90875Z"/>
</clipPath>
<clipPath id="clip_8">
<path transform="matrix(1,0,0,-1,0,283.22688)" d="M31.90875 36.393125H548.39877V270.1931H31.90875Z"/>
</clipPath>
<clipPath id="clip_9">
<path transform="matrix(1,0,0,-1,0,283.22688)" d="M31.90875 36.393125H548.39877V270.1931H31.90875Z"/>
</clipPath>
<clipPath id="clip_10">
<path transform="matrix(1,0,0,-1,0,283.22688)" d="M31.90875 36.393125H548.39877V270.1931H31.90875Z"/>
</clipPath>
<clipPath id="clip_11">
<path transform="matrix(1,0,0,-1,0,283.22688)" d="M31.90875 36.393125H548.39877V270.1931H31.90875Z"/>
</clipPath>
<clipPath id="clip_12">
<path transform="matrix(1,0,0,-1,0,283.22688)" d="M31.90875 36.393125H548.39877V270.1931H31.90875Z"/>
</clipPath>
<clipPath id="clip_13">
<path transform="matrix(1,0,0,-1,0,283.22688)" d="M31.90875 36.393125H548.39877V270.1931H31.90875Z"/>
</clipPath>
<clipPath id="clip_14">
<path transform="matrix(1,0,0,-1,0,283.22688)" d="M31.90875 36.393125H548.39877V270.1931H31.90875Z"/>
</clipPath>
<clipPath id="clip_15">
<path transform="matrix(1,0,0,-1,0,283.22688)" d="M31.90875 36.393125H548.39877V270.1931H31.90875Z"/>
</clipPath>
<clipPath id="clip_16">
<path transform="matrix(1,0,0,-1,0,283.22688)" d="M31.90875 36.393125H548.39877V270.1931H31.90875Z"/>
</clipPath>
<clipPath id="clip_17">
<path transform="matrix(.012,0,0,-.012,45.25641,10.033752)" d="M-665-325H2000V1006H-665Z"/>
</clipPath>
<clipPath id="clip_18">
<path transform="matrix(1,0,0,-1,0,283.22688)" d="M31.90875 36.393125H548.39877V270.1931H31.90875Z"/>
</clipPath>
<clipPath id="clip_19">
<path transform="matrix(1,0,0,-1,0,283.22688)" d="M31.90875 36.393125H548.39877V270.1931H31.90875Z"/>
</clipPath>
</defs>
<path transform="matrix(1,0,0,-1,0,283.22688)" d="M0 0H549.83877V283.22688H0Z" fill="#ffffff"/>
<path transform="matrix(1,0,0,-1,0,283.22688)" d="M31.90875 36.393125H548.39877V270.1931H31.90875Z" fill="#ffffff"/>
<g clip-path="url(#clip_1)">
<path transform="matrix(1,0,0,-1,0,283.22688)" stroke-width=".8" stroke-linecap="square" stroke-linejoin="round" fill="none" stroke="#b0b0b0" stroke-opacity=".35" d="M53.072584 36.393125V270.1931"/>
</g>
<path transform="matrix(1,0,0,-1,0,283.22688)" d="M53.072584 36.393125V32.893125"/>
<path transform="matrix(1,0,0,-1,0,283.22688)" stroke-width=".8" stroke-linecap="butt" stroke-linejoin="round" fill="none" stroke="#000000" d="M53.072584 36.393125V32.893125"/>
<text xml:space="preserve" transform="matrix(1 0 -0 1 49.736646 262.4275)" font-size="12" font-family="ArialMT"><tspan y="0" x="0">0</tspan></text>
<g clip-path="url(#clip_2)">
<path transform="matrix(1,0,0,-1,0,283.22688)" stroke-width=".8" stroke-linecap="square" stroke-linejoin="round" fill="none" stroke="#b0b0b0" stroke-opacity=".35" d="M110.897258 36.393125V270.1931"/>
</g>
<path transform="matrix(1,0,0,-1,0,283.22688)" d="M110.897258 36.393125V32.893125"/>
<path transform="matrix(1,0,0,-1,0,283.22688)" stroke-width=".8" stroke-linecap="butt" stroke-linejoin="round" fill="none" stroke="#000000" d="M110.897258 36.393125V32.893125"/>
<text xml:space="preserve" transform="matrix(1 0 -0 1 104.22538 262.4275)" font-size="12" font-family="ArialMT"><tspan y="0" x="0 6.672001">25</tspan></text>
<g clip-path="url(#clip_3)">
<path transform="matrix(1,0,0,-1,0,283.22688)" stroke-width=".8" stroke-linecap="square" stroke-linejoin="round" fill="none" stroke="#b0b0b0" stroke-opacity=".35" d="M168.72194 36.393125V270.1931"/>
</g>
<path transform="matrix(1,0,0,-1,0,283.22688)" d="M168.72194 36.393125V32.893125"/>
<path transform="matrix(1,0,0,-1,0,283.22688)" stroke-width=".8" stroke-linecap="butt" stroke-linejoin="round" fill="none" stroke="#000000" d="M168.72194 36.393125V32.893125"/>
<text xml:space="preserve" transform="matrix(1 0 -0 1 162.05005 262.4275)" font-size="12" font-family="ArialMT"><tspan y="0" x="0 6.672001">50</tspan></text>
<g clip-path="url(#clip_4)">
<path transform="matrix(1,0,0,-1,0,283.22688)" stroke-width=".8" stroke-linecap="square" stroke-linejoin="round" fill="none" stroke="#b0b0b0" stroke-opacity=".35" d="M226.5466 36.393125V270.1931"/>
</g>
<path transform="matrix(1,0,0,-1,0,283.22688)" d="M226.5466 36.393125V32.893125"/>
<path transform="matrix(1,0,0,-1,0,283.22688)" stroke-width=".8" stroke-linecap="butt" stroke-linejoin="round" fill="none" stroke="#000000" d="M226.5466 36.393125V32.893125"/>
<text xml:space="preserve" transform="matrix(1 0 -0 1 219.87473 262.4275)" font-size="12" font-family="ArialMT"><tspan y="0" x="0 6.672001">75</tspan></text>
<g clip-path="url(#clip_5)">
<path transform="matrix(1,0,0,-1,0,283.22688)" stroke-width=".8" stroke-linecap="square" stroke-linejoin="round" fill="none" stroke="#b0b0b0" stroke-opacity=".35" d="M284.37129 36.393125V270.1931"/>
</g>
<path transform="matrix(1,0,0,-1,0,283.22688)" d="M284.37129 36.393125V32.893125"/>
<path transform="matrix(1,0,0,-1,0,283.22688)" stroke-width=".8" stroke-linecap="butt" stroke-linejoin="round" fill="none" stroke="#000000" d="M284.37129 36.393125V32.893125"/>
<text xml:space="preserve" transform="matrix(1 0 -0 1 274.36347 262.4275)" font-size="12" font-family="ArialMT"><tspan y="0" x="0 6.672001 13.344002">100</tspan></text>
<g clip-path="url(#clip_6)">
<path transform="matrix(1,0,0,-1,0,283.22688)" stroke-width=".8" stroke-linecap="square" stroke-linejoin="round" fill="none" stroke="#b0b0b0" stroke-opacity=".35" d="M342.19596 36.393125V270.1931"/>
</g>
<path transform="matrix(1,0,0,-1,0,283.22688)" d="M342.19596 36.393125V32.893125"/>
<path transform="matrix(1,0,0,-1,0,283.22688)" stroke-width=".8" stroke-linecap="butt" stroke-linejoin="round" fill="none" stroke="#000000" d="M342.19596 36.393125V32.893125"/>
<text xml:space="preserve" transform="matrix(1 0 -0 1 332.18815 262.4275)" font-size="12" font-family="ArialMT"><tspan y="0" x="0 6.672001 13.344002">125</tspan></text>
<g clip-path="url(#clip_7)">
<path transform="matrix(1,0,0,-1,0,283.22688)" stroke-width=".8" stroke-linecap="square" stroke-linejoin="round" fill="none" stroke="#b0b0b0" stroke-opacity=".35" d="M400.02064 36.393125V270.1931"/>
</g>
<path transform="matrix(1,0,0,-1,0,283.22688)" d="M400.02064 36.393125V32.893125"/>
<path transform="matrix(1,0,0,-1,0,283.22688)" stroke-width=".8" stroke-linecap="butt" stroke-linejoin="round" fill="none" stroke="#000000" d="M400.02064 36.393125V32.893125"/>
<text xml:space="preserve" transform="matrix(1 0 -0 1 390.01283 262.4275)" font-size="12" font-family="ArialMT"><tspan y="0" x="0 6.672001 13.344002">150</tspan></text>
<g clip-path="url(#clip_8)">
<path transform="matrix(1,0,0,-1,0,283.22688)" stroke-width=".8" stroke-linecap="square" stroke-linejoin="round" fill="none" stroke="#b0b0b0" stroke-opacity=".35" d="M457.8453 36.393125V270.1931"/>
</g>
<path transform="matrix(1,0,0,-1,0,283.22688)" d="M457.8453 36.393125V32.893125"/>
<path transform="matrix(1,0,0,-1,0,283.22688)" stroke-width=".8" stroke-linecap="butt" stroke-linejoin="round" fill="none" stroke="#000000" d="M457.8453 36.393125V32.893125"/>
<text xml:space="preserve" transform="matrix(1 0 -0 1 447.8375 262.4275)" font-size="12" font-family="ArialMT"><tspan y="0" x="0 6.672001 13.344002">175</tspan></text>
<g clip-path="url(#clip_9)">
<path transform="matrix(1,0,0,-1,0,283.22688)" stroke-width=".8" stroke-linecap="square" stroke-linejoin="round" fill="none" stroke="#b0b0b0" stroke-opacity=".35" d="M515.67 36.393125V270.1931"/>
</g>
<path transform="matrix(1,0,0,-1,0,283.22688)" d="M515.67 36.393125V32.893125"/>
<path transform="matrix(1,0,0,-1,0,283.22688)" stroke-width=".8" stroke-linecap="butt" stroke-linejoin="round" fill="none" stroke="#000000" d="M515.67 36.393125V32.893125"/>
<text xml:space="preserve" transform="matrix(1 0 -0 1 505.66218 262.4275)" font-size="12" font-family="ArialMT"><tspan y="0" x="0 6.672001 13.344002">200</tspan></text>
<text xml:space="preserve" transform="matrix(1 0 -0 1 239.19281 279.0056)" font-size="14" font-family="ArialMT"><tspan y="0" x="0 10.892001 18.676003 26.460003 34.244005 38.906003 46.690004 50.582006 53.690008 61.474008 69.25801 73.15001 82.48801 86.380008 94.16401">Generation Step</tspan></text>
<g clip-path="url(#clip_10)">
<path transform="matrix(1,0,0,-1,0,283.22688)" stroke-width=".8" stroke-linecap="square" stroke-linejoin="round" fill="none" stroke="#b0b0b0" stroke-opacity=".35" d="M31.90875 46.892675H548.39877"/>
</g>
<path transform="matrix(1,0,0,-1,0,283.22688)" d="M31.90875 46.892675H28.40875"/>
<path transform="matrix(1,0,0,-1,0,283.22688)" stroke-width=".8" stroke-linecap="butt" stroke-linejoin="round" fill="none" stroke="#000000" d="M31.90875 46.892675H28.40875"/>
<text xml:space="preserve" transform="matrix(1 0 -0 1 18.236876 240.63108)" font-size="12" font-family="ArialMT"><tspan y="0" x="0">0</tspan></text>
<g clip-path="url(#clip_11)">
<path transform="matrix(1,0,0,-1,0,283.22688)" stroke-width=".8" stroke-linecap="square" stroke-linejoin="round" fill="none" stroke="#b0b0b0" stroke-opacity=".35" d="M31.90875 80.59314H548.39877"/>
</g>
<path transform="matrix(1,0,0,-1,0,283.22688)" d="M31.90875 80.59314H28.40875"/>
<path transform="matrix(1,0,0,-1,0,283.22688)" stroke-width=".8" stroke-linecap="butt" stroke-linejoin="round" fill="none" stroke="#000000" d="M31.90875 80.59314H28.40875"/>
<text xml:space="preserve" transform="matrix(1 0 -0 1 18.236876 206.9306)" font-size="12" font-family="ArialMT"><tspan y="0" x="0">1</tspan></text>
<g clip-path="url(#clip_12)">
<path transform="matrix(1,0,0,-1,0,283.22688)" stroke-width=".8" stroke-linecap="square" stroke-linejoin="round" fill="none" stroke="#b0b0b0" stroke-opacity=".35" d="M31.90875 114.2936H548.39877"/>
</g>
<path transform="matrix(1,0,0,-1,0,283.22688)" d="M31.90875 114.2936H28.40875"/>
<path transform="matrix(1,0,0,-1,0,283.22688)" stroke-width=".8" stroke-linecap="butt" stroke-linejoin="round" fill="none" stroke="#000000" d="M31.90875 114.2936H28.40875"/>
<text xml:space="preserve" transform="matrix(1 0 -0 1 18.236876 173.23014)" font-size="12" font-family="ArialMT"><tspan y="0" x="0">2</tspan></text>
<g clip-path="url(#clip_13)">
<path transform="matrix(1,0,0,-1,0,283.22688)" stroke-width=".8" stroke-linecap="square" stroke-linejoin="round" fill="none" stroke="#b0b0b0" stroke-opacity=".35" d="M31.90875 147.99407H548.39877"/>
</g>
<path transform="matrix(1,0,0,-1,0,283.22688)" d="M31.90875 147.99407H28.40875"/>
<path transform="matrix(1,0,0,-1,0,283.22688)" stroke-width=".8" stroke-linecap="butt" stroke-linejoin="round" fill="none" stroke="#000000" d="M31.90875 147.99407H28.40875"/>
<text xml:space="preserve" transform="matrix(1 0 -0 1 18.236876 139.52968)" font-size="12" font-family="ArialMT"><tspan y="0" x="0">3</tspan></text>
<g clip-path="url(#clip_14)">
<path transform="matrix(1,0,0,-1,0,283.22688)" stroke-width=".8" stroke-linecap="square" stroke-linejoin="round" fill="none" stroke="#b0b0b0" stroke-opacity=".35" d="M31.90875 181.69454H548.39877"/>
</g>
<path transform="matrix(1,0,0,-1,0,283.22688)" d="M31.90875 181.69454H28.40875"/>
<path transform="matrix(1,0,0,-1,0,283.22688)" stroke-width=".8" stroke-linecap="butt" stroke-linejoin="round" fill="none" stroke="#000000" d="M31.90875 181.69454H28.40875"/>
<text xml:space="preserve" transform="matrix(1 0 -0 1 18.236876 105.82921)" font-size="12" font-family="ArialMT"><tspan y="0" x="0">4</tspan></text>
<g clip-path="url(#clip_15)">
<path transform="matrix(1,0,0,-1,0,283.22688)" stroke-width=".8" stroke-linecap="square" stroke-linejoin="round" fill="none" stroke="#b0b0b0" stroke-opacity=".35" d="M31.90875 215.39499H548.39877"/>
</g>
<path transform="matrix(1,0,0,-1,0,283.22688)" d="M31.90875 215.39499H28.40875"/>
<path transform="matrix(1,0,0,-1,0,283.22688)" stroke-width=".8" stroke-linecap="butt" stroke-linejoin="round" fill="none" stroke="#000000" d="M31.90875 215.39499H28.40875"/>
<text xml:space="preserve" transform="matrix(1 0 -0 1 18.236876 72.12875)" font-size="12" font-family="ArialMT"><tspan y="0" x="0">5</tspan></text>
<g clip-path="url(#clip_16)">
<path transform="matrix(1,0,0,-1,0,283.22688)" stroke-width=".8" stroke-linecap="square" stroke-linejoin="round" fill="none" stroke="#b0b0b0" stroke-opacity=".35" d="M31.90875 249.09546H548.39877"/>
</g>
<path transform="matrix(1,0,0,-1,0,283.22688)" d="M31.90875 249.09546H28.40875"/>
<path transform="matrix(1,0,0,-1,0,283.22688)" stroke-width=".8" stroke-linecap="butt" stroke-linejoin="round" fill="none" stroke="#000000" d="M31.90875 249.09546H28.40875"/>
<text xml:space="preserve" transform="matrix(1 0 -0 1 18.236876 38.428285)" font-size="12" font-family="ArialMT"><tspan y="0" x="0">6</tspan></text>
<text xml:space="preserve" transform="matrix(0 -1 1 0 11.455625 173.87906)" font-size="14" font-family="ArialMT"><tspan y="0" x="0 7.784001 11.676002 16.338002 20.230002 30.338002 38.122 45.122 48.230005 56.014005 63.798006 73.136 76.244">1 - CosineSim</tspan></text>
<text xml:space="preserve" transform="matrix(1 0 -0 1 31.90875 10.033752)" font-size="12" font-family="ArialMT"><tspan y="0" x="0 6.672001 20.355469">1e1</tspan></text>
<g clip-path="url(#clip_17)">
<path transform="matrix(.012,0,0,-.012,45.25641,10.033752)" d="M528 312H56V394H528V312Z"/>
</g>
<g clip-path="url(#clip_18)">
<path transform="matrix(1,0,0,-1,0,283.22688)" stroke-width="2" stroke-linecap="square" stroke-linejoin="round" fill="none" stroke="#1f77b4" d="M55.385568 81.83904 57.698556 173.965 60.011545 55.470117 62.324529 60.660326 64.63751 52.4519 66.9505 49.94189 69.26349 54.086374 71.57648 69.03927 73.889469 49.03164 76.20245 55.167486 78.515438 115.78148 80.82842 50.063215 83.14141 57.359365 85.4544 52.36327 87.76739 55.758256 90.080379 134.1799 92.39336 48.81461 94.706348 50.385389 97.01933 52.488298 99.33232 51.924154 101.64531 52.706678 103.9583 54.489095 106.27128 61.5025 108.58427 52.987066 110.897258 54.301385 113.21024 51.53626 115.52323 57.228605 117.83622 62.231103 120.14921 54.181409 122.46219 50.636796 124.77518 54.575708 129.40116 51.331026 131.71414 59.050455 134.02713 58.502485 136.34012 54.0857 138.6531 56.99641 140.9661 70.08499 143.27907 59.40498 145.59206 52.938875 147.90505 61.32321 152.53102 50.080064 154.84401 57.107286 157.157 62.02081 159.46999 55.415185 161.78298 51.647134 164.09597 57.27983 166.40895 60.733118 168.72194 61.748849 171.03491 50.86899 173.3479 56.234106 175.66089 60.49991 177.97388 61.1109 180.28687 49.42796 182.59986 57.0018 184.91284 68.85055 187.22583 69.31426 189.53882 47.786409 191.8518 52.03368 194.1648 51.499528 196.47779 61.71717 198.79076 49.915945 201.10375 49.405717 203.41674 50.63612 205.72972 51.27946 208.04271 47.78068 210.3557 52.53885 212.66869 51.158143 214.98168 52.415506 217.29467 58.124704 219.60765 48.736425 221.92064 58.00675 224.23363 50.916173 226.5466 52.736333 228.85959 73.225208 231.17258 71.425937 233.48557 48.78192 235.79856 51.8399 238.11154 49.513895 240.42453 54.62794 242.73752 47.54006 245.0505 56.23916 247.3635 47.020399 249.67649 47.289327 254.30245 50.24587 256.61546 57.32398 258.92845 48.517709 261.24143 50.19498 263.5544 53.346315 265.8674 52.00874 268.18037 48.27574 270.49336 48.67846 272.80635 51.54401 275.11933 49.549955 277.4323 50.678247 279.7453 61.426675 282.0583 52.46336 284.37129 50.40325 286.68428 58.97968 288.99726 79.89486 291.31025 47.78405 293.62324 48.226877 295.93623 47.818765 298.2492 47.693735 300.5622 52.222066 302.87519 50.29541 305.18818 53.25296 307.50117 50.931 309.81416 73.02974 312.12715 56.81173 314.44013 55.291505 316.7531 47.637117 319.0661 47.44334 321.3791 47.664079 323.69206 54.313516 326.00505 56.83094 328.31803 61.930833 330.631 65.64395 332.944 49.106794 335.257 52.07513 337.56999 70.24676 339.88298 48.288885 342.19596 55.59312 344.50895 47.668798 346.82194 57.469903 349.13493 48.053319 351.4479 66.20371 353.7609 48.86954 356.07389 87.80807 358.38688 105.67841 360.69987 52.20993 363.01286 58.524389 365.32585 50.842706 367.63883 70.44694 369.9518 51.628938 372.2648 56.48989 374.5778 49.74272 376.89079 57.599649 379.20375 50.65196 381.51673 55.969556 383.8297 50.171728 386.1427 53.85485 388.4557 51.888769 390.76869 68.54926 393.08168 66.24618 395.39466 55.13985 397.70765 51.05131 400.02064 50.42381 402.33363 52.271604 404.6466 52.869115 406.9596 78.133 409.27259 120.62052 411.58558 52.9109 413.89857 49.64634 416.21156 60.420377 418.52455 54.222188 420.83753 63.27784 423.1505 55.22781 425.4635 47.58353 427.7765 55.06908 430.08949 58.949014 432.40248 56.18625 434.71543 48.736089 437.0284 54.643445 439.3414 58.948678 441.6544 63.737176 443.96739 57.905988 446.28038 72.15185 448.59336 50.715318 450.90635 73.460437 453.21934 79.54168 455.53233 57.853414 457.8453 67.79977 460.1583 70.84427 462.47129 86.49274 464.78428 79.23366 467.09727 81.702899 469.41026 63.279523 471.72325 47.493215 474.03623 92.31955 476.3492 87.93343 478.6622 140.09299 480.9752 73.910678 483.28819 76.83655 485.60118 57.26972 487.91416 52.331594 490.2271 54.10693 492.5401 50.31698 494.8531 59.919927 497.16609 53.70118 499.47908 49.47413 501.79206 55.755559 504.10505 55.645357 506.41804 55.03976 508.73103 61.337366 511.044 96.07783 513.357 62.100008 515.67 57.500234 517.983 130.32457 520.29598 72.082759 522.60897 67.39839 524.92196 52.999536"/>
</g>
<g clip-path="url(#clip_19)">
<path transform="matrix(1,0,0,-1,0,283.22688)" stroke-width="2" stroke-linecap="square" stroke-linejoin="round" fill="none" stroke="#ff7f0e" d="M55.385568 73.431118 57.698556 187.4664 60.011545 54.575368 62.324529 60.102918 64.63751 54.570314 66.9505 50.811029 69.26349 55.1658 71.57648 66.878398 73.889469 49.469747 76.20245 57.505624 78.515438 108.41017 80.82842 51.611078 83.14141 63.92017 85.4544 51.9683 87.76739 54.782289 90.080379 104.81097 92.39336 49.09028 94.706348 49.14555 97.01933 53.527959 99.33232 51.84664 101.64531 52.61164 103.9583 54.211404 106.27128 61.115957 108.58427 54.10895 110.897258 54.186128 113.21024 54.80891 115.52323 58.673345 117.83622 71.774738 120.14921 54.27476 122.46219 51.325296 124.77518 55.284425 127.088169 54.88642 129.40116 52.97662 131.71414 62.67561 134.02713 61.536874 136.34012 54.632997 138.6531 58.99114 140.9661 75.15287 143.27907 65.51488 145.59206 54.04391 147.90505 60.580453 152.53102 50.321695 154.84401 58.360269 157.157 65.830989 159.46999 58.93823 161.78298 50.86495 164.09597 60.29602 166.40895 66.54948 168.72194 66.211467 171.03491 51.18038 173.3479 58.69727 175.66089 61.10416 177.97388 64.86614 180.28687 49.78316 182.59986 58.04921 184.91284 74.9901 187.22583 83.77042 189.53882 47.734849 191.8518 53.21724 194.1648 51.73981 196.47779 71.02389 198.79076 50.43223 201.10375 49.995138 203.41674 50.500646 205.72972 53.136358 208.04271 47.92694 210.3557 51.78699 212.66869 51.89854 214.98168 54.662317 217.29467 60.227949 219.60765 48.913019 221.92064 60.693689 224.23363 50.70487 226.5466 56.78443 228.85959 104.2667 231.17258 91.514789 233.48557 48.5814 235.79856 53.19904 238.11154 49.700597 240.42453 53.57817 242.73752 47.44772 245.0505 56.092226 247.3635 47.058145 249.67649 47.156885 251.98947 49.26451 254.30245 49.953687 256.61546 58.750856 258.92845 48.49547 261.24143 51.115007 263.5544 55.784879 265.8674 54.024366 268.18037 48.051298 270.49336 49.101064 272.80635 51.988859 275.11933 50.495927 277.4323 53.739599 279.7453 65.6854 282.0583 54.26465 284.37129 52.68848 286.68428 69.93974 288.99726 109.22168 291.31025 47.739229 293.62324 48.8136 298.2492 47.733839 300.5622 54.84497 302.87519 52.913599 305.18818 54.839918 307.50117 54.052 309.81416 84.235149 312.12715 61.17864 314.44013 61.452959 316.7531 48.012876 319.0661 47.680929 321.3791 47.941095 323.69206 56.3898 326.00505 67.27842 328.31803 69.27854 330.631 81.41981 332.944 49.394258 335.257 54.170965 337.56999 84.465999 339.88298 48.424024 342.19596 57.09448 344.50895 47.763158 346.82194 64.284137 349.13493 48.712499 351.4479 72.71498 353.7609 49.138135 356.07389 104.7776 358.38688 183.849 360.69987 53.119508 363.01286 58.951036 365.32585 51.683195 367.63883 79.91036 369.9518 54.30745 372.2648 59.180536 374.5778 49.77204 376.89079 58.995859 379.20375 51.167577 381.51673 56.105707 383.8297 52.467405 386.1427 56.809373 388.4557 52.769697 390.76869 82.10999 393.08168 79.54809 395.39466 54.506956 397.70765 52.60423 400.02064 51.13691 402.33363 52.301599 404.6466 52.451566 406.9596 78.700519 409.27259 154.17069 411.58558 55.31442 413.89857 49.693857 416.21156 76.481 418.52455 57.315889 420.83753 76.43652 423.1505 64.60968 425.4635 47.787759 427.7765 61.702005 430.08949 68.36526 432.40248 62.470376 434.71543 49.084554 437.0284 60.72806 439.3414 61.61371 441.6544 73.13253 443.96739 60.74761 446.28038 85.61417 448.59336 52.32822 450.90635 100.43125 453.21934 104.69874 455.53233 67.66665 457.8453 78.48989 460.1583 104.68998 462.47129 112.75619 464.78428 127.95543 467.09727 98.312168 469.41026 65.90176 471.72325 47.76619 474.03623 152.21909 476.3492 108.926128 478.6622 209.15738 480.9752 78.499668 483.28819 98.83385 485.60118 63.04362 487.91416 52.240266 490.2271 58.71075 492.5401 50.57108 494.8531 71.10915 497.16609 58.340047 499.47908 49.547597 501.79206 61.794008 504.10505 57.711198 506.41804 57.126157 508.73103 62.294797 511.044 91.92795 513.357 61.47082 515.67 65.40838 517.983 259.56587 520.29598 98.10828 522.60897 80.240299 524.92196 53.29812"/>
</g>
<path transform="matrix(1,0,0,-1,0,283.22688)" stroke-width=".8" stroke-linecap="square" stroke-miterlimit="10" stroke-linejoin="miter" fill="none" stroke="#000000" d="M31.90875 36.393125V270.1931"/>
<path transform="matrix(1,0,0,-1,0,283.22688)" stroke-width=".8" stroke-linecap="square" stroke-miterlimit="10" stroke-linejoin="miter" fill="none" stroke="#000000" d="M548.39877 36.393125V270.1931"/>
<path transform="matrix(1,0,0,-1,0,283.22688)" stroke-width=".8" stroke-linecap="square" stroke-miterlimit="10" stroke-linejoin="miter" fill="none" stroke="#000000" d="M31.90875 36.393125H548.39877"/>
<path transform="matrix(1,0,0,-1,0,283.22688)" stroke-width=".8" stroke-linecap="square" stroke-miterlimit="10" stroke-linejoin="miter" fill="none" stroke="#000000" d="M31.90875 270.1931H548.39877"/>
<g>
<path transform="matrix(1,0,0,-1,0,283.22688)" d="M42.40875 236.97438H309.19C311.19 236.97438 312.19 237.97438 312.19 239.97438V259.6931C312.19 261.6931 311.19 262.6931 309.19 262.6931H42.40875C40.40875 262.6931 39.40875 261.6931 39.40875 259.6931V239.97438C39.40875 237.97438 40.40875 236.97438 42.40875 236.97438Z" fill="#ffffff" fill-opacity=".85"/>
<path transform="matrix(1,0,0,-1,0,283.22688)" stroke-width="1" stroke-linecap="butt" stroke-miterlimit="10" stroke-linejoin="miter" fill="none" stroke="#cccccc" stroke-opacity=".85" d="M42.40875 236.97438H309.19C311.19 236.97438 312.19 237.97438 312.19 239.97438V259.6931C312.19 261.6931 311.19 262.6931 309.19 262.6931H42.40875C40.40875 262.6931 39.40875 261.6931 39.40875 259.6931V239.97438C39.40875 237.97438 40.40875 236.97438 42.40875 236.97438Z"/>
</g>
<path transform="matrix(1,0,0,-1,0,283.22688)" stroke-width="2" stroke-linecap="square" stroke-linejoin="round" fill="none" stroke="#1f77b4" d="M45.40875 251.20876H60.40875 75.40875"/>
<text xml:space="preserve" transform="matrix(1 0 -0 1 87.40875 37.268114)" font-size="15" font-family="ArialMT"><tspan y="0" x="0 11.670001 16.665 25.005002 33.345 41.685 50.025 54.195005 59.190004 67.53001 71.700008">Groundtruth</tspan></text>
<path transform="matrix(1,0,0,-1,0,283.22688)" stroke-width="2" stroke-linecap="square" stroke-linejoin="round" fill="none" stroke="#ff7f0e" d="M197.48688 251.20876H212.48688 227.48688"/>
<text xml:space="preserve" transform="matrix(1 0 -0 1 239.48688 37.268114)" font-size="15" font-family="ArialMT"><tspan y="0" x="0 10.005001 17.505002 21.675002 25.005002 37.5 45.84 50.010004 58.350004">Estimated</tspan></text>
</svg>
