<svg xmlns="http://www.w3.org/2000/svg" xmlns:xlink="http://www.w3.org/1999/xlink" xmlns:inkscape="http://www.inkscape.org/namespaces/inkscape" version="1.1" width="773.0037" height="341.24189" viewBox="0 0 773.0037 341.24189">
<defs>
<clipPath id="clip_1">
<path transform="matrix(1,0,0,-1,0,341.24189)" d="M56.53375 45.611875H771.5638V339.80189H56.53375Z"/>
</clipPath>
<clipPath id="clip_2">
<path transform="matrix(1,0,0,-1,0,341.24189)" d="M56.53375 45.611875H771.5638V339.80189H56.53375Z"/>
</clipPath>
<clipPath id="clip_3">
<path transform="matrix(1,0,0,-1,0,341.24189)" d="M56.53375 45.611875H771.5638V339.80189H56.53375Z"/>
</clipPath>
<clipPath id="clip_4">
<path transform="matrix(1,0,0,-1,0,341.24189)" d="M56.53375 45.611875H771.5638V339.80189H56.53375Z"/>
</clipPath>
<clipPath id="clip_5">
<path transform="matrix(1,0,0,-1,0,341.24189)" d="M56.53375 45.611875H771.5638V339.80189H56.53375Z"/>
</clipPath>
<clipPath id="clip_6">
<path transform="matrix(1,0,0,-1,0,341.24189)" d="M56.53375 45.611875H771.5638V339.80189H56.53375Z"/>
</clipPath>
<clipPath id="clip_7">
<path transform="matrix(.014,0,0,-.014,21.90875,294.85298)" d="M-665-325H2000V1006H-665Z"/>
</clipPath>
<clipPath id="clip_8">
<path transform="matrix(1,0,0,-1,0,341.24189)" d="M56.53375 45.611875H771.5638V339.80189H56.53375Z"/>
</clipPath>
<clipPath id="clip_9">
<path transform="matrix(.014,0,0,-.014,21.90875,256.20555)" d="M-665-325H2000V1006H-665Z"/>
</clipPath>
<clipPath id="clip_10">
<path transform="matrix(1,0,0,-1,0,341.24189)" d="M56.53375 45.611875H771.5638V339.80189H56.53375Z"/>
</clipPath>
<clipPath id="clip_11">
<path transform="matrix(.014,0,0,-.014,21.90875,217.5581)" d="M-665-325H2000V1006H-665Z"/>
</clipPath>
<clipPath id="clip_12">
<path transform="matrix(1,0,0,-1,0,341.24189)" d="M56.53375 45.611875H771.5638V339.80189H56.53375Z"/>
</clipPath>
<clipPath id="clip_13">
<path transform="matrix(1,0,0,-1,0,341.24189)" d="M56.53375 45.611875H771.5638V339.80189H56.53375Z"/>
</clipPath>
<clipPath id="clip_14">
<path transform="matrix(1,0,0,-1,0,341.24189)" d="M56.53375 45.611875H771.5638V339.80189H56.53375Z"/>
</clipPath>
<clipPath id="clip_15">
<path transform="matrix(1,0,0,-1,0,341.24189)" d="M56.53375 45.611875H771.5638V339.80189H56.53375Z"/>
</clipPath>
<clipPath id="clip_16">
<path transform="matrix(1,0,0,-1,0,341.24189)" d="M56.53375 45.611875H771.5638V339.80189H56.53375Z"/>
</clipPath>
<clipPath id="clip_17">
<path transform="matrix(1,0,0,-1,0,341.24189)" d="M56.53375 45.611875H771.5638V339.80189H56.53375Z"/>
</clipPath>
<clipPath id="clip_18">
<path transform="matrix(1,0,0,-1,0,341.24189)" d="M56.53375 45.611875H771.5638V339.80189H56.53375Z"/>
</clipPath>
</defs>
<path transform="matrix(1,0,0,-1,0,341.24189)" d="M0 0H773.0037V341.24189H0Z" fill="#ffffff"/>
<path transform="matrix(1,0,0,-1,0,341.24189)" d="M56.53375 45.611875H771.5637V339.80189H56.53375Z" fill="#ffffff"/>
<g clip-path="url(#clip_1)">
<path transform="matrix(1,0,0,-1,0,341.24189)" stroke-width=".8" stroke-linecap="square" stroke-linejoin="round" fill="none" stroke="#b0b0b0" d="M89.03511 45.611875V339.80189"/>
</g>
<path transform="matrix(1,0,0,-1,0,341.24189)" d="M89.03511 45.611875V42.111875"/>
<path transform="matrix(1,0,0,-1,0,341.24189)" stroke-width=".8" stroke-linecap="butt" stroke-linejoin="round" fill="none" stroke="#000000" d="M89.03511 45.611875V42.111875"/>
<text xml:space="preserve" transform="matrix(1 0 -0 1 84.581989 314.08314)" font-size="16" font-family="ArialMT"><tspan y="0" x="0">0</tspan></text>
<g clip-path="url(#clip_2)">
<path transform="matrix(1,0,0,-1,0,341.24189)" stroke-width=".8" stroke-linecap="square" stroke-linejoin="round" fill="none" stroke="#b0b0b0" d="M236.10012 45.611875V339.80189"/>
</g>
<path transform="matrix(1,0,0,-1,0,341.24189)" d="M236.10012 45.611875V42.111875"/>
<path transform="matrix(1,0,0,-1,0,341.24189)" stroke-width=".8" stroke-linecap="butt" stroke-linejoin="round" fill="none" stroke="#000000" d="M236.10012 45.611875V42.111875"/>
<text xml:space="preserve" transform="matrix(1 0 -0 1 227.19387 314.08314)" font-size="16" font-family="ArialMT"><tspan y="0" x="0 8.896001">50</tspan></text>
<g clip-path="url(#clip_3)">
<path transform="matrix(1,0,0,-1,0,341.24189)" stroke-width=".8" stroke-linecap="square" stroke-linejoin="round" fill="none" stroke="#b0b0b0" d="M383.1651 45.611875V339.80189"/>
</g>
<path transform="matrix(1,0,0,-1,0,341.24189)" d="M383.1651 45.611875V42.111875"/>
<path transform="matrix(1,0,0,-1,0,341.24189)" stroke-width=".8" stroke-linecap="butt" stroke-linejoin="round" fill="none" stroke="#000000" d="M383.1651 45.611875V42.111875"/>
<text xml:space="preserve" transform="matrix(1 0 -0 1 369.80574 314.08314)" font-size="16" font-family="ArialMT"><tspan y="0" x="0 8.896001 17.792002">100</tspan></text>
<g clip-path="url(#clip_4)">
<path transform="matrix(1,0,0,-1,0,341.24189)" stroke-width=".8" stroke-linecap="square" stroke-linejoin="round" fill="none" stroke="#b0b0b0" d="M530.2301 45.611875V339.80189"/>
</g>
<path transform="matrix(1,0,0,-1,0,341.24189)" d="M530.2301 45.611875V42.111875"/>
<path transform="matrix(1,0,0,-1,0,341.24189)" stroke-width=".8" stroke-linecap="butt" stroke-linejoin="round" fill="none" stroke="#000000" d="M530.2301 45.611875V42.111875"/>
<text xml:space="preserve" transform="matrix(1 0 -0 1 516.8707 314.08314)" font-size="16" font-family="ArialMT"><tspan y="0" x="0 8.896001 17.792002">150</tspan></text>
<g clip-path="url(#clip_5)">
<path transform="matrix(1,0,0,-1,0,341.24189)" stroke-width=".8" stroke-linecap="square" stroke-linejoin="round" fill="none" stroke="#b0b0b0" d="M677.2951 45.611875V339.80189"/>
</g>
<path transform="matrix(1,0,0,-1,0,341.24189)" d="M677.2951 45.611875V42.111875"/>
<path transform="matrix(1,0,0,-1,0,341.24189)" stroke-width=".8" stroke-linecap="butt" stroke-linejoin="round" fill="none" stroke="#000000" d="M677.2951 45.611875V42.111875"/>
<text xml:space="preserve" transform="matrix(1 0 -0 1 663.9357 314.08314)" font-size="16" font-family="ArialMT"><tspan y="0" x="0 8.896001 17.792002">200</tspan></text>
<text xml:space="preserve" transform="matrix(1 0 -0 1 341.205 335.83314)" font-size="20" font-family="ArialMT"><tspan y="0" x="0 15.560001 26.680003 37.800004 48.920007 55.580007 66.700008 72.26 76.700008 87.82001 98.94001 104.50001 117.84001 123.40001 134.52">Generation Step</tspan></text>
<g clip-path="url(#clip_6)">
<path transform="matrix(1,0,0,-1,0,341.24189)" stroke-width=".8" stroke-linecap="square" stroke-linejoin="round" fill="none" stroke="#b0b0b0" d="M56.53375 51.396734H771.5637"/>
</g>
<path transform="matrix(1,0,0,-1,0,341.24189)" d="M56.53375 51.396734H53.03375"/>
<path transform="matrix(1,0,0,-1,0,341.24189)" stroke-width=".8" stroke-linecap="butt" stroke-linejoin="round" fill="none" stroke="#000000" d="M56.53375 51.396734H53.03375"/>
<text xml:space="preserve" transform="matrix(1 0 -0 1 21.90875 294.85298)" font-size="14" font-family="ArialMT"><tspan y="0" x="8.175781 15.959782 19.851782">0.6</tspan></text>
<g clip-path="url(#clip_7)">
<path transform="matrix(.014,0,0,-.014,21.90875,294.85298)" d="M528 312H56V394H528V312Z"/>
</g>
<g clip-path="url(#clip_8)">
<path transform="matrix(1,0,0,-1,0,341.24189)" stroke-width=".8" stroke-linecap="square" stroke-linejoin="round" fill="none" stroke="#b0b0b0" d="M56.53375 90.04416H771.5637"/>
</g>
<path transform="matrix(1,0,0,-1,0,341.24189)" d="M56.53375 90.04416H53.03375"/>
<path transform="matrix(1,0,0,-1,0,341.24189)" stroke-width=".8" stroke-linecap="butt" stroke-linejoin="round" fill="none" stroke="#000000" d="M56.53375 90.04416H53.03375"/>
<text xml:space="preserve" transform="matrix(1 0 -0 1 21.90875 256.20555)" font-size="14" font-family="ArialMT"><tspan y="0" x="8.175781 15.959782 19.851782">0.4</tspan></text>
<g clip-path="url(#clip_9)">
<path transform="matrix(.014,0,0,-.014,21.90875,256.20555)" d="M528 312H56V394H528V312Z"/>
</g>
<g clip-path="url(#clip_10)">
<path transform="matrix(1,0,0,-1,0,341.24189)" stroke-width=".8" stroke-linecap="square" stroke-linejoin="round" fill="none" stroke="#b0b0b0" d="M56.53375 128.69159H771.5637"/>
</g>
<path transform="matrix(1,0,0,-1,0,341.24189)" d="M56.53375 128.69159H53.03375"/>
<path transform="matrix(1,0,0,-1,0,341.24189)" stroke-width=".8" stroke-linecap="butt" stroke-linejoin="round" fill="none" stroke="#000000" d="M56.53375 128.69159H53.03375"/>
<text xml:space="preserve" transform="matrix(1 0 -0 1 21.90875 217.5581)" font-size="14" font-family="ArialMT"><tspan y="0" x="8.175781 15.959782 19.851782">0.2</tspan></text>
<g clip-path="url(#clip_11)">
<path transform="matrix(.014,0,0,-.014,21.90875,217.5581)" d="M528 312H56V394H528V312Z"/>
</g>
<g clip-path="url(#clip_12)">
<path transform="matrix(1,0,0,-1,0,341.24189)" stroke-width=".8" stroke-linecap="square" stroke-linejoin="round" fill="none" stroke="#b0b0b0" d="M56.53375 167.33902H771.5637"/>
</g>
<path transform="matrix(1,0,0,-1,0,341.24189)" d="M56.53375 167.33902H53.03375"/>
<path transform="matrix(1,0,0,-1,0,341.24189)" stroke-width=".8" stroke-linecap="butt" stroke-linejoin="round" fill="none" stroke="#000000" d="M56.53375 167.33902H53.03375"/>
<text xml:space="preserve" transform="matrix(1 0 -0 1 30.080626 178.91068)" font-size="14" font-family="ArialMT"><tspan y="0" x="0 7.784001 11.676002">0.0</tspan></text>
<g clip-path="url(#clip_13)">
<path transform="matrix(1,0,0,-1,0,341.24189)" stroke-width=".8" stroke-linecap="square" stroke-linejoin="round" fill="none" stroke="#b0b0b0" d="M56.53375 205.98644H771.5637"/>
</g>
<path transform="matrix(1,0,0,-1,0,341.24189)" d="M56.53375 205.98644H53.03375"/>
<path transform="matrix(1,0,0,-1,0,341.24189)" stroke-width=".8" stroke-linecap="butt" stroke-linejoin="round" fill="none" stroke="#000000" d="M56.53375 205.98644H53.03375"/>
<text xml:space="preserve" transform="matrix(1 0 -0 1 30.080626 140.26326)" font-size="14" font-family="ArialMT"><tspan y="0" x="0 7.784001 11.676002">0.2</tspan></text>
<g clip-path="url(#clip_14)">
<path transform="matrix(1,0,0,-1,0,341.24189)" stroke-width=".8" stroke-linecap="square" stroke-linejoin="round" fill="none" stroke="#b0b0b0" d="M56.53375 244.63387H771.5637"/>
</g>
<path transform="matrix(1,0,0,-1,0,341.24189)" d="M56.53375 244.63387H53.03375"/>
<path transform="matrix(1,0,0,-1,0,341.24189)" stroke-width=".8" stroke-linecap="butt" stroke-linejoin="round" fill="none" stroke="#000000" d="M56.53375 244.63387H53.03375"/>
<text xml:space="preserve" transform="matrix(1 0 -0 1 30.080626 101.61583)" font-size="14" font-family="ArialMT"><tspan y="0" x="0 7.784001 11.676002">0.4</tspan></text>
<g clip-path="url(#clip_15)">
<path transform="matrix(1,0,0,-1,0,341.24189)" stroke-width=".8" stroke-linecap="square" stroke-linejoin="round" fill="none" stroke="#b0b0b0" d="M56.53375 283.2813H771.5637"/>
</g>
<path transform="matrix(1,0,0,-1,0,341.24189)" d="M56.53375 283.2813H53.03375"/>
<path transform="matrix(1,0,0,-1,0,341.24189)" stroke-width=".8" stroke-linecap="butt" stroke-linejoin="round" fill="none" stroke="#000000" d="M56.53375 283.2813H53.03375"/>
<text xml:space="preserve" transform="matrix(1 0 -0 1 30.080626 62.968385)" font-size="14" font-family="ArialMT"><tspan y="0" x="0 7.784001 11.676002">0.6</tspan></text>
<g clip-path="url(#clip_16)">
<path transform="matrix(1,0,0,-1,0,341.24189)" stroke-width=".8" stroke-linecap="square" stroke-linejoin="round" fill="none" stroke="#b0b0b0" d="M56.53375 321.9287H771.5637"/>
</g>
<path transform="matrix(1,0,0,-1,0,341.24189)" d="M56.53375 321.9287H53.03375"/>
<path transform="matrix(1,0,0,-1,0,341.24189)" stroke-width=".8" stroke-linecap="butt" stroke-linejoin="round" fill="none" stroke="#000000" d="M56.53375 321.9287H53.03375"/>
<text xml:space="preserve" transform="matrix(1 0 -0 1 30.080626 24.320984)" font-size="14" font-family="ArialMT"><tspan y="0" x="0 7.784001 11.676002">0.8</tspan></text>
<text xml:space="preserve" transform="matrix(0 -1 1 0 14.330625 192.05844)" font-size="18" font-family="ArialMT"><tspan y="0" x="0 12.996001 23.004002 32.004 36 46.008005 56.016008 68.022 72.018009">CosineSim</tspan></text>
<g clip-path="url(#clip_17)">
<path transform="matrix(1,0,0,-1,0,341.24189)" stroke-width="1.5" stroke-linecap="square" stroke-linejoin="round" fill="none" stroke="#ffa500" d="M89.03511 321.57954 91.97642 263.82499 94.91771 209.57498 100.800319 263.45509 106.682918 272.2455 109.624217 286.50495 112.56551 270.699 115.50681 272.24024 118.44811 280.87458 121.38941 265.61244 124.33071 238.53903 127.27201 235.79634 130.21332 234.95633 133.15462 218.91069 136.09592 213.99498 139.03722 214.98635 141.97852 185.55788 144.91982 187.96663 147.86112 179.56227 150.80242 198.83278 153.74372 196.94652 156.68502 197.21834 159.62631 162.40425 162.56761 212.12035 165.50891 241.9268 168.45021 252.45606 171.39151 261.21 174.33281 261.8857 177.27411 278.44508 183.15671 299.4736 186.098 257.3762 189.0393 275.7434 191.9806 267.8534 194.9219 278.30967 197.8632 260.80085 200.8045 280.35337 203.7458 241.47219 206.6871 250.05966 209.6284 272.66026 212.5697 287.31233 215.511 295.29316 218.4523 226.11327 221.3936 243.65839 224.33492 247.37795 227.27622 264.3043 230.21752 245.30754 233.15882 229.3719 236.10012 185.7934 239.04141 170.87221 241.98271 171.29285 244.92401 208.63636 247.86531 167.05774 250.80661 187.17928 253.74791 175.3648 256.6892 210.6911 259.6305 181.13785 262.5718 160.99257 265.5131 193.22191 268.4544 177.15756 271.3957 198.85443 274.337 187.40946 277.27833 189.52754 280.2196 213.09725 283.16093 227.44257 286.1022 167.47638 289.04353 199.90985 291.9848 152.46999 294.92613 189.96999 297.8674 183.00757 300.80873 165.07906 303.75 129.16234 306.6913 140.85927 309.6326 163.50356 312.5739 200.62389 315.5152 231.83589 318.4565 259.6893 321.3978 272.13035 324.3391 275.28334 327.2804 291.3587 330.2217 298.5001 333.163 290.20649 336.1043 276.46858 339.0456 285.0606 341.9869 295.9295 344.9282 297.72215 347.8695 294.6045 350.8108 229.03798 353.7521 169.91744 356.6934 217.00048 359.6347 191.54114 362.576 230.3365 365.5173 243.18173 368.4586 257.58543 371.3999 268.49369 374.34123 278.6048 377.2825 206.2293 380.22383 199.81473 383.1651 205.02944 386.1064 161.03382 389.0477 201.83919 391.989 236.59633 394.9303 259.964 397.8716 213.79779 400.8129 223.12352 403.7542 158.63199 406.6955 159.06633 409.6368 113.84364 412.5781 89.14225 415.5194 73.119899 418.4607 60.45339 421.402 58.984148 424.3433 138.15384 427.2846 138.00458 430.2259 120.25361 433.1672 87.23972 436.1085 124.3885 439.0498 106.103939 441.9911 80.49589 444.9324 156.50679 447.8737 168.92063 450.815 195.8452 453.7563 166.36594 456.6976 179.69292 459.6389 180.26143 462.5802 171.7623 468.4628 234.86455 471.40409 262.21214 474.3454 278.31303 477.28669 290.6062 480.228 302.29356 483.1693 310.6917 486.1106 275.6626 489.0519 287.7723 491.9932 278.9445 494.9345 265.47013 497.8758 280.63923 500.8171 292.46733 503.7584 299.0642 506.6997 303.44923 509.641 303.45826 512.5823 304.2174 515.5236 314.20945 518.4649 276.79389 521.4062 292.30067 524.3475 276.59898 527.2888 225.41909 530.2301 256.61665 533.1714 188.88326 536.1127 227.85227 539.054 210.89989 541.9953 171.51023 544.9366 129.67638 547.87789 163.9183 550.8192 125.06779 553.7605 123.75315 556.7018 127.90436 559.64309 165.1409 562.5844 189.63321 565.5257 161.01227 568.467 204.42406 571.40829 155.58487 574.3496 120.08192 577.2909 93.42706 580.2322 100.60731 583.1735 95.406909 586.1148 142.8072 589.0561 174.19779 591.9974 172.03539 594.9387 172.731 597.88 215.24279 600.8213 245.88323 603.7626 266.08805 606.7039 275.25914 609.6452 289.96965 612.5865 274.16957 615.5278 248.9824 618.4691 202.59467 621.4104 230.73079 624.3517 254.91205 627.29299 272.20173 630.2343 290.7982 633.1756 302.56748 639.05819 316.00386 641.9995 319.81144 644.9408 322.5673 647.8821 322.76649 650.82339 323.8779 653.7647 326.4296 656.706 322.54643 659.6473 305.8475 662.58859 297.91679 665.5299 305.39494 668.4712 297.29197 671.4125 282.47068 674.35379 265.85435 677.2951 254.16083 680.2364 261.33076 683.1777 273.53977 686.119 281.9421 689.0603 210.50089 692.0016 212.13307 694.9429 184.83107 697.8842 203.07927 700.8255 148.18035 703.7668 109.81083 706.70809 173.95017 709.6494 217.99106 712.5907 220.74056 715.532 247.0853 718.47329 270.90733 721.4146 287.30287 724.3559 288.98838 727.2972 284.65464 730.23849 287.78547 733.1798 304.59254 736.1211 304.8057 739.0624 210.14673"/>
</g>
<g clip-path="url(#clip_18)">
<path transform="matrix(1,0,0,-1,0,341.24189)" stroke-width="1.5" stroke-linecap="square" stroke-linejoin="round" fill="none" stroke="#0000ff" d="M89.03511 312.4675 91.97642 289.52543 94.91771 272.7068 97.85902 266.23884 100.800319 268.89179 103.741619 278.87327 106.682918 282.4302 109.624217 293.31803 112.56551 259.20268 115.50681 241.86696 118.44811 226.90549 121.38941 209.357 124.33071 199.02883 127.27201 181.515 130.21332 184.674 133.15462 185.71433 136.09592 181.10176 139.03722 180.38144 141.97852 178.65213 144.91982 169.05306 147.86112 178.23802 150.80242 171.94326 153.74372 175.80426 156.68502 187.20438 159.62631 185.83884 162.56761 184.25399 165.50891 180.17383 168.45021 173.44603 171.39151 168.04285 174.33281 158.09095 177.27411 163.85967 180.21541 159.78717 186.098 170.04578 189.0393 177.21791 191.9806 178.35097 194.9219 171.6268 197.8632 166.71274 200.8045 168.85109 203.7458 164.73206 206.6871 166.1485 209.6284 170.48366 212.5697 162.3517 215.511 161.369 218.4523 174.76102 221.3936 168.14812 224.33492 163.77347 227.27622 162.18828 230.21752 157.6975 233.15882 157.32453 236.10012 155.78227 239.04141 153.34044 241.98271 149.97414 244.92401 142.29549 247.86531 145.10118 250.80661 141.59265 253.74791 143.28963 259.6305 155.97853 262.5718 153.77672 265.5131 145.65177 268.4544 149.83702 271.3957 140.63469 274.337 139.59746 277.27833 140.61353 280.2196 142.4124 283.16093 149.61565 286.1022 150.60726 289.04353 164.26073 291.9848 163.61978 294.92613 167.69622 297.8674 158.83322 300.80873 147.9659 303.75 154.09455 306.6913 157.56282 309.6326 152.21863 312.5739 147.44702 315.5152 153.31937 318.4565 155.7205 321.3978 155.27167 324.3391 151.5247 327.2804 156.03911 330.2217 157.79395 333.163 155.76844 336.1043 150.48293 339.0456 151.9597 341.9869 153.30635 344.9282 144.08069 347.8695 141.28223 350.8108 140.95893 353.7521 142.19742 356.6934 149.43152 359.6347 143.29138 362.576 150.2745 365.5173 146.00502 368.4586 145.40097 371.3999 143.21222 374.34123 146.16129 377.2825 139.48189 380.22383 146.94727 383.1651 147.77574 386.1064 137.59656 389.0477 136.35909 394.9303 148.28829 397.8716 146.8939 400.8129 142.69298 403.7542 129.41643 406.6955 136.23172 409.6368 123.59409 412.5781 127.80641 415.5194 131.65827 418.4607 134.29148 421.402 143.05364 424.3433 152.19365 427.2846 154.10391 430.2259 152.77716 433.1672 145.0059 436.1085 138.32607 439.0498 134.3185 441.9911 134.59955 444.9324 147.50316 447.8737 154.63059 450.815 164.04685 453.7563 171.11566 456.6976 165.76998 459.6389 164.40979 462.5802 165.99134 465.52149 162.91988 468.4628 165.13213 471.40409 170.60439 474.3454 158.26348 477.28669 165.85068 480.228 171.96834 483.1693 171.40877 486.1106 172.72052 489.0519 179.9561 491.9932 191.88559 494.9345 196.72432 497.8758 200.57451 500.8171 202.07239 503.7584 203.86441 506.6997 200.02318 509.641 191.36846 512.5823 190.50568 515.5236 201.11824 518.4649 193.42514 521.4062 201.48166 524.3475 191.94474 527.2888 179.86139 530.2301 173.06288 533.1714 156.95478 536.1127 153.73854 539.054 148.85053 541.9953 144.25511 544.9366 143.90956 547.87789 145.6939 550.8192 137.56044 553.7605 130.88076 556.7018 126.071239 559.64309 130.25041 562.5844 132.62584 565.5257 133.5806 568.467 133.26787 571.40829 130.87854 574.3496 126.97492 577.2909 128.9689 580.2322 134.91112 583.1735 139.72293 586.1148 135.73703 589.0561 135.92873 591.9974 137.10758 594.9387 135.01016 597.88 139.73346 600.8213 146.88915 603.7626 167.19519 606.7039 169.92603 609.6452 183.89604 612.5865 178.14908 615.5278 174.82216 618.4691 172.5872 621.4104 169.13636 624.3517 171.95044 627.29299 172.05545 630.2343 179.66866 633.1756 183.83798 636.1169 194.28928 639.05819 203.51934 641.9995 202.26834 644.9408 193.5806 647.8821 196.08185 650.82339 206.50803 653.7647 205.18314 656.706 197.93839 659.6473 197.23978 662.58859 196.2116 665.5299 193.98143 668.4712 186.84154 671.4125 175.16854 674.35379 185.30045 680.2364 167.36196 683.1777 164.78568 686.119 160.47583 689.0603 162.84239 692.0016 157.33518 694.9429 148.75403 697.8842 149.58719 700.8255 148.67377 703.7668 143.66989 706.70809 150.6343 709.6494 150.69396 712.5907 158.80399 715.532 155.1463 718.47329 156.73896 721.4146 159.97185 724.3559 166.40645 727.2972 167.67082 730.23849 178.40576 733.1798 195.04697 736.1211 193.89374 739.0624 167.35622"/>
</g>
<path transform="matrix(1,0,0,-1,0,341.24189)" stroke-width=".8" stroke-linecap="square" stroke-miterlimit="10" stroke-linejoin="miter" fill="none" stroke="#000000" d="M56.53375 45.611875V339.80189"/>
<path transform="matrix(1,0,0,-1,0,341.24189)" stroke-width=".8" stroke-linecap="square" stroke-miterlimit="10" stroke-linejoin="miter" fill="none" stroke="#000000" d="M771.5637 45.611875V339.80189"/>
<path transform="matrix(1,0,0,-1,0,341.24189)" stroke-width=".8" stroke-linecap="square" stroke-miterlimit="10" stroke-linejoin="miter" fill="none" stroke="#000000" d="M56.53375 45.611875H771.5637"/>
<path transform="matrix(1,0,0,-1,0,341.24189)" stroke-width=".8" stroke-linecap="square" stroke-miterlimit="10" stroke-linejoin="miter" fill="none" stroke="#000000" d="M56.53375 339.80189H771.5637"/>
<g>
<path transform="matrix(1,0,0,-1,0,341.24189)" d="M69.13375 54.611875H207.81188C210.21187 54.611875 211.41188 55.811876 211.41188 58.211877V107.75562C211.41188 110.155628 210.21187 111.35562 207.81188 111.35562H69.13375C66.73375 111.35562 65.53375 110.155628 65.53375 107.75562V58.211877C65.53375 55.811876 66.73375 54.611875 69.13375 54.611875Z" fill="#ffffff" fill-opacity=".8"/>
<path transform="matrix(1,0,0,-1,0,341.24189)" stroke-width="1" stroke-linecap="butt" stroke-miterlimit="10" stroke-linejoin="miter" fill="none" stroke="#cccccc" stroke-opacity=".8" d="M69.13375 54.611875H207.81188C210.21187 54.611875 211.41188 55.811876 211.41188 58.211877V107.75562C211.41188 110.155628 210.21187 111.35562 207.81188 111.35562H69.13375C66.73375 111.35562 65.53375 110.155628 65.53375 107.75562V58.211877C65.53375 55.811876 66.73375 54.611875 69.13375 54.611875Z"/>
</g>
<path transform="matrix(1,0,0,-1,0,341.24189)" stroke-width="1.5" stroke-linecap="square" stroke-linejoin="round" fill="none" stroke="#ffa500" d="M72.73375 97.565H90.73375 108.73375"/>
<text xml:space="preserve" transform="matrix(1 0 -0 1 123.13375 249.97689)" font-size="18" font-family="ArialMT"><tspan y="0" x="0 10.008001 20.016003 30.024004 34.020006">Logit</tspan></text>
<path transform="matrix(1,0,0,-1,0,341.24189)" stroke-width="1.5" stroke-linecap="square" stroke-linejoin="round" fill="none" stroke="#0000ff" d="M72.73375 71.89313H90.73375 108.73375"/>
<text xml:space="preserve" transform="matrix(1 0 -0 1 123.13375 275.64875)" font-size="18" font-family="ArialMT"><tspan y="0" x="0 12.0060009 27.000002 37.008005 47.016008 57.02401 61.02001 71.028018">Embeding</tspan></text>
</svg>
