<?xml version="1.0" encoding="utf-8" standalone="no"?>
<!DOCTYPE svg PUBLIC "-//W3C//DTD SVG 1.1//EN"
  "http://www.w3.org/Graphics/SVG/1.1/DTD/svg11.dtd">
<svg xmlns:xlink="http://www.w3.org/1999/xlink" width="532.856719pt" height="302.457187pt" viewBox="0 0 532.856719 302.457187" xmlns="http://www.w3.org/2000/svg" version="1.1">
 <metadata>
  <rdf:RDF xmlns:dc="http://purl.org/dc/elements/1.1/" xmlns:cc="http://creativecommons.org/ns#" xmlns:rdf="http://www.w3.org/1999/02/22-rdf-syntax-ns#">
   <cc:Work>
    <dc:type rdf:resource="http://purl.org/dc/dcmitype/StillImage"/>
    <dc:date>2026-03-30T21:15:52.967248</dc:date>
    <dc:format>image/svg+xml</dc:format>
    <dc:creator>
     <cc:Agent>
      <dc:title>Matplotlib v3.9.4, https://matplotlib.org/</dc:title>
     </cc:Agent>
    </dc:creator>
   </cc:Work>
  </rdf:RDF>
 </metadata>
 <defs>
  <style type="text/css">*{stroke-linejoin: round; stroke-linecap: butt}</style>
 </defs>
 <g id="figure_1">
  <g id="patch_1">
   <path d="M 0 302.457187 
L 532.856719 302.457187 
L 532.856719 0 
L 0 0 
z
" style="fill: #ffffff"/>
  </g>
  <g id="axes_1">
   <g id="patch_2">
    <path d="M 55.606719 257.56 
L 525.656719 257.56 
L 525.656719 7.2 
L 55.606719 7.2 
z
" style="fill: #ffffff"/>
   </g>
   <g id="PolyCollection_1">
    <defs>
     <path id="m5b0a5d4c8e" d="M 76.972628 -173.333691 
L 76.972628 -137.127292 
L 92.799227 -268.778852 
L 108.625826 -270.051849 
L 124.452426 -271.813322 
L 140.279025 -272.953098 
L 156.105624 -273.308353 
L 171.932224 -271.369253 
L 187.758823 -275.395476 
L 203.585422 -275.439883 
L 219.412022 -264.871048 
L 235.238621 -276.890507 
L 251.06522 -272.849482 
L 266.89182 -275.765533 
L 282.718419 -274.921802 
L 298.545018 -274.670164 
L 314.371618 -278.133899 
L 330.198217 -278.874014 
L 346.024816 -280.383847 
L 361.851416 -274.344513 
L 377.678015 -271.176823 
L 393.504614 -275.484289 
L 409.331214 -270.155465 
L 425.157813 -272.346204 
L 440.984412 -275.454685 
L 456.811012 -279.066443 
L 472.637611 -275.262255 
L 488.46421 -274.803384 
L 504.29081 -255.131142 
L 504.29081 -280.502266 
L 504.29081 -280.502266 
L 488.46421 -283.329503 
L 472.637611 -283.151875 
L 456.811012 -283.433119 
L 440.984412 -283.092666 
L 425.157813 -283.477526 
L 409.331214 -282.811423 
L 393.504614 -282.929841 
L 377.678015 -281.479217 
L 361.851416 -282.056506 
L 346.024816 -282.900236 
L 330.198217 -282.811423 
L 314.371618 -282.530179 
L 298.545018 -282.722609 
L 282.718419 -282.500575 
L 266.89182 -282.737411 
L 251.06522 -282.767016 
L 235.238621 -282.308145 
L 219.412022 -281.656844 
L 203.585422 -282.485772 
L 187.758823 -282.678202 
L 171.932224 -280.591079 
L 156.105624 -283.018655 
L 140.279025 -282.544981 
L 124.452426 -281.790065 
L 108.625826 -282.515377 
L 92.799227 -278.563166 
L 76.972628 -173.333691 
z
" style="stroke: #4c72b0; stroke-opacity: 0.18"/>
    </defs>
    <g clip-path="url(#p51dd768648)">
     <use xlink:href="#m5b0a5d4c8e" x="0" y="302.457187" style="fill: #4c72b0; fill-opacity: 0.18; stroke: #4c72b0; stroke-opacity: 0.18"/>
    </g>
   </g>
   <g id="PolyCollection_2">
    <defs>
     <path id="m98dac0bf06" d="M 76.972628 -214.306428 
L 76.972628 -56.277187 
L 92.799227 -273.856038 
L 108.625826 -268.897271 
L 124.452426 -278.207911 
L 140.279025 -274.359315 
L 156.105624 -277.334576 
L 171.932224 -268.231168 
L 187.758823 -281.227578 
L 203.585422 -268.216365 
L 219.412022 -278.015481 
L 235.238621 -283.018655 
L 251.06522 -282.485772 
L 266.89182 -278.948025 
L 282.718419 -283.18148 
L 298.545018 -282.944643 
L 314.371618 -283.18148 
L 330.198217 -283.196282 
L 346.024816 -283.50713 
L 361.851416 -283.18148 
L 377.678015 -282.322947 
L 393.504614 -281.582833 
L 409.331214 -282.352552 
L 425.157813 -283.388712 
L 440.984412 -283.359107 
L 456.811012 -283.50713 
L 472.637611 -283.69956 
L 488.46421 -283.566339 
L 504.29081 -281.553228 
L 504.29081 -283.832781 
L 504.29081 -283.832781 
L 488.46421 -283.862385 
L 472.637611 -283.862385 
L 456.811012 -283.862385 
L 440.984412 -283.862385 
L 425.157813 -283.862385 
L 409.331214 -283.847583 
L 393.504614 -283.847583 
L 377.678015 -283.803176 
L 361.851416 -283.817978 
L 346.024816 -283.847583 
L 330.198217 -283.832781 
L 314.371618 -283.832781 
L 298.545018 -283.832781 
L 282.718419 -283.817978 
L 266.89182 -283.817978 
L 251.06522 -283.817978 
L 235.238621 -283.803176 
L 219.412022 -283.714362 
L 203.585422 -283.788374 
L 187.758823 -283.832781 
L 171.932224 -283.684758 
L 156.105624 -283.788374 
L 140.279025 -283.773571 
L 124.452426 -283.69956 
L 108.625826 -283.773571 
L 92.799227 -283.37391 
L 76.972628 -214.306428 
z
" style="stroke: #55a868; stroke-opacity: 0.18"/>
    </defs>
    <g clip-path="url(#p51dd768648)">
     <use xlink:href="#m98dac0bf06" x="0" y="302.457187" style="fill: #55a868; fill-opacity: 0.18; stroke: #55a868; stroke-opacity: 0.18"/>
    </g>
   </g>
   <g id="PolyCollection_3">
    <defs>
     <path id="m33b7c28696" d="M 76.972628 -282.737411 
L 76.972628 -268.660434 
L 92.799227 -282.426563 
L 108.625826 -280.783509 
L 124.452426 -275.691522 
L 140.279025 -265.862801 
L 156.105624 -262.769123 
L 171.932224 -248.262879 
L 187.758823 -273.337958 
L 203.585422 -263.775679 
L 219.412022 -212.944617 
L 235.238621 -256.507755 
L 251.06522 -250.127968 
L 266.89182 -228.057755 
L 282.718419 -248.618134 
L 298.545018 -237.560824 
L 314.371618 -261.747765 
L 330.198217 -252.718369 
L 346.024816 -272.375809 
L 361.851416 -260.282338 
L 377.678015 -222.107234 
L 393.504614 -237.383197 
L 409.331214 -235.162853 
L 425.157813 -212.012073 
L 440.984412 -218.303046 
L 456.811012 -197.787073 
L 472.637611 -224.53481 
L 488.46421 -187.825132 
L 504.29081 -136.15034 
L 504.29081 -283.877187 
L 504.29081 -283.877187 
L 488.46421 -283.877187 
L 472.637611 -283.877187 
L 456.811012 -283.877187 
L 440.984412 -283.877187 
L 425.157813 -283.877187 
L 409.331214 -283.877187 
L 393.504614 -283.877187 
L 377.678015 -283.877187 
L 361.851416 -283.877187 
L 346.024816 -283.877187 
L 330.198217 -283.847583 
L 314.371618 -283.847583 
L 298.545018 -283.847583 
L 282.718419 -283.847583 
L 266.89182 -283.817978 
L 251.06522 -283.669955 
L 235.238621 -283.684758 
L 219.412022 -283.566339 
L 203.585422 -283.625549 
L 187.758823 -283.640351 
L 171.932224 -280.20622 
L 156.105624 -283.595944 
L 140.279025 -283.477526 
L 124.452426 -283.521933 
L 108.625826 -283.729165 
L 92.799227 -283.521933 
L 76.972628 -282.737411 
z
" style="stroke: #c44e52; stroke-opacity: 0.18"/>
    </defs>
    <g clip-path="url(#p51dd768648)">
     <use xlink:href="#m33b7c28696" x="0" y="302.457187" style="fill: #c44e52; fill-opacity: 0.18; stroke: #c44e52; stroke-opacity: 0.18"/>
    </g>
   </g>
   <g id="matplotlib.axis_1">
    <g id="xtick_1">
     <g id="line2d_1">
      <defs>
       <path id="m33d30b54db" d="M 0 0 
L 0 3.5 
" style="stroke: #000000; stroke-width: 0.8"/>
      </defs>
      <g>
       <use xlink:href="#m33d30b54db" x="76.972628" y="257.56" style="stroke: #000000; stroke-width: 0.8"/>
      </g>
     </g>
     <g id="text_1">
      <!-- 0 -->
      <g transform="translate(73.079972 274.580938) scale(0.14 -0.14)">
       <defs>
        <path id="ArialMT-30" d="M 266 2259 
Q 266 3072 433 3567 
Q 600 4063 929 4331 
Q 1259 4600 1759 4600 
Q 2128 4600 2406 4451 
Q 2684 4303 2865 4023 
Q 3047 3744 3150 3342 
Q 3253 2941 3253 2259 
Q 3253 1453 3087 958 
Q 2922 463 2592 192 
Q 2263 -78 1759 -78 
Q 1097 -78 719 397 
Q 266 969 266 2259 
z
M 844 2259 
Q 844 1131 1108 757 
Q 1372 384 1759 384 
Q 2147 384 2411 759 
Q 2675 1134 2675 2259 
Q 2675 3391 2411 3762 
Q 2147 4134 1753 4134 
Q 1366 4134 1134 3806 
Q 844 3388 844 2259 
z
" transform="scale(0.015625)"/>
       </defs>
       <use xlink:href="#ArialMT-30"/>
      </g>
     </g>
    </g>
    <g id="xtick_2">
     <g id="line2d_2">
      <g>
       <use xlink:href="#m33d30b54db" x="156.105624" y="257.56" style="stroke: #000000; stroke-width: 0.8"/>
      </g>
     </g>
     <g id="text_2">
      <!-- 5 -->
      <g transform="translate(152.212968 274.580938) scale(0.14 -0.14)">
       <defs>
        <path id="ArialMT-35" d="M 266 1200 
L 856 1250 
Q 922 819 1161 601 
Q 1400 384 1738 384 
Q 2144 384 2425 690 
Q 2706 997 2706 1503 
Q 2706 1984 2436 2262 
Q 2166 2541 1728 2541 
Q 1456 2541 1237 2417 
Q 1019 2294 894 2097 
L 366 2166 
L 809 4519 
L 3088 4519 
L 3088 3981 
L 1259 3981 
L 1013 2750 
Q 1425 3038 1878 3038 
Q 2478 3038 2890 2622 
Q 3303 2206 3303 1553 
Q 3303 931 2941 478 
Q 2500 -78 1738 -78 
Q 1113 -78 717 272 
Q 322 622 266 1200 
z
" transform="scale(0.015625)"/>
       </defs>
       <use xlink:href="#ArialMT-35"/>
      </g>
     </g>
    </g>
    <g id="xtick_3">
     <g id="line2d_3">
      <g>
       <use xlink:href="#m33d30b54db" x="235.238621" y="257.56" style="stroke: #000000; stroke-width: 0.8"/>
      </g>
     </g>
     <g id="text_3">
      <!-- 10 -->
      <g transform="translate(227.453309 274.580938) scale(0.14 -0.14)">
       <defs>
        <path id="ArialMT-31" d="M 2384 0 
L 1822 0 
L 1822 3584 
Q 1619 3391 1289 3197 
Q 959 3003 697 2906 
L 697 3450 
Q 1169 3672 1522 3987 
Q 1875 4303 2022 4600 
L 2384 4600 
L 2384 0 
z
" transform="scale(0.015625)"/>
       </defs>
       <use xlink:href="#ArialMT-31"/>
       <use xlink:href="#ArialMT-30" x="55.615234"/>
      </g>
     </g>
    </g>
    <g id="xtick_4">
     <g id="line2d_4">
      <g>
       <use xlink:href="#m33d30b54db" x="314.371618" y="257.56" style="stroke: #000000; stroke-width: 0.8"/>
      </g>
     </g>
     <g id="text_4">
      <!-- 15 -->
      <g transform="translate(306.586305 274.580938) scale(0.14 -0.14)">
       <use xlink:href="#ArialMT-31"/>
       <use xlink:href="#ArialMT-35" x="55.615234"/>
      </g>
     </g>
    </g>
    <g id="xtick_5">
     <g id="line2d_5">
      <g>
       <use xlink:href="#m33d30b54db" x="393.504614" y="257.56" style="stroke: #000000; stroke-width: 0.8"/>
      </g>
     </g>
     <g id="text_5">
      <!-- 20 -->
      <g transform="translate(385.719302 274.580938) scale(0.14 -0.14)">
       <defs>
        <path id="ArialMT-32" d="M 3222 541 
L 3222 0 
L 194 0 
Q 188 203 259 391 
Q 375 700 629 1000 
Q 884 1300 1366 1694 
Q 2113 2306 2375 2664 
Q 2638 3022 2638 3341 
Q 2638 3675 2398 3904 
Q 2159 4134 1775 4134 
Q 1369 4134 1125 3890 
Q 881 3647 878 3216 
L 300 3275 
Q 359 3922 746 4261 
Q 1134 4600 1788 4600 
Q 2447 4600 2831 4234 
Q 3216 3869 3216 3328 
Q 3216 3053 3103 2787 
Q 2991 2522 2730 2228 
Q 2469 1934 1863 1422 
Q 1356 997 1212 845 
Q 1069 694 975 541 
L 3222 541 
z
" transform="scale(0.015625)"/>
       </defs>
       <use xlink:href="#ArialMT-32"/>
       <use xlink:href="#ArialMT-30" x="55.615234"/>
      </g>
     </g>
    </g>
    <g id="xtick_6">
     <g id="line2d_6">
      <g>
       <use xlink:href="#m33d30b54db" x="472.637611" y="257.56" style="stroke: #000000; stroke-width: 0.8"/>
      </g>
     </g>
     <g id="text_6">
      <!-- 25 -->
      <g transform="translate(464.852299 274.580938) scale(0.14 -0.14)">
       <use xlink:href="#ArialMT-32"/>
       <use xlink:href="#ArialMT-35" x="55.615234"/>
      </g>
     </g>
    </g>
    <g id="text_7">
     <!-- Layer Index -->
     <g transform="translate(251.443047 292.100156) scale(0.15 -0.15)">
      <defs>
       <path id="ArialMT-4c" d="M 469 0 
L 469 4581 
L 1075 4581 
L 1075 541 
L 3331 541 
L 3331 0 
L 469 0 
z
" transform="scale(0.015625)"/>
       <path id="ArialMT-61" d="M 2588 409 
Q 2275 144 1986 34 
Q 1697 -75 1366 -75 
Q 819 -75 525 192 
Q 231 459 231 875 
Q 231 1119 342 1320 
Q 453 1522 633 1644 
Q 813 1766 1038 1828 
Q 1203 1872 1538 1913 
Q 2219 1994 2541 2106 
Q 2544 2222 2544 2253 
Q 2544 2597 2384 2738 
Q 2169 2928 1744 2928 
Q 1347 2928 1158 2789 
Q 969 2650 878 2297 
L 328 2372 
Q 403 2725 575 2942 
Q 747 3159 1072 3276 
Q 1397 3394 1825 3394 
Q 2250 3394 2515 3294 
Q 2781 3194 2906 3042 
Q 3031 2891 3081 2659 
Q 3109 2516 3109 2141 
L 3109 1391 
Q 3109 606 3145 398 
Q 3181 191 3288 0 
L 2700 0 
Q 2613 175 2588 409 
z
M 2541 1666 
Q 2234 1541 1622 1453 
Q 1275 1403 1131 1340 
Q 988 1278 909 1158 
Q 831 1038 831 891 
Q 831 666 1001 516 
Q 1172 366 1500 366 
Q 1825 366 2078 508 
Q 2331 650 2450 897 
Q 2541 1088 2541 1459 
L 2541 1666 
z
" transform="scale(0.015625)"/>
       <path id="ArialMT-79" d="M 397 -1278 
L 334 -750 
Q 519 -800 656 -800 
Q 844 -800 956 -737 
Q 1069 -675 1141 -563 
Q 1194 -478 1313 -144 
Q 1328 -97 1363 -6 
L 103 3319 
L 709 3319 
L 1400 1397 
Q 1534 1031 1641 628 
Q 1738 1016 1872 1384 
L 2581 3319 
L 3144 3319 
L 1881 -56 
Q 1678 -603 1566 -809 
Q 1416 -1088 1222 -1217 
Q 1028 -1347 759 -1347 
Q 597 -1347 397 -1278 
z
" transform="scale(0.015625)"/>
       <path id="ArialMT-65" d="M 2694 1069 
L 3275 997 
Q 3138 488 2766 206 
Q 2394 -75 1816 -75 
Q 1088 -75 661 373 
Q 234 822 234 1631 
Q 234 2469 665 2931 
Q 1097 3394 1784 3394 
Q 2450 3394 2872 2941 
Q 3294 2488 3294 1666 
Q 3294 1616 3291 1516 
L 816 1516 
Q 847 969 1125 678 
Q 1403 388 1819 388 
Q 2128 388 2347 550 
Q 2566 713 2694 1069 
z
M 847 1978 
L 2700 1978 
Q 2663 2397 2488 2606 
Q 2219 2931 1791 2931 
Q 1403 2931 1139 2672 
Q 875 2413 847 1978 
z
" transform="scale(0.015625)"/>
       <path id="ArialMT-72" d="M 416 0 
L 416 3319 
L 922 3319 
L 922 2816 
Q 1116 3169 1280 3281 
Q 1444 3394 1641 3394 
Q 1925 3394 2219 3213 
L 2025 2691 
Q 1819 2813 1613 2813 
Q 1428 2813 1281 2702 
Q 1134 2591 1072 2394 
Q 978 2094 978 1738 
L 978 0 
L 416 0 
z
" transform="scale(0.015625)"/>
       <path id="ArialMT-20" transform="scale(0.015625)"/>
       <path id="ArialMT-49" d="M 597 0 
L 597 4581 
L 1203 4581 
L 1203 0 
L 597 0 
z
" transform="scale(0.015625)"/>
       <path id="ArialMT-6e" d="M 422 0 
L 422 3319 
L 928 3319 
L 928 2847 
Q 1294 3394 1984 3394 
Q 2284 3394 2536 3286 
Q 2788 3178 2913 3003 
Q 3038 2828 3088 2588 
Q 3119 2431 3119 2041 
L 3119 0 
L 2556 0 
L 2556 2019 
Q 2556 2363 2490 2533 
Q 2425 2703 2258 2804 
Q 2091 2906 1866 2906 
Q 1506 2906 1245 2678 
Q 984 2450 984 1813 
L 984 0 
L 422 0 
z
" transform="scale(0.015625)"/>
       <path id="ArialMT-64" d="M 2575 0 
L 2575 419 
Q 2259 -75 1647 -75 
Q 1250 -75 917 144 
Q 584 363 401 755 
Q 219 1147 219 1656 
Q 219 2153 384 2558 
Q 550 2963 881 3178 
Q 1213 3394 1622 3394 
Q 1922 3394 2156 3267 
Q 2391 3141 2538 2938 
L 2538 4581 
L 3097 4581 
L 3097 0 
L 2575 0 
z
M 797 1656 
Q 797 1019 1065 703 
Q 1334 388 1700 388 
Q 2069 388 2326 689 
Q 2584 991 2584 1609 
Q 2584 2291 2321 2609 
Q 2059 2928 1675 2928 
Q 1300 2928 1048 2622 
Q 797 2316 797 1656 
z
" transform="scale(0.015625)"/>
       <path id="ArialMT-78" d="M 47 0 
L 1259 1725 
L 138 3319 
L 841 3319 
L 1350 2541 
Q 1494 2319 1581 2169 
Q 1719 2375 1834 2534 
L 2394 3319 
L 3066 3319 
L 1919 1756 
L 3153 0 
L 2463 0 
L 1781 1031 
L 1600 1309 
L 728 0 
L 47 0 
z
" transform="scale(0.015625)"/>
      </defs>
      <use xlink:href="#ArialMT-4c"/>
      <use xlink:href="#ArialMT-61" x="55.615234"/>
      <use xlink:href="#ArialMT-79" x="111.230469"/>
      <use xlink:href="#ArialMT-65" x="161.230469"/>
      <use xlink:href="#ArialMT-72" x="216.845703"/>
      <use xlink:href="#ArialMT-20" x="250.146484"/>
      <use xlink:href="#ArialMT-49" x="277.929688"/>
      <use xlink:href="#ArialMT-6e" x="305.712891"/>
      <use xlink:href="#ArialMT-64" x="361.328125"/>
      <use xlink:href="#ArialMT-65" x="416.943359"/>
      <use xlink:href="#ArialMT-78" x="472.558594"/>
     </g>
    </g>
   </g>
   <g id="matplotlib.axis_2">
    <g id="ytick_1">
     <g id="line2d_7">
      <path d="M 55.606719 255.416629 
L 525.656719 255.416629 
" clip-path="url(#p51dd768648)" style="fill: none; stroke-dasharray: 2.96,1.28; stroke-dashoffset: 0; stroke: #b0b0b0; stroke-opacity: 0.35; stroke-width: 0.8"/>
     </g>
     <g id="line2d_8">
      <defs>
       <path id="m13ce3d7a96" d="M 0 0 
L -3.5 0 
" style="stroke: #000000; stroke-width: 0.8"/>
      </defs>
      <g>
       <use xlink:href="#m13ce3d7a96" x="55.606719" y="255.416629" style="stroke: #000000; stroke-width: 0.8"/>
      </g>
     </g>
     <g id="text_8">
      <!-- −0.6 -->
      <g transform="translate(24.917969 259.711316) scale(0.12 -0.12)">
       <defs>
        <path id="ArialMT-2212" d="M 3381 1997 
L 356 1997 
L 356 2522 
L 3381 2522 
L 3381 1997 
z
" transform="scale(0.015625)"/>
        <path id="ArialMT-2e" d="M 581 0 
L 581 641 
L 1222 641 
L 1222 0 
L 581 0 
z
" transform="scale(0.015625)"/>
        <path id="ArialMT-36" d="M 3184 3459 
L 2625 3416 
Q 2550 3747 2413 3897 
Q 2184 4138 1850 4138 
Q 1581 4138 1378 3988 
Q 1113 3794 959 3422 
Q 806 3050 800 2363 
Q 1003 2672 1297 2822 
Q 1591 2972 1913 2972 
Q 2475 2972 2870 2558 
Q 3266 2144 3266 1488 
Q 3266 1056 3080 686 
Q 2894 316 2569 119 
Q 2244 -78 1831 -78 
Q 1128 -78 684 439 
Q 241 956 241 2144 
Q 241 3472 731 4075 
Q 1159 4600 1884 4600 
Q 2425 4600 2770 4297 
Q 3116 3994 3184 3459 
z
M 888 1484 
Q 888 1194 1011 928 
Q 1134 663 1356 523 
Q 1578 384 1822 384 
Q 2178 384 2434 671 
Q 2691 959 2691 1453 
Q 2691 1928 2437 2201 
Q 2184 2475 1800 2475 
Q 1419 2475 1153 2201 
Q 888 1928 888 1484 
z
" transform="scale(0.015625)"/>
       </defs>
       <use xlink:href="#ArialMT-2212"/>
       <use xlink:href="#ArialMT-30" x="58.398438"/>
       <use xlink:href="#ArialMT-2e" x="114.013672"/>
       <use xlink:href="#ArialMT-36" x="141.796875"/>
      </g>
     </g>
    </g>
    <g id="ytick_2">
     <g id="line2d_9">
      <path d="M 55.606719 225.81205 
L 525.656719 225.81205 
" clip-path="url(#p51dd768648)" style="fill: none; stroke-dasharray: 2.96,1.28; stroke-dashoffset: 0; stroke: #b0b0b0; stroke-opacity: 0.35; stroke-width: 0.8"/>
     </g>
     <g id="line2d_10">
      <g>
       <use xlink:href="#m13ce3d7a96" x="55.606719" y="225.81205" style="stroke: #000000; stroke-width: 0.8"/>
      </g>
     </g>
     <g id="text_9">
      <!-- −0.4 -->
      <g transform="translate(24.917969 230.106737) scale(0.12 -0.12)">
       <defs>
        <path id="ArialMT-34" d="M 2069 0 
L 2069 1097 
L 81 1097 
L 81 1613 
L 2172 4581 
L 2631 4581 
L 2631 1613 
L 3250 1613 
L 3250 1097 
L 2631 1097 
L 2631 0 
L 2069 0 
z
M 2069 1613 
L 2069 3678 
L 634 1613 
L 2069 1613 
z
" transform="scale(0.015625)"/>
       </defs>
       <use xlink:href="#ArialMT-2212"/>
       <use xlink:href="#ArialMT-30" x="58.398438"/>
       <use xlink:href="#ArialMT-2e" x="114.013672"/>
       <use xlink:href="#ArialMT-34" x="141.796875"/>
      </g>
     </g>
    </g>
    <g id="ytick_3">
     <g id="line2d_11">
      <path d="M 55.606719 196.207471 
L 525.656719 196.207471 
" clip-path="url(#p51dd768648)" style="fill: none; stroke-dasharray: 2.96,1.28; stroke-dashoffset: 0; stroke: #b0b0b0; stroke-opacity: 0.35; stroke-width: 0.8"/>
     </g>
     <g id="line2d_12">
      <g>
       <use xlink:href="#m13ce3d7a96" x="55.606719" y="196.207471" style="stroke: #000000; stroke-width: 0.8"/>
      </g>
     </g>
     <g id="text_10">
      <!-- −0.2 -->
      <g transform="translate(24.917969 200.502159) scale(0.12 -0.12)">
       <use xlink:href="#ArialMT-2212"/>
       <use xlink:href="#ArialMT-30" x="58.398438"/>
       <use xlink:href="#ArialMT-2e" x="114.013672"/>
       <use xlink:href="#ArialMT-32" x="141.796875"/>
      </g>
     </g>
    </g>
    <g id="ytick_4">
     <g id="line2d_13">
      <path d="M 55.606719 166.602893 
L 525.656719 166.602893 
" clip-path="url(#p51dd768648)" style="fill: none; stroke-dasharray: 2.96,1.28; stroke-dashoffset: 0; stroke: #b0b0b0; stroke-opacity: 0.35; stroke-width: 0.8"/>
     </g>
     <g id="line2d_14">
      <g>
       <use xlink:href="#m13ce3d7a96" x="55.606719" y="166.602893" style="stroke: #000000; stroke-width: 0.8"/>
      </g>
     </g>
     <g id="text_11">
      <!-- 0.0 -->
      <g transform="translate(31.926719 170.89758) scale(0.12 -0.12)">
       <use xlink:href="#ArialMT-30"/>
       <use xlink:href="#ArialMT-2e" x="55.615234"/>
       <use xlink:href="#ArialMT-30" x="83.398438"/>
      </g>
     </g>
    </g>
    <g id="ytick_5">
     <g id="line2d_15">
      <path d="M 55.606719 136.998314 
L 525.656719 136.998314 
" clip-path="url(#p51dd768648)" style="fill: none; stroke-dasharray: 2.96,1.28; stroke-dashoffset: 0; stroke: #b0b0b0; stroke-opacity: 0.35; stroke-width: 0.8"/>
     </g>
     <g id="line2d_16">
      <g>
       <use xlink:href="#m13ce3d7a96" x="55.606719" y="136.998314" style="stroke: #000000; stroke-width: 0.8"/>
      </g>
     </g>
     <g id="text_12">
      <!-- 0.2 -->
      <g transform="translate(31.926719 141.293002) scale(0.12 -0.12)">
       <use xlink:href="#ArialMT-30"/>
       <use xlink:href="#ArialMT-2e" x="55.615234"/>
       <use xlink:href="#ArialMT-32" x="83.398438"/>
      </g>
     </g>
    </g>
    <g id="ytick_6">
     <g id="line2d_17">
      <path d="M 55.606719 107.393736 
L 525.656719 107.393736 
" clip-path="url(#p51dd768648)" style="fill: none; stroke-dasharray: 2.96,1.28; stroke-dashoffset: 0; stroke: #b0b0b0; stroke-opacity: 0.35; stroke-width: 0.8"/>
     </g>
     <g id="line2d_18">
      <g>
       <use xlink:href="#m13ce3d7a96" x="55.606719" y="107.393736" style="stroke: #000000; stroke-width: 0.8"/>
      </g>
     </g>
     <g id="text_13">
      <!-- 0.4 -->
      <g transform="translate(31.926719 111.688423) scale(0.12 -0.12)">
       <use xlink:href="#ArialMT-30"/>
       <use xlink:href="#ArialMT-2e" x="55.615234"/>
       <use xlink:href="#ArialMT-34" x="83.398438"/>
      </g>
     </g>
    </g>
    <g id="ytick_7">
     <g id="line2d_19">
      <path d="M 55.606719 77.789157 
L 525.656719 77.789157 
" clip-path="url(#p51dd768648)" style="fill: none; stroke-dasharray: 2.96,1.28; stroke-dashoffset: 0; stroke: #b0b0b0; stroke-opacity: 0.35; stroke-width: 0.8"/>
     </g>
     <g id="line2d_20">
      <g>
       <use xlink:href="#m13ce3d7a96" x="55.606719" y="77.789157" style="stroke: #000000; stroke-width: 0.8"/>
      </g>
     </g>
     <g id="text_14">
      <!-- 0.6 -->
      <g transform="translate(31.926719 82.083845) scale(0.12 -0.12)">
       <use xlink:href="#ArialMT-30"/>
       <use xlink:href="#ArialMT-2e" x="55.615234"/>
       <use xlink:href="#ArialMT-36" x="83.398438"/>
      </g>
     </g>
    </g>
    <g id="ytick_8">
     <g id="line2d_21">
      <path d="M 55.606719 48.184579 
L 525.656719 48.184579 
" clip-path="url(#p51dd768648)" style="fill: none; stroke-dasharray: 2.96,1.28; stroke-dashoffset: 0; stroke: #b0b0b0; stroke-opacity: 0.35; stroke-width: 0.8"/>
     </g>
     <g id="line2d_22">
      <g>
       <use xlink:href="#m13ce3d7a96" x="55.606719" y="48.184579" style="stroke: #000000; stroke-width: 0.8"/>
      </g>
     </g>
     <g id="text_15">
      <!-- 0.8 -->
      <g transform="translate(31.926719 52.479266) scale(0.12 -0.12)">
       <defs>
        <path id="ArialMT-38" d="M 1131 2484 
Q 781 2613 612 2850 
Q 444 3088 444 3419 
Q 444 3919 803 4259 
Q 1163 4600 1759 4600 
Q 2359 4600 2725 4251 
Q 3091 3903 3091 3403 
Q 3091 3084 2923 2848 
Q 2756 2613 2416 2484 
Q 2838 2347 3058 2040 
Q 3278 1734 3278 1309 
Q 3278 722 2862 322 
Q 2447 -78 1769 -78 
Q 1091 -78 675 323 
Q 259 725 259 1325 
Q 259 1772 486 2073 
Q 713 2375 1131 2484 
z
M 1019 3438 
Q 1019 3113 1228 2906 
Q 1438 2700 1772 2700 
Q 2097 2700 2305 2904 
Q 2513 3109 2513 3406 
Q 2513 3716 2298 3927 
Q 2084 4138 1766 4138 
Q 1444 4138 1231 3931 
Q 1019 3725 1019 3438 
z
M 838 1322 
Q 838 1081 952 856 
Q 1066 631 1291 507 
Q 1516 384 1775 384 
Q 2178 384 2440 643 
Q 2703 903 2703 1303 
Q 2703 1709 2433 1975 
Q 2163 2241 1756 2241 
Q 1359 2241 1098 1978 
Q 838 1716 838 1322 
z
" transform="scale(0.015625)"/>
       </defs>
       <use xlink:href="#ArialMT-30"/>
       <use xlink:href="#ArialMT-2e" x="55.615234"/>
       <use xlink:href="#ArialMT-38" x="83.398438"/>
      </g>
     </g>
    </g>
    <g id="ytick_9">
     <g id="line2d_23">
      <path d="M 55.606719 18.58 
L 525.656719 18.58 
" clip-path="url(#p51dd768648)" style="fill: none; stroke-dasharray: 2.96,1.28; stroke-dashoffset: 0; stroke: #b0b0b0; stroke-opacity: 0.35; stroke-width: 0.8"/>
     </g>
     <g id="line2d_24">
      <g>
       <use xlink:href="#m13ce3d7a96" x="55.606719" y="18.58" style="stroke: #000000; stroke-width: 0.8"/>
      </g>
     </g>
     <g id="text_16">
      <!-- 1.0 -->
      <g transform="translate(31.926719 22.874687) scale(0.12 -0.12)">
       <use xlink:href="#ArialMT-31"/>
       <use xlink:href="#ArialMT-2e" x="55.615234"/>
       <use xlink:href="#ArialMT-30" x="83.398438"/>
      </g>
     </g>
    </g>
    <g id="text_17">
     <!-- CosineSim -->
     <g transform="translate(17.936719 168.641328) rotate(-90) scale(0.15 -0.15)">
      <defs>
       <path id="ArialMT-43" d="M 3763 1606 
L 4369 1453 
Q 4178 706 3683 314 
Q 3188 -78 2472 -78 
Q 1731 -78 1267 223 
Q 803 525 561 1097 
Q 319 1669 319 2325 
Q 319 3041 592 3573 
Q 866 4106 1370 4382 
Q 1875 4659 2481 4659 
Q 3169 4659 3637 4309 
Q 4106 3959 4291 3325 
L 3694 3184 
Q 3534 3684 3231 3912 
Q 2928 4141 2469 4141 
Q 1941 4141 1586 3887 
Q 1231 3634 1087 3207 
Q 944 2781 944 2328 
Q 944 1744 1114 1308 
Q 1284 872 1643 656 
Q 2003 441 2422 441 
Q 2931 441 3284 734 
Q 3638 1028 3763 1606 
z
" transform="scale(0.015625)"/>
       <path id="ArialMT-6f" d="M 213 1659 
Q 213 2581 725 3025 
Q 1153 3394 1769 3394 
Q 2453 3394 2887 2945 
Q 3322 2497 3322 1706 
Q 3322 1066 3130 698 
Q 2938 331 2570 128 
Q 2203 -75 1769 -75 
Q 1072 -75 642 372 
Q 213 819 213 1659 
z
M 791 1659 
Q 791 1022 1069 705 
Q 1347 388 1769 388 
Q 2188 388 2466 706 
Q 2744 1025 2744 1678 
Q 2744 2294 2464 2611 
Q 2184 2928 1769 2928 
Q 1347 2928 1069 2612 
Q 791 2297 791 1659 
z
" transform="scale(0.015625)"/>
       <path id="ArialMT-73" d="M 197 991 
L 753 1078 
Q 800 744 1014 566 
Q 1228 388 1613 388 
Q 2000 388 2187 545 
Q 2375 703 2375 916 
Q 2375 1106 2209 1216 
Q 2094 1291 1634 1406 
Q 1016 1563 777 1677 
Q 538 1791 414 1992 
Q 291 2194 291 2438 
Q 291 2659 392 2848 
Q 494 3038 669 3163 
Q 800 3259 1026 3326 
Q 1253 3394 1513 3394 
Q 1903 3394 2198 3281 
Q 2494 3169 2634 2976 
Q 2775 2784 2828 2463 
L 2278 2388 
Q 2241 2644 2061 2787 
Q 1881 2931 1553 2931 
Q 1166 2931 1000 2803 
Q 834 2675 834 2503 
Q 834 2394 903 2306 
Q 972 2216 1119 2156 
Q 1203 2125 1616 2013 
Q 2213 1853 2448 1751 
Q 2684 1650 2818 1456 
Q 2953 1263 2953 975 
Q 2953 694 2789 445 
Q 2625 197 2315 61 
Q 2006 -75 1616 -75 
Q 969 -75 630 194 
Q 291 463 197 991 
z
" transform="scale(0.015625)"/>
       <path id="ArialMT-69" d="M 425 3934 
L 425 4581 
L 988 4581 
L 988 3934 
L 425 3934 
z
M 425 0 
L 425 3319 
L 988 3319 
L 988 0 
L 425 0 
z
" transform="scale(0.015625)"/>
       <path id="ArialMT-53" d="M 288 1472 
L 859 1522 
Q 900 1178 1048 958 
Q 1197 738 1509 602 
Q 1822 466 2213 466 
Q 2559 466 2825 569 
Q 3091 672 3220 851 
Q 3350 1031 3350 1244 
Q 3350 1459 3225 1620 
Q 3100 1781 2813 1891 
Q 2628 1963 1997 2114 
Q 1366 2266 1113 2400 
Q 784 2572 623 2826 
Q 463 3081 463 3397 
Q 463 3744 659 4045 
Q 856 4347 1234 4503 
Q 1613 4659 2075 4659 
Q 2584 4659 2973 4495 
Q 3363 4331 3572 4012 
Q 3781 3694 3797 3291 
L 3216 3247 
Q 3169 3681 2898 3903 
Q 2628 4125 2100 4125 
Q 1550 4125 1298 3923 
Q 1047 3722 1047 3438 
Q 1047 3191 1225 3031 
Q 1400 2872 2139 2705 
Q 2878 2538 3153 2413 
Q 3553 2228 3743 1945 
Q 3934 1663 3934 1294 
Q 3934 928 3725 604 
Q 3516 281 3123 101 
Q 2731 -78 2241 -78 
Q 1619 -78 1198 103 
Q 778 284 539 648 
Q 300 1013 288 1472 
z
" transform="scale(0.015625)"/>
       <path id="ArialMT-6d" d="M 422 0 
L 422 3319 
L 925 3319 
L 925 2853 
Q 1081 3097 1340 3245 
Q 1600 3394 1931 3394 
Q 2300 3394 2536 3241 
Q 2772 3088 2869 2813 
Q 3263 3394 3894 3394 
Q 4388 3394 4653 3120 
Q 4919 2847 4919 2278 
L 4919 0 
L 4359 0 
L 4359 2091 
Q 4359 2428 4304 2576 
Q 4250 2725 4106 2815 
Q 3963 2906 3769 2906 
Q 3419 2906 3187 2673 
Q 2956 2441 2956 1928 
L 2956 0 
L 2394 0 
L 2394 2156 
Q 2394 2531 2256 2718 
Q 2119 2906 1806 2906 
Q 1569 2906 1367 2781 
Q 1166 2656 1075 2415 
Q 984 2175 984 1722 
L 984 0 
L 422 0 
z
" transform="scale(0.015625)"/>
      </defs>
      <use xlink:href="#ArialMT-43"/>
      <use xlink:href="#ArialMT-6f" x="72.216797"/>
      <use xlink:href="#ArialMT-73" x="127.832031"/>
      <use xlink:href="#ArialMT-69" x="177.832031"/>
      <use xlink:href="#ArialMT-6e" x="200.048828"/>
      <use xlink:href="#ArialMT-65" x="255.664062"/>
      <use xlink:href="#ArialMT-53" x="311.279297"/>
      <use xlink:href="#ArialMT-69" x="377.978516"/>
      <use xlink:href="#ArialMT-6d" x="400.195312"/>
     </g>
    </g>
   </g>
   <g id="line2d_25">
    <path d="M 76.972628 142.45245 
L 92.799227 28.018056 
L 108.625826 23.925948 
L 124.452426 24.368421 
L 140.279025 23.421074 
L 156.105624 22.95843 
L 171.932224 24.962907 
L 187.758823 21.908266 
L 203.585422 22.653024 
L 219.412022 24.777733 
L 235.238621 22.183269 
L 251.06522 21.476169 
L 266.89182 21.567233 
L 282.718419 21.974368 
L 298.545018 21.659965 
L 314.371618 21.506427 
L 330.198217 20.952647 
L 346.024816 20.511554 
L 361.851416 22.057232 
L 377.678015 22.78726 
L 393.504614 21.152914 
L 409.331214 22.007818 
L 425.157813 21.254353 
L 440.984412 21.306379 
L 456.811012 20.302943 
L 472.637611 20.58571 
L 488.46421 20.523308 
L 504.29081 27.753283 
" clip-path="url(#p51dd768648)" style="fill: none; stroke: #4c72b0; stroke-width: 2.3; stroke-linecap: square"/>
    <defs>
     <path id="m9954e10965" d="M 0 2.5 
C 0.663008 2.5 1.29895 2.236584 1.767767 1.767767 
C 2.236584 1.29895 2.5 0.663008 2.5 0 
C 2.5 -0.663008 2.236584 -1.29895 1.767767 -1.767767 
C 1.29895 -2.236584 0.663008 -2.5 0 -2.5 
C -0.663008 -2.5 -1.29895 -2.236584 -1.767767 -1.767767 
C -2.236584 -1.29895 -2.5 -0.663008 -2.5 0 
C -2.5 0.663008 -2.236584 1.29895 -1.767767 1.767767 
C -1.29895 2.236584 -0.663008 2.5 0 2.5 
z
" style="stroke: #4c72b0"/>
    </defs>
    <g clip-path="url(#p51dd768648)">
     <use xlink:href="#m9954e10965" x="76.972628" y="142.45245" style="fill: #4c72b0; stroke: #4c72b0"/>
     <use xlink:href="#m9954e10965" x="92.799227" y="28.018056" style="fill: #4c72b0; stroke: #4c72b0"/>
     <use xlink:href="#m9954e10965" x="108.625826" y="23.925948" style="fill: #4c72b0; stroke: #4c72b0"/>
     <use xlink:href="#m9954e10965" x="124.452426" y="24.368421" style="fill: #4c72b0; stroke: #4c72b0"/>
     <use xlink:href="#m9954e10965" x="140.279025" y="23.421074" style="fill: #4c72b0; stroke: #4c72b0"/>
     <use xlink:href="#m9954e10965" x="156.105624" y="22.95843" style="fill: #4c72b0; stroke: #4c72b0"/>
     <use xlink:href="#m9954e10965" x="171.932224" y="24.962907" style="fill: #4c72b0; stroke: #4c72b0"/>
     <use xlink:href="#m9954e10965" x="187.758823" y="21.908266" style="fill: #4c72b0; stroke: #4c72b0"/>
     <use xlink:href="#m9954e10965" x="203.585422" y="22.653024" style="fill: #4c72b0; stroke: #4c72b0"/>
     <use xlink:href="#m9954e10965" x="219.412022" y="24.777733" style="fill: #4c72b0; stroke: #4c72b0"/>
     <use xlink:href="#m9954e10965" x="235.238621" y="22.183269" style="fill: #4c72b0; stroke: #4c72b0"/>
     <use xlink:href="#m9954e10965" x="251.06522" y="21.476169" style="fill: #4c72b0; stroke: #4c72b0"/>
     <use xlink:href="#m9954e10965" x="266.89182" y="21.567233" style="fill: #4c72b0; stroke: #4c72b0"/>
     <use xlink:href="#m9954e10965" x="282.718419" y="21.974368" style="fill: #4c72b0; stroke: #4c72b0"/>
     <use xlink:href="#m9954e10965" x="298.545018" y="21.659965" style="fill: #4c72b0; stroke: #4c72b0"/>
     <use xlink:href="#m9954e10965" x="314.371618" y="21.506427" style="fill: #4c72b0; stroke: #4c72b0"/>
     <use xlink:href="#m9954e10965" x="330.198217" y="20.952647" style="fill: #4c72b0; stroke: #4c72b0"/>
     <use xlink:href="#m9954e10965" x="346.024816" y="20.511554" style="fill: #4c72b0; stroke: #4c72b0"/>
     <use xlink:href="#m9954e10965" x="361.851416" y="22.057232" style="fill: #4c72b0; stroke: #4c72b0"/>
     <use xlink:href="#m9954e10965" x="377.678015" y="22.78726" style="fill: #4c72b0; stroke: #4c72b0"/>
     <use xlink:href="#m9954e10965" x="393.504614" y="21.152914" style="fill: #4c72b0; stroke: #4c72b0"/>
     <use xlink:href="#m9954e10965" x="409.331214" y="22.007818" style="fill: #4c72b0; stroke: #4c72b0"/>
     <use xlink:href="#m9954e10965" x="425.157813" y="21.254353" style="fill: #4c72b0; stroke: #4c72b0"/>
     <use xlink:href="#m9954e10965" x="440.984412" y="21.306379" style="fill: #4c72b0; stroke: #4c72b0"/>
     <use xlink:href="#m9954e10965" x="456.811012" y="20.302943" style="fill: #4c72b0; stroke: #4c72b0"/>
     <use xlink:href="#m9954e10965" x="472.637611" y="20.58571" style="fill: #4c72b0; stroke: #4c72b0"/>
     <use xlink:href="#m9954e10965" x="488.46421" y="20.523308" style="fill: #4c72b0; stroke: #4c72b0"/>
     <use xlink:href="#m9954e10965" x="504.29081" y="27.753283" style="fill: #4c72b0; stroke: #4c72b0"/>
    </g>
   </g>
   <g id="line2d_26">
    <path d="M 76.972628 156.281851 
L 92.799227 20.499871 
L 108.625826 19.582057 
L 124.452426 19.325702 
L 140.279025 19.376711 
L 156.105624 19.189651 
L 171.932224 19.303861 
L 187.758823 18.817852 
L 203.585422 19.081028 
L 219.412022 19.377727 
L 235.238621 18.816546 
L 251.06522 18.76706 
L 266.89182 18.81437 
L 282.718419 18.759296 
L 298.545018 18.784402 
L 314.371618 18.725919 
L 330.198217 18.694355 
L 346.024816 18.673603 
L 361.851416 18.735424 
L 377.678015 18.769963 
L 393.504614 18.689784 
L 409.331214 18.70981 
L 425.157813 18.654664 
L 440.984412 18.65227 
L 456.811012 18.617223 
L 472.637611 18.614103 
L 488.46421 18.620271 
L 504.29081 18.789481 
" clip-path="url(#p51dd768648)" style="fill: none; stroke: #55a868; stroke-width: 2.3; stroke-linecap: square"/>
    <defs>
     <path id="mb369417168" d="M 0 2.5 
C 0.663008 2.5 1.29895 2.236584 1.767767 1.767767 
C 2.236584 1.29895 2.5 0.663008 2.5 0 
C 2.5 -0.663008 2.236584 -1.29895 1.767767 -1.767767 
C 1.29895 -2.236584 0.663008 -2.5 0 -2.5 
C -0.663008 -2.5 -1.29895 -2.236584 -1.767767 -1.767767 
C -2.236584 -1.29895 -2.5 -0.663008 -2.5 0 
C -2.5 0.663008 -2.236584 1.29895 -1.767767 1.767767 
C -1.29895 2.236584 -0.663008 2.5 0 2.5 
z
" style="stroke: #55a868"/>
    </defs>
    <g clip-path="url(#p51dd768648)">
     <use xlink:href="#mb369417168" x="76.972628" y="156.281851" style="fill: #55a868; stroke: #55a868"/>
     <use xlink:href="#mb369417168" x="92.799227" y="20.499871" style="fill: #55a868; stroke: #55a868"/>
     <use xlink:href="#mb369417168" x="108.625826" y="19.582057" style="fill: #55a868; stroke: #55a868"/>
     <use xlink:href="#mb369417168" x="124.452426" y="19.325702" style="fill: #55a868; stroke: #55a868"/>
     <use xlink:href="#mb369417168" x="140.279025" y="19.376711" style="fill: #55a868; stroke: #55a868"/>
     <use xlink:href="#mb369417168" x="156.105624" y="19.189651" style="fill: #55a868; stroke: #55a868"/>
     <use xlink:href="#mb369417168" x="171.932224" y="19.303861" style="fill: #55a868; stroke: #55a868"/>
     <use xlink:href="#mb369417168" x="187.758823" y="18.817852" style="fill: #55a868; stroke: #55a868"/>
     <use xlink:href="#mb369417168" x="203.585422" y="19.081028" style="fill: #55a868; stroke: #55a868"/>
     <use xlink:href="#mb369417168" x="219.412022" y="19.377727" style="fill: #55a868; stroke: #55a868"/>
     <use xlink:href="#mb369417168" x="235.238621" y="18.816546" style="fill: #55a868; stroke: #55a868"/>
     <use xlink:href="#mb369417168" x="251.06522" y="18.76706" style="fill: #55a868; stroke: #55a868"/>
     <use xlink:href="#mb369417168" x="266.89182" y="18.81437" style="fill: #55a868; stroke: #55a868"/>
     <use xlink:href="#mb369417168" x="282.718419" y="18.759296" style="fill: #55a868; stroke: #55a868"/>
     <use xlink:href="#mb369417168" x="298.545018" y="18.784402" style="fill: #55a868; stroke: #55a868"/>
     <use xlink:href="#mb369417168" x="314.371618" y="18.725919" style="fill: #55a868; stroke: #55a868"/>
     <use xlink:href="#mb369417168" x="330.198217" y="18.694355" style="fill: #55a868; stroke: #55a868"/>
     <use xlink:href="#mb369417168" x="346.024816" y="18.673603" style="fill: #55a868; stroke: #55a868"/>
     <use xlink:href="#mb369417168" x="361.851416" y="18.735424" style="fill: #55a868; stroke: #55a868"/>
     <use xlink:href="#mb369417168" x="377.678015" y="18.769963" style="fill: #55a868; stroke: #55a868"/>
     <use xlink:href="#mb369417168" x="393.504614" y="18.689784" style="fill: #55a868; stroke: #55a868"/>
     <use xlink:href="#mb369417168" x="409.331214" y="18.70981" style="fill: #55a868; stroke: #55a868"/>
     <use xlink:href="#mb369417168" x="425.157813" y="18.654664" style="fill: #55a868; stroke: #55a868"/>
     <use xlink:href="#mb369417168" x="440.984412" y="18.65227" style="fill: #55a868; stroke: #55a868"/>
     <use xlink:href="#mb369417168" x="456.811012" y="18.617223" style="fill: #55a868; stroke: #55a868"/>
     <use xlink:href="#mb369417168" x="472.637611" y="18.614103" style="fill: #55a868; stroke: #55a868"/>
     <use xlink:href="#mb369417168" x="488.46421" y="18.620271" style="fill: #55a868; stroke: #55a868"/>
     <use xlink:href="#mb369417168" x="504.29081" y="18.789481" style="fill: #55a868; stroke: #55a868"/>
    </g>
   </g>
   <g id="line2d_27">
    <path d="M 76.972628 26.781847 
L 92.799227 19.201333 
L 108.625826 19.432583 
L 124.452426 20.121978 
L 140.279025 23.042963 
L 156.105624 23.717773 
L 171.932224 36.205391 
L 187.758823 20.893075 
L 203.585422 22.511241 
L 219.412022 35.120978 
L 235.238621 23.498496 
L 251.06522 22.94 
L 266.89182 24.197396 
L 282.718419 22.023999 
L 298.545018 23.197734 
L 314.371618 21.466954 
L 330.198217 20.69085 
L 346.024816 20.74839 
L 361.851416 22.241535 
L 377.678015 22.649251 
L 393.504614 23.56097 
L 409.331214 23.877841 
L 425.157813 22.715498 
L 440.984412 24.433725 
L 456.811012 22.552093 
L 472.637611 21.970305 
L 488.46421 26.830027 
L 504.29081 33.438959 
" clip-path="url(#p51dd768648)" style="fill: none; stroke: #c44e52; stroke-width: 2.3; stroke-linecap: square"/>
    <defs>
     <path id="m6de3f7c4e2" d="M 0 2.5 
C 0.663008 2.5 1.29895 2.236584 1.767767 1.767767 
C 2.236584 1.29895 2.5 0.663008 2.5 0 
C 2.5 -0.663008 2.236584 -1.29895 1.767767 -1.767767 
C 1.29895 -2.236584 0.663008 -2.5 0 -2.5 
C -0.663008 -2.5 -1.29895 -2.236584 -1.767767 -1.767767 
C -2.236584 -1.29895 -2.5 -0.663008 -2.5 0 
C -2.5 0.663008 -2.236584 1.29895 -1.767767 1.767767 
C -1.29895 2.236584 -0.663008 2.5 0 2.5 
z
" style="stroke: #c44e52"/>
    </defs>
    <g clip-path="url(#p51dd768648)">
     <use xlink:href="#m6de3f7c4e2" x="76.972628" y="26.781847" style="fill: #c44e52; stroke: #c44e52"/>
     <use xlink:href="#m6de3f7c4e2" x="92.799227" y="19.201333" style="fill: #c44e52; stroke: #c44e52"/>
     <use xlink:href="#m6de3f7c4e2" x="108.625826" y="19.432583" style="fill: #c44e52; stroke: #c44e52"/>
     <use xlink:href="#m6de3f7c4e2" x="124.452426" y="20.121978" style="fill: #c44e52; stroke: #c44e52"/>
     <use xlink:href="#m6de3f7c4e2" x="140.279025" y="23.042963" style="fill: #c44e52; stroke: #c44e52"/>
     <use xlink:href="#m6de3f7c4e2" x="156.105624" y="23.717773" style="fill: #c44e52; stroke: #c44e52"/>
     <use xlink:href="#m6de3f7c4e2" x="171.932224" y="36.205391" style="fill: #c44e52; stroke: #c44e52"/>
     <use xlink:href="#m6de3f7c4e2" x="187.758823" y="20.893075" style="fill: #c44e52; stroke: #c44e52"/>
     <use xlink:href="#m6de3f7c4e2" x="203.585422" y="22.511241" style="fill: #c44e52; stroke: #c44e52"/>
     <use xlink:href="#m6de3f7c4e2" x="219.412022" y="35.120978" style="fill: #c44e52; stroke: #c44e52"/>
     <use xlink:href="#m6de3f7c4e2" x="235.238621" y="23.498496" style="fill: #c44e52; stroke: #c44e52"/>
     <use xlink:href="#m6de3f7c4e2" x="251.06522" y="22.94" style="fill: #c44e52; stroke: #c44e52"/>
     <use xlink:href="#m6de3f7c4e2" x="266.89182" y="24.197396" style="fill: #c44e52; stroke: #c44e52"/>
     <use xlink:href="#m6de3f7c4e2" x="282.718419" y="22.023999" style="fill: #c44e52; stroke: #c44e52"/>
     <use xlink:href="#m6de3f7c4e2" x="298.545018" y="23.197734" style="fill: #c44e52; stroke: #c44e52"/>
     <use xlink:href="#m6de3f7c4e2" x="314.371618" y="21.466954" style="fill: #c44e52; stroke: #c44e52"/>
     <use xlink:href="#m6de3f7c4e2" x="330.198217" y="20.69085" style="fill: #c44e52; stroke: #c44e52"/>
     <use xlink:href="#m6de3f7c4e2" x="346.024816" y="20.74839" style="fill: #c44e52; stroke: #c44e52"/>
     <use xlink:href="#m6de3f7c4e2" x="361.851416" y="22.241535" style="fill: #c44e52; stroke: #c44e52"/>
     <use xlink:href="#m6de3f7c4e2" x="377.678015" y="22.649251" style="fill: #c44e52; stroke: #c44e52"/>
     <use xlink:href="#m6de3f7c4e2" x="393.504614" y="23.56097" style="fill: #c44e52; stroke: #c44e52"/>
     <use xlink:href="#m6de3f7c4e2" x="409.331214" y="23.877841" style="fill: #c44e52; stroke: #c44e52"/>
     <use xlink:href="#m6de3f7c4e2" x="425.157813" y="22.715498" style="fill: #c44e52; stroke: #c44e52"/>
     <use xlink:href="#m6de3f7c4e2" x="440.984412" y="24.433725" style="fill: #c44e52; stroke: #c44e52"/>
     <use xlink:href="#m6de3f7c4e2" x="456.811012" y="22.552093" style="fill: #c44e52; stroke: #c44e52"/>
     <use xlink:href="#m6de3f7c4e2" x="472.637611" y="21.970305" style="fill: #c44e52; stroke: #c44e52"/>
     <use xlink:href="#m6de3f7c4e2" x="488.46421" y="26.830027" style="fill: #c44e52; stroke: #c44e52"/>
     <use xlink:href="#m6de3f7c4e2" x="504.29081" y="33.438959" style="fill: #c44e52; stroke: #c44e52"/>
    </g>
   </g>
   <g id="patch_3">
    <path d="M 55.606719 257.56 
L 55.606719 7.2 
" style="fill: none; stroke: #000000; stroke-width: 0.8; stroke-linejoin: miter; stroke-linecap: square"/>
   </g>
   <g id="patch_4">
    <path d="M 525.656719 257.56 
L 525.656719 7.2 
" style="fill: none; stroke: #000000; stroke-width: 0.8; stroke-linejoin: miter; stroke-linecap: square"/>
   </g>
   <g id="patch_5">
    <path d="M 55.606719 257.56 
L 525.656719 257.56 
" style="fill: none; stroke: #000000; stroke-width: 0.8; stroke-linejoin: miter; stroke-linecap: square"/>
   </g>
   <g id="patch_6">
    <path d="M 55.606719 7.2 
L 525.656719 7.2 
" style="fill: none; stroke: #000000; stroke-width: 0.8; stroke-linejoin: miter; stroke-linecap: square"/>
   </g>
   <g id="legend_1">
    <g id="patch_7">
     <path d="M 99.010219 230.0312 
L 222.891469 230.0312 
Q 225.891469 230.0312 225.891469 227.0312 
L 225.891469 164.34995 
Q 225.891469 161.34995 222.891469 161.34995 
L 99.010219 161.34995 
Q 96.010219 161.34995 96.010219 164.34995 
L 96.010219 227.0312 
Q 96.010219 230.0312 99.010219 230.0312 
z
" style="fill: #ffffff; opacity: 0.8; stroke: #cccccc; stroke-linejoin: miter"/>
    </g>
    <g id="line2d_28">
     <path d="M 102.010219 172.836669 
L 117.010219 172.836669 
L 132.010219 172.836669 
" style="fill: none; stroke: #4c72b0; stroke-width: 2.3; stroke-linecap: square"/>
     <g>
      <use xlink:href="#m9954e10965" x="117.010219" y="172.836669" style="fill: #4c72b0; stroke: #4c72b0"/>
     </g>
    </g>
    <g id="text_18">
     <!-- Embedding -->
     <g transform="translate(144.010219 178.086669) scale(0.15 -0.15)">
      <defs>
       <path id="ArialMT-45" d="M 506 0 
L 506 4581 
L 3819 4581 
L 3819 4041 
L 1113 4041 
L 1113 2638 
L 3647 2638 
L 3647 2100 
L 1113 2100 
L 1113 541 
L 3925 541 
L 3925 0 
L 506 0 
z
" transform="scale(0.015625)"/>
       <path id="ArialMT-62" d="M 941 0 
L 419 0 
L 419 4581 
L 981 4581 
L 981 2947 
Q 1338 3394 1891 3394 
Q 2197 3394 2470 3270 
Q 2744 3147 2920 2923 
Q 3097 2700 3197 2384 
Q 3297 2069 3297 1709 
Q 3297 856 2875 390 
Q 2453 -75 1863 -75 
Q 1275 -75 941 416 
L 941 0 
z
M 934 1684 
Q 934 1088 1097 822 
Q 1363 388 1816 388 
Q 2184 388 2453 708 
Q 2722 1028 2722 1663 
Q 2722 2313 2464 2622 
Q 2206 2931 1841 2931 
Q 1472 2931 1203 2611 
Q 934 2291 934 1684 
z
" transform="scale(0.015625)"/>
       <path id="ArialMT-67" d="M 319 -275 
L 866 -356 
Q 900 -609 1056 -725 
Q 1266 -881 1628 -881 
Q 2019 -881 2231 -725 
Q 2444 -569 2519 -288 
Q 2563 -116 2559 434 
Q 2191 0 1641 0 
Q 956 0 581 494 
Q 206 988 206 1678 
Q 206 2153 378 2554 
Q 550 2956 876 3175 
Q 1203 3394 1644 3394 
Q 2231 3394 2613 2919 
L 2613 3319 
L 3131 3319 
L 3131 450 
Q 3131 -325 2973 -648 
Q 2816 -972 2473 -1159 
Q 2131 -1347 1631 -1347 
Q 1038 -1347 672 -1080 
Q 306 -813 319 -275 
z
M 784 1719 
Q 784 1066 1043 766 
Q 1303 466 1694 466 
Q 2081 466 2343 764 
Q 2606 1063 2606 1700 
Q 2606 2309 2336 2618 
Q 2066 2928 1684 2928 
Q 1309 2928 1046 2623 
Q 784 2319 784 1719 
z
" transform="scale(0.015625)"/>
      </defs>
      <use xlink:href="#ArialMT-45"/>
      <use xlink:href="#ArialMT-6d" x="66.699219"/>
      <use xlink:href="#ArialMT-62" x="150"/>
      <use xlink:href="#ArialMT-65" x="205.615234"/>
      <use xlink:href="#ArialMT-64" x="261.230469"/>
      <use xlink:href="#ArialMT-64" x="316.845703"/>
      <use xlink:href="#ArialMT-69" x="372.460938"/>
      <use xlink:href="#ArialMT-6e" x="394.677734"/>
      <use xlink:href="#ArialMT-67" x="450.292969"/>
     </g>
    </g>
    <g id="line2d_29">
     <path d="M 102.010219 194.230419 
L 117.010219 194.230419 
L 132.010219 194.230419 
" style="fill: none; stroke: #55a868; stroke-width: 2.3; stroke-linecap: square"/>
     <g>
      <use xlink:href="#mb369417168" x="117.010219" y="194.230419" style="fill: #55a868; stroke: #55a868"/>
     </g>
    </g>
    <g id="text_19">
     <!-- Logit -->
     <g transform="translate(144.010219 199.480419) scale(0.15 -0.15)">
      <defs>
       <path id="ArialMT-74" d="M 1650 503 
L 1731 6 
Q 1494 -44 1306 -44 
Q 1000 -44 831 53 
Q 663 150 594 308 
Q 525 466 525 972 
L 525 2881 
L 113 2881 
L 113 3319 
L 525 3319 
L 525 4141 
L 1084 4478 
L 1084 3319 
L 1650 3319 
L 1650 2881 
L 1084 2881 
L 1084 941 
Q 1084 700 1114 631 
Q 1144 563 1211 522 
Q 1278 481 1403 481 
Q 1497 481 1650 503 
z
" transform="scale(0.015625)"/>
      </defs>
      <use xlink:href="#ArialMT-4c"/>
      <use xlink:href="#ArialMT-6f" x="55.615234"/>
      <use xlink:href="#ArialMT-67" x="111.230469"/>
      <use xlink:href="#ArialMT-69" x="166.845703"/>
      <use xlink:href="#ArialMT-74" x="189.0625"/>
     </g>
    </g>
    <g id="line2d_30">
     <path d="M 102.010219 215.624169 
L 117.010219 215.624169 
L 132.010219 215.624169 
" style="fill: none; stroke: #c44e52; stroke-width: 2.3; stroke-linecap: square"/>
     <g>
      <use xlink:href="#m6de3f7c4e2" x="117.010219" y="215.624169" style="fill: #c44e52; stroke: #c44e52"/>
     </g>
    </g>
    <g id="text_20">
     <!-- Probability -->
     <g transform="translate(144.010219 220.874169) scale(0.15 -0.15)">
      <defs>
       <path id="ArialMT-50" d="M 494 0 
L 494 4581 
L 2222 4581 
Q 2678 4581 2919 4538 
Q 3256 4481 3484 4323 
Q 3713 4166 3852 3881 
Q 3991 3597 3991 3256 
Q 3991 2672 3619 2267 
Q 3247 1863 2275 1863 
L 1100 1863 
L 1100 0 
L 494 0 
z
M 1100 2403 
L 2284 2403 
Q 2872 2403 3119 2622 
Q 3366 2841 3366 3238 
Q 3366 3525 3220 3729 
Q 3075 3934 2838 4000 
Q 2684 4041 2272 4041 
L 1100 4041 
L 1100 2403 
z
" transform="scale(0.015625)"/>
       <path id="ArialMT-6c" d="M 409 0 
L 409 4581 
L 972 4581 
L 972 0 
L 409 0 
z
" transform="scale(0.015625)"/>
      </defs>
      <use xlink:href="#ArialMT-50"/>
      <use xlink:href="#ArialMT-72" x="66.699219"/>
      <use xlink:href="#ArialMT-6f" x="100"/>
      <use xlink:href="#ArialMT-62" x="155.615234"/>
      <use xlink:href="#ArialMT-61" x="211.230469"/>
      <use xlink:href="#ArialMT-62" x="266.845703"/>
      <use xlink:href="#ArialMT-69" x="322.460938"/>
      <use xlink:href="#ArialMT-6c" x="344.677734"/>
      <use xlink:href="#ArialMT-69" x="366.894531"/>
      <use xlink:href="#ArialMT-74" x="389.111328"/>
      <use xlink:href="#ArialMT-79" x="416.894531"/>
     </g>
    </g>
   </g>
  </g>
 </g>
 <defs>
  <clipPath id="p51dd768648">
   <rect x="55.606719" y="7.2" width="470.05" height="250.36"/>
  </clipPath>
 </defs>
</svg>
