<?xml version="1.0" encoding="utf-8" standalone="no"?>
<!DOCTYPE svg PUBLIC "-//W3C//DTD SVG 1.1//EN"
  "http://www.w3.org/Graphics/SVG/1.1/DTD/svg11.dtd">
<svg xmlns:xlink="http://www.w3.org/1999/xlink" width="532.867969pt" height="302.457187pt" viewBox="0 0 532.867969 302.457187" xmlns="http://www.w3.org/2000/svg" version="1.1">
 <metadata>
  <rdf:RDF xmlns:dc="http://purl.org/dc/elements/1.1/" xmlns:cc="http://creativecommons.org/ns#" xmlns:rdf="http://www.w3.org/1999/02/22-rdf-syntax-ns#">
   <cc:Work>
    <dc:type rdf:resource="http://purl.org/dc/dcmitype/StillImage"/>
    <dc:date>2026-03-30T21:10:27.842477</dc:date>
    <dc:format>image/svg+xml</dc:format>
    <dc:creator>
     <cc:Agent>
      <dc:title>Matplotlib v3.9.4, https://matplotlib.org/</dc:title>
     </cc:Agent>
    </dc:creator>
   </cc:Work>
  </rdf:RDF>
 </metadata>
 <defs>
  <style type="text/css">*{stroke-linejoin: round; stroke-linecap: butt}</style>
 </defs>
 <g id="figure_1">
  <g id="patch_1">
   <path d="M 0 302.457187 
L 532.867969 302.457187 
L 532.867969 0 
L 0 0 
z
" style="fill: #ffffff"/>
  </g>
  <g id="axes_1">
   <g id="patch_2">
    <path d="M 48.597969 257.56 
L 525.667969 257.56 
L 525.667969 7.2 
L 48.597969 7.2 
z
" style="fill: #ffffff"/>
   </g>
   <g id="PolyCollection_1">
    <defs>
     <path id="md75e6bae8c" d="M 70.282969 -271.95915 
L 70.282969 -194.989337 
L 86.345932 -230.641933 
L 102.408895 -237.808998 
L 118.471858 -229.687678 
L 134.534821 -236.52989 
L 150.597784 -234.68229 
L 166.660747 -256.142879 
L 182.723709 -251.899489 
L 198.786672 -254.071942 
L 214.849635 -247.554583 
L 230.912598 -258.721398 
L 246.975561 -263.512977 
L 263.038524 -253.56436 
L 279.101487 -265.543307 
L 295.16445 -267.147268 
L 311.227413 -269.136991 
L 327.290376 -269.461844 
L 343.353339 -265.543307 
L 359.416302 -263.939346 
L 375.479265 -259.980203 
L 391.542228 -261.74659 
L 407.605191 -253.747089 
L 423.668154 -238.74295 
L 439.731117 -253.523753 
L 455.79408 -254.274975 
L 471.857043 -251.452816 
L 487.920006 -246.904877 
L 503.982969 -177.406679 
L 503.982969 -268.974565 
L 503.982969 -268.974565 
L 487.920006 -278.720149 
L 471.857043 -279.735314 
L 455.79408 -279.390158 
L 439.731117 -278.781059 
L 423.668154 -278.314083 
L 407.605191 -277.644074 
L 391.542228 -276.121327 
L 375.479265 -276.953762 
L 359.416302 -277.745591 
L 343.353339 -278.740452 
L 327.290376 -279.816527 
L 311.227413 -278.334386 
L 295.16445 -277.745591 
L 279.101487 -278.902879 
L 263.038524 -278.537419 
L 246.975561 -278.638936 
L 230.912598 -278.679543 
L 214.849635 -277.075582 
L 198.786672 -274.497063 
L 182.723709 -273.400684 
L 166.660747 -277.583164 
L 150.597784 -279.166822 
L 134.534821 -279.95865 
L 118.471858 -281.501701 
L 102.408895 -281.826554 
L 86.345932 -279.105912 
L 70.282969 -271.95915 
z
" style="stroke: #4c72b0; stroke-opacity: 0.18"/>
    </defs>
    <g clip-path="url(#p06934764ff)">
     <use xlink:href="#md75e6bae8c" x="0" y="302.457187" style="fill: #4c72b0; fill-opacity: 0.18; stroke: #4c72b0; stroke-opacity: 0.18"/>
    </g>
   </g>
   <g id="PolyCollection_2">
    <defs>
     <path id="m31bf7cccba" d="M 70.282969 -283.024449 
L 70.282969 -195.923289 
L 86.345932 -255.046501 
L 102.408895 -237.707482 
L 118.471858 -225.870658 
L 134.534821 -265.68543 
L 150.597784 -259.919293 
L 166.660747 -275.370105 
L 182.723709 -257.543807 
L 198.786672 -227.840078 
L 214.849635 -280.344413 
L 230.912598 -280.608356 
L 246.975561 -280.770783 
L 263.038524 -272.710372 
L 279.101487 -281.582915 
L 295.16445 -281.176849 
L 311.227413 -281.379882 
L 327.290376 -282.334137 
L 343.353339 -280.933209 
L 359.416302 -282.04989 
L 375.479265 -281.055029 
L 391.542228 -278.781059 
L 407.605191 -276.446179 
L 423.668154 -275.735564 
L 439.731117 -278.862272 
L 455.79408 -281.785948 
L 471.857043 -282.922932 
L 487.920006 -280.689569 
L 503.982969 -56.277187 
L 503.982969 -283.674154 
L 503.982969 -283.674154 
L 487.920006 -283.795974 
L 471.857043 -283.836581 
L 455.79408 -283.816278 
L 439.731117 -283.795974 
L 423.668154 -283.775671 
L 407.605191 -283.735064 
L 391.542228 -283.694458 
L 375.479265 -283.714761 
L 359.416302 -283.714761 
L 343.353339 -283.735064 
L 327.290376 -283.755368 
L 311.227413 -283.714761 
L 295.16445 -283.674154 
L 279.101487 -283.694458 
L 263.038524 -283.694458 
L 246.975561 -283.674154 
L 230.912598 -283.694458 
L 214.849635 -283.613245 
L 198.786672 -283.450818 
L 182.723709 -283.471121 
L 166.660747 -283.674154 
L 150.597784 -283.572638 
L 134.534821 -283.694458 
L 118.471858 -283.755368 
L 102.408895 -283.816278 
L 86.345932 -283.186875 
L 70.282969 -283.024449 
z
" style="stroke: #55a868; stroke-opacity: 0.18"/>
    </defs>
    <g clip-path="url(#p06934764ff)">
     <use xlink:href="#m31bf7cccba" x="0" y="302.457187" style="fill: #55a868; fill-opacity: 0.18; stroke: #55a868; stroke-opacity: 0.18"/>
    </g>
   </g>
   <g id="PolyCollection_3">
    <defs>
     <path id="m03396d6f54" d="M 70.282969 -283.633548 
L 70.282969 -274.517366 
L 86.345932 -193.304163 
L 102.408895 -259.635047 
L 118.471858 -257.300167 
L 134.534821 -261.990229 
L 150.597784 -240.71237 
L 166.660747 -261.340524 
L 182.723709 -214.866269 
L 198.786672 -165.691675 
L 214.849635 -237.281113 
L 230.912598 -214.460203 
L 246.975561 -227.697955 
L 263.038524 -164.717116 
L 279.101487 -233.565609 
L 295.16445 -244.83394 
L 311.227413 -226.25642 
L 327.290376 -240.570247 
L 343.353339 -182.441898 
L 359.416302 -217.404181 
L 375.479265 -142.038329 
L 391.542228 -195.821773 
L 407.605191 -139.58163 
L 423.668154 -126.506304 
L 439.731117 -99.665341 
L 455.79408 -92.335849 
L 471.857043 -88.072156 
L 487.920006 -81.108124 
L 503.982969 -80.844181 
L 503.982969 -283.877187 
L 503.982969 -283.877187 
L 487.920006 -283.877187 
L 471.857043 -283.877187 
L 455.79408 -283.877187 
L 439.731117 -283.877187 
L 423.668154 -283.877187 
L 407.605191 -283.877187 
L 391.542228 -283.877187 
L 375.479265 -283.877187 
L 359.416302 -283.877187 
L 343.353339 -283.836581 
L 327.290376 -283.836581 
L 311.227413 -283.836581 
L 295.16445 -283.653851 
L 279.101487 -283.816278 
L 263.038524 -283.613245 
L 246.975561 -283.592941 
L 230.912598 -282.47626 
L 214.849635 -283.369605 
L 198.786672 -282.23262 
L 182.723709 -281.968677 
L 166.660747 -282.557473 
L 150.597784 -282.334137 
L 134.534821 -283.410212 
L 118.471858 -283.450818 
L 102.408895 -283.328998 
L 86.345932 -283.491425 
L 70.282969 -283.633548 
z
" style="stroke: #c44e52; stroke-opacity: 0.18"/>
    </defs>
    <g clip-path="url(#p06934764ff)">
     <use xlink:href="#m03396d6f54" x="0" y="302.457187" style="fill: #c44e52; fill-opacity: 0.18; stroke: #c44e52; stroke-opacity: 0.18"/>
    </g>
   </g>
   <g id="matplotlib.axis_1">
    <g id="xtick_1">
     <g id="line2d_1">
      <defs>
       <path id="mf01087f4a1" d="M 0 0 
L 0 3.5 
" style="stroke: #000000; stroke-width: 0.8"/>
      </defs>
      <g>
       <use xlink:href="#mf01087f4a1" x="70.282969" y="257.56" style="stroke: #000000; stroke-width: 0.8"/>
      </g>
     </g>
     <g id="text_1">
      <!-- 0 -->
      <g transform="translate(66.390312 274.580938) scale(0.14 -0.14)">
       <defs>
        <path id="ArialMT-30" d="M 266 2259 
Q 266 3072 433 3567 
Q 600 4063 929 4331 
Q 1259 4600 1759 4600 
Q 2128 4600 2406 4451 
Q 2684 4303 2865 4023 
Q 3047 3744 3150 3342 
Q 3253 2941 3253 2259 
Q 3253 1453 3087 958 
Q 2922 463 2592 192 
Q 2263 -78 1759 -78 
Q 1097 -78 719 397 
Q 266 969 266 2259 
z
M 844 2259 
Q 844 1131 1108 757 
Q 1372 384 1759 384 
Q 2147 384 2411 759 
Q 2675 1134 2675 2259 
Q 2675 3391 2411 3762 
Q 2147 4134 1753 4134 
Q 1366 4134 1134 3806 
Q 844 3388 844 2259 
z
" transform="scale(0.015625)"/>
       </defs>
       <use xlink:href="#ArialMT-30"/>
      </g>
     </g>
    </g>
    <g id="xtick_2">
     <g id="line2d_2">
      <g>
       <use xlink:href="#mf01087f4a1" x="150.597784" y="257.56" style="stroke: #000000; stroke-width: 0.8"/>
      </g>
     </g>
     <g id="text_2">
      <!-- 5 -->
      <g transform="translate(146.705127 274.580938) scale(0.14 -0.14)">
       <defs>
        <path id="ArialMT-35" d="M 266 1200 
L 856 1250 
Q 922 819 1161 601 
Q 1400 384 1738 384 
Q 2144 384 2425 690 
Q 2706 997 2706 1503 
Q 2706 1984 2436 2262 
Q 2166 2541 1728 2541 
Q 1456 2541 1237 2417 
Q 1019 2294 894 2097 
L 366 2166 
L 809 4519 
L 3088 4519 
L 3088 3981 
L 1259 3981 
L 1013 2750 
Q 1425 3038 1878 3038 
Q 2478 3038 2890 2622 
Q 3303 2206 3303 1553 
Q 3303 931 2941 478 
Q 2500 -78 1738 -78 
Q 1113 -78 717 272 
Q 322 622 266 1200 
z
" transform="scale(0.015625)"/>
       </defs>
       <use xlink:href="#ArialMT-35"/>
      </g>
     </g>
    </g>
    <g id="xtick_3">
     <g id="line2d_3">
      <g>
       <use xlink:href="#mf01087f4a1" x="230.912598" y="257.56" style="stroke: #000000; stroke-width: 0.8"/>
      </g>
     </g>
     <g id="text_3">
      <!-- 10 -->
      <g transform="translate(223.127286 274.580938) scale(0.14 -0.14)">
       <defs>
        <path id="ArialMT-31" d="M 2384 0 
L 1822 0 
L 1822 3584 
Q 1619 3391 1289 3197 
Q 959 3003 697 2906 
L 697 3450 
Q 1169 3672 1522 3987 
Q 1875 4303 2022 4600 
L 2384 4600 
L 2384 0 
z
" transform="scale(0.015625)"/>
       </defs>
       <use xlink:href="#ArialMT-31"/>
       <use xlink:href="#ArialMT-30" x="55.615234"/>
      </g>
     </g>
    </g>
    <g id="xtick_4">
     <g id="line2d_4">
      <g>
       <use xlink:href="#mf01087f4a1" x="311.227413" y="257.56" style="stroke: #000000; stroke-width: 0.8"/>
      </g>
     </g>
     <g id="text_4">
      <!-- 15 -->
      <g transform="translate(303.442101 274.580938) scale(0.14 -0.14)">
       <use xlink:href="#ArialMT-31"/>
       <use xlink:href="#ArialMT-35" x="55.615234"/>
      </g>
     </g>
    </g>
    <g id="xtick_5">
     <g id="line2d_5">
      <g>
       <use xlink:href="#mf01087f4a1" x="391.542228" y="257.56" style="stroke: #000000; stroke-width: 0.8"/>
      </g>
     </g>
     <g id="text_5">
      <!-- 20 -->
      <g transform="translate(383.756916 274.580938) scale(0.14 -0.14)">
       <defs>
        <path id="ArialMT-32" d="M 3222 541 
L 3222 0 
L 194 0 
Q 188 203 259 391 
Q 375 700 629 1000 
Q 884 1300 1366 1694 
Q 2113 2306 2375 2664 
Q 2638 3022 2638 3341 
Q 2638 3675 2398 3904 
Q 2159 4134 1775 4134 
Q 1369 4134 1125 3890 
Q 881 3647 878 3216 
L 300 3275 
Q 359 3922 746 4261 
Q 1134 4600 1788 4600 
Q 2447 4600 2831 4234 
Q 3216 3869 3216 3328 
Q 3216 3053 3103 2787 
Q 2991 2522 2730 2228 
Q 2469 1934 1863 1422 
Q 1356 997 1212 845 
Q 1069 694 975 541 
L 3222 541 
z
" transform="scale(0.015625)"/>
       </defs>
       <use xlink:href="#ArialMT-32"/>
       <use xlink:href="#ArialMT-30" x="55.615234"/>
      </g>
     </g>
    </g>
    <g id="xtick_6">
     <g id="line2d_6">
      <g>
       <use xlink:href="#mf01087f4a1" x="471.857043" y="257.56" style="stroke: #000000; stroke-width: 0.8"/>
      </g>
     </g>
     <g id="text_6">
      <!-- 25 -->
      <g transform="translate(464.07173 274.580938) scale(0.14 -0.14)">
       <use xlink:href="#ArialMT-32"/>
       <use xlink:href="#ArialMT-35" x="55.615234"/>
      </g>
     </g>
    </g>
    <g id="text_7">
     <!-- Layer Index -->
     <g transform="translate(247.944297 292.100156) scale(0.15 -0.15)">
      <defs>
       <path id="ArialMT-4c" d="M 469 0 
L 469 4581 
L 1075 4581 
L 1075 541 
L 3331 541 
L 3331 0 
L 469 0 
z
" transform="scale(0.015625)"/>
       <path id="ArialMT-61" d="M 2588 409 
Q 2275 144 1986 34 
Q 1697 -75 1366 -75 
Q 819 -75 525 192 
Q 231 459 231 875 
Q 231 1119 342 1320 
Q 453 1522 633 1644 
Q 813 1766 1038 1828 
Q 1203 1872 1538 1913 
Q 2219 1994 2541 2106 
Q 2544 2222 2544 2253 
Q 2544 2597 2384 2738 
Q 2169 2928 1744 2928 
Q 1347 2928 1158 2789 
Q 969 2650 878 2297 
L 328 2372 
Q 403 2725 575 2942 
Q 747 3159 1072 3276 
Q 1397 3394 1825 3394 
Q 2250 3394 2515 3294 
Q 2781 3194 2906 3042 
Q 3031 2891 3081 2659 
Q 3109 2516 3109 2141 
L 3109 1391 
Q 3109 606 3145 398 
Q 3181 191 3288 0 
L 2700 0 
Q 2613 175 2588 409 
z
M 2541 1666 
Q 2234 1541 1622 1453 
Q 1275 1403 1131 1340 
Q 988 1278 909 1158 
Q 831 1038 831 891 
Q 831 666 1001 516 
Q 1172 366 1500 366 
Q 1825 366 2078 508 
Q 2331 650 2450 897 
Q 2541 1088 2541 1459 
L 2541 1666 
z
" transform="scale(0.015625)"/>
       <path id="ArialMT-79" d="M 397 -1278 
L 334 -750 
Q 519 -800 656 -800 
Q 844 -800 956 -737 
Q 1069 -675 1141 -563 
Q 1194 -478 1313 -144 
Q 1328 -97 1363 -6 
L 103 3319 
L 709 3319 
L 1400 1397 
Q 1534 1031 1641 628 
Q 1738 1016 1872 1384 
L 2581 3319 
L 3144 3319 
L 1881 -56 
Q 1678 -603 1566 -809 
Q 1416 -1088 1222 -1217 
Q 1028 -1347 759 -1347 
Q 597 -1347 397 -1278 
z
" transform="scale(0.015625)"/>
       <path id="ArialMT-65" d="M 2694 1069 
L 3275 997 
Q 3138 488 2766 206 
Q 2394 -75 1816 -75 
Q 1088 -75 661 373 
Q 234 822 234 1631 
Q 234 2469 665 2931 
Q 1097 3394 1784 3394 
Q 2450 3394 2872 2941 
Q 3294 2488 3294 1666 
Q 3294 1616 3291 1516 
L 816 1516 
Q 847 969 1125 678 
Q 1403 388 1819 388 
Q 2128 388 2347 550 
Q 2566 713 2694 1069 
z
M 847 1978 
L 2700 1978 
Q 2663 2397 2488 2606 
Q 2219 2931 1791 2931 
Q 1403 2931 1139 2672 
Q 875 2413 847 1978 
z
" transform="scale(0.015625)"/>
       <path id="ArialMT-72" d="M 416 0 
L 416 3319 
L 922 3319 
L 922 2816 
Q 1116 3169 1280 3281 
Q 1444 3394 1641 3394 
Q 1925 3394 2219 3213 
L 2025 2691 
Q 1819 2813 1613 2813 
Q 1428 2813 1281 2702 
Q 1134 2591 1072 2394 
Q 978 2094 978 1738 
L 978 0 
L 416 0 
z
" transform="scale(0.015625)"/>
       <path id="ArialMT-20" transform="scale(0.015625)"/>
       <path id="ArialMT-49" d="M 597 0 
L 597 4581 
L 1203 4581 
L 1203 0 
L 597 0 
z
" transform="scale(0.015625)"/>
       <path id="ArialMT-6e" d="M 422 0 
L 422 3319 
L 928 3319 
L 928 2847 
Q 1294 3394 1984 3394 
Q 2284 3394 2536 3286 
Q 2788 3178 2913 3003 
Q 3038 2828 3088 2588 
Q 3119 2431 3119 2041 
L 3119 0 
L 2556 0 
L 2556 2019 
Q 2556 2363 2490 2533 
Q 2425 2703 2258 2804 
Q 2091 2906 1866 2906 
Q 1506 2906 1245 2678 
Q 984 2450 984 1813 
L 984 0 
L 422 0 
z
" transform="scale(0.015625)"/>
       <path id="ArialMT-64" d="M 2575 0 
L 2575 419 
Q 2259 -75 1647 -75 
Q 1250 -75 917 144 
Q 584 363 401 755 
Q 219 1147 219 1656 
Q 219 2153 384 2558 
Q 550 2963 881 3178 
Q 1213 3394 1622 3394 
Q 1922 3394 2156 3267 
Q 2391 3141 2538 2938 
L 2538 4581 
L 3097 4581 
L 3097 0 
L 2575 0 
z
M 797 1656 
Q 797 1019 1065 703 
Q 1334 388 1700 388 
Q 2069 388 2326 689 
Q 2584 991 2584 1609 
Q 2584 2291 2321 2609 
Q 2059 2928 1675 2928 
Q 1300 2928 1048 2622 
Q 797 2316 797 1656 
z
" transform="scale(0.015625)"/>
       <path id="ArialMT-78" d="M 47 0 
L 1259 1725 
L 138 3319 
L 841 3319 
L 1350 2541 
Q 1494 2319 1581 2169 
Q 1719 2375 1834 2534 
L 2394 3319 
L 3066 3319 
L 1919 1756 
L 3153 0 
L 2463 0 
L 1781 1031 
L 1600 1309 
L 728 0 
L 47 0 
z
" transform="scale(0.015625)"/>
      </defs>
      <use xlink:href="#ArialMT-4c"/>
      <use xlink:href="#ArialMT-61" x="55.615234"/>
      <use xlink:href="#ArialMT-79" x="111.230469"/>
      <use xlink:href="#ArialMT-65" x="161.230469"/>
      <use xlink:href="#ArialMT-72" x="216.845703"/>
      <use xlink:href="#ArialMT-20" x="250.146484"/>
      <use xlink:href="#ArialMT-49" x="277.929688"/>
      <use xlink:href="#ArialMT-6e" x="305.712891"/>
      <use xlink:href="#ArialMT-64" x="361.328125"/>
      <use xlink:href="#ArialMT-65" x="416.943359"/>
      <use xlink:href="#ArialMT-78" x="472.558594"/>
     </g>
    </g>
   </g>
   <g id="matplotlib.axis_2">
    <g id="ytick_1">
     <g id="line2d_7">
      <path d="M 48.597969 221.613006 
L 525.667969 221.613006 
" clip-path="url(#p06934764ff)" style="fill: none; stroke-dasharray: 2.96,1.28; stroke-dashoffset: 0; stroke: #b0b0b0; stroke-opacity: 0.35; stroke-width: 0.8"/>
     </g>
     <g id="line2d_8">
      <defs>
       <path id="m269d896197" d="M 0 0 
L -3.5 0 
" style="stroke: #000000; stroke-width: 0.8"/>
      </defs>
      <g>
       <use xlink:href="#m269d896197" x="48.597969" y="221.613006" style="stroke: #000000; stroke-width: 0.8"/>
      </g>
     </g>
     <g id="text_8">
      <!-- 0.0 -->
      <g transform="translate(24.917969 225.907694) scale(0.12 -0.12)">
       <defs>
        <path id="ArialMT-2e" d="M 581 0 
L 581 641 
L 1222 641 
L 1222 0 
L 581 0 
z
" transform="scale(0.015625)"/>
       </defs>
       <use xlink:href="#ArialMT-30"/>
       <use xlink:href="#ArialMT-2e" x="55.615234"/>
       <use xlink:href="#ArialMT-30" x="83.398438"/>
      </g>
     </g>
    </g>
    <g id="ytick_2">
     <g id="line2d_9">
      <path d="M 48.597969 181.006405 
L 525.667969 181.006405 
" clip-path="url(#p06934764ff)" style="fill: none; stroke-dasharray: 2.96,1.28; stroke-dashoffset: 0; stroke: #b0b0b0; stroke-opacity: 0.35; stroke-width: 0.8"/>
     </g>
     <g id="line2d_10">
      <g>
       <use xlink:href="#m269d896197" x="48.597969" y="181.006405" style="stroke: #000000; stroke-width: 0.8"/>
      </g>
     </g>
     <g id="text_9">
      <!-- 0.2 -->
      <g transform="translate(24.917969 185.301092) scale(0.12 -0.12)">
       <use xlink:href="#ArialMT-30"/>
       <use xlink:href="#ArialMT-2e" x="55.615234"/>
       <use xlink:href="#ArialMT-32" x="83.398438"/>
      </g>
     </g>
    </g>
    <g id="ytick_3">
     <g id="line2d_11">
      <path d="M 48.597969 140.399804 
L 525.667969 140.399804 
" clip-path="url(#p06934764ff)" style="fill: none; stroke-dasharray: 2.96,1.28; stroke-dashoffset: 0; stroke: #b0b0b0; stroke-opacity: 0.35; stroke-width: 0.8"/>
     </g>
     <g id="line2d_12">
      <g>
       <use xlink:href="#m269d896197" x="48.597969" y="140.399804" style="stroke: #000000; stroke-width: 0.8"/>
      </g>
     </g>
     <g id="text_10">
      <!-- 0.4 -->
      <g transform="translate(24.917969 144.694491) scale(0.12 -0.12)">
       <defs>
        <path id="ArialMT-34" d="M 2069 0 
L 2069 1097 
L 81 1097 
L 81 1613 
L 2172 4581 
L 2631 4581 
L 2631 1613 
L 3250 1613 
L 3250 1097 
L 2631 1097 
L 2631 0 
L 2069 0 
z
M 2069 1613 
L 2069 3678 
L 634 1613 
L 2069 1613 
z
" transform="scale(0.015625)"/>
       </defs>
       <use xlink:href="#ArialMT-30"/>
       <use xlink:href="#ArialMT-2e" x="55.615234"/>
       <use xlink:href="#ArialMT-34" x="83.398438"/>
      </g>
     </g>
    </g>
    <g id="ytick_4">
     <g id="line2d_13">
      <path d="M 48.597969 99.793202 
L 525.667969 99.793202 
" clip-path="url(#p06934764ff)" style="fill: none; stroke-dasharray: 2.96,1.28; stroke-dashoffset: 0; stroke: #b0b0b0; stroke-opacity: 0.35; stroke-width: 0.8"/>
     </g>
     <g id="line2d_14">
      <g>
       <use xlink:href="#m269d896197" x="48.597969" y="99.793202" style="stroke: #000000; stroke-width: 0.8"/>
      </g>
     </g>
     <g id="text_11">
      <!-- 0.6 -->
      <g transform="translate(24.917969 104.08789) scale(0.12 -0.12)">
       <defs>
        <path id="ArialMT-36" d="M 3184 3459 
L 2625 3416 
Q 2550 3747 2413 3897 
Q 2184 4138 1850 4138 
Q 1581 4138 1378 3988 
Q 1113 3794 959 3422 
Q 806 3050 800 2363 
Q 1003 2672 1297 2822 
Q 1591 2972 1913 2972 
Q 2475 2972 2870 2558 
Q 3266 2144 3266 1488 
Q 3266 1056 3080 686 
Q 2894 316 2569 119 
Q 2244 -78 1831 -78 
Q 1128 -78 684 439 
Q 241 956 241 2144 
Q 241 3472 731 4075 
Q 1159 4600 1884 4600 
Q 2425 4600 2770 4297 
Q 3116 3994 3184 3459 
z
M 888 1484 
Q 888 1194 1011 928 
Q 1134 663 1356 523 
Q 1578 384 1822 384 
Q 2178 384 2434 671 
Q 2691 959 2691 1453 
Q 2691 1928 2437 2201 
Q 2184 2475 1800 2475 
Q 1419 2475 1153 2201 
Q 888 1928 888 1484 
z
" transform="scale(0.015625)"/>
       </defs>
       <use xlink:href="#ArialMT-30"/>
       <use xlink:href="#ArialMT-2e" x="55.615234"/>
       <use xlink:href="#ArialMT-36" x="83.398438"/>
      </g>
     </g>
    </g>
    <g id="ytick_5">
     <g id="line2d_15">
      <path d="M 48.597969 59.186601 
L 525.667969 59.186601 
" clip-path="url(#p06934764ff)" style="fill: none; stroke-dasharray: 2.96,1.28; stroke-dashoffset: 0; stroke: #b0b0b0; stroke-opacity: 0.35; stroke-width: 0.8"/>
     </g>
     <g id="line2d_16">
      <g>
       <use xlink:href="#m269d896197" x="48.597969" y="59.186601" style="stroke: #000000; stroke-width: 0.8"/>
      </g>
     </g>
     <g id="text_12">
      <!-- 0.8 -->
      <g transform="translate(24.917969 63.481289) scale(0.12 -0.12)">
       <defs>
        <path id="ArialMT-38" d="M 1131 2484 
Q 781 2613 612 2850 
Q 444 3088 444 3419 
Q 444 3919 803 4259 
Q 1163 4600 1759 4600 
Q 2359 4600 2725 4251 
Q 3091 3903 3091 3403 
Q 3091 3084 2923 2848 
Q 2756 2613 2416 2484 
Q 2838 2347 3058 2040 
Q 3278 1734 3278 1309 
Q 3278 722 2862 322 
Q 2447 -78 1769 -78 
Q 1091 -78 675 323 
Q 259 725 259 1325 
Q 259 1772 486 2073 
Q 713 2375 1131 2484 
z
M 1019 3438 
Q 1019 3113 1228 2906 
Q 1438 2700 1772 2700 
Q 2097 2700 2305 2904 
Q 2513 3109 2513 3406 
Q 2513 3716 2298 3927 
Q 2084 4138 1766 4138 
Q 1444 4138 1231 3931 
Q 1019 3725 1019 3438 
z
M 838 1322 
Q 838 1081 952 856 
Q 1066 631 1291 507 
Q 1516 384 1775 384 
Q 2178 384 2440 643 
Q 2703 903 2703 1303 
Q 2703 1709 2433 1975 
Q 2163 2241 1756 2241 
Q 1359 2241 1098 1978 
Q 838 1716 838 1322 
z
" transform="scale(0.015625)"/>
       </defs>
       <use xlink:href="#ArialMT-30"/>
       <use xlink:href="#ArialMT-2e" x="55.615234"/>
       <use xlink:href="#ArialMT-38" x="83.398438"/>
      </g>
     </g>
    </g>
    <g id="ytick_6">
     <g id="line2d_17">
      <path d="M 48.597969 18.58 
L 525.667969 18.58 
" clip-path="url(#p06934764ff)" style="fill: none; stroke-dasharray: 2.96,1.28; stroke-dashoffset: 0; stroke: #b0b0b0; stroke-opacity: 0.35; stroke-width: 0.8"/>
     </g>
     <g id="line2d_18">
      <g>
       <use xlink:href="#m269d896197" x="48.597969" y="18.58" style="stroke: #000000; stroke-width: 0.8"/>
      </g>
     </g>
     <g id="text_13">
      <!-- 1.0 -->
      <g transform="translate(24.917969 22.874687) scale(0.12 -0.12)">
       <use xlink:href="#ArialMT-31"/>
       <use xlink:href="#ArialMT-2e" x="55.615234"/>
       <use xlink:href="#ArialMT-30" x="83.398438"/>
      </g>
     </g>
    </g>
    <g id="text_14">
     <!-- CosineSim -->
     <g transform="translate(17.936719 168.641328) rotate(-90) scale(0.15 -0.15)">
      <defs>
       <path id="ArialMT-43" d="M 3763 1606 
L 4369 1453 
Q 4178 706 3683 314 
Q 3188 -78 2472 -78 
Q 1731 -78 1267 223 
Q 803 525 561 1097 
Q 319 1669 319 2325 
Q 319 3041 592 3573 
Q 866 4106 1370 4382 
Q 1875 4659 2481 4659 
Q 3169 4659 3637 4309 
Q 4106 3959 4291 3325 
L 3694 3184 
Q 3534 3684 3231 3912 
Q 2928 4141 2469 4141 
Q 1941 4141 1586 3887 
Q 1231 3634 1087 3207 
Q 944 2781 944 2328 
Q 944 1744 1114 1308 
Q 1284 872 1643 656 
Q 2003 441 2422 441 
Q 2931 441 3284 734 
Q 3638 1028 3763 1606 
z
" transform="scale(0.015625)"/>
       <path id="ArialMT-6f" d="M 213 1659 
Q 213 2581 725 3025 
Q 1153 3394 1769 3394 
Q 2453 3394 2887 2945 
Q 3322 2497 3322 1706 
Q 3322 1066 3130 698 
Q 2938 331 2570 128 
Q 2203 -75 1769 -75 
Q 1072 -75 642 372 
Q 213 819 213 1659 
z
M 791 1659 
Q 791 1022 1069 705 
Q 1347 388 1769 388 
Q 2188 388 2466 706 
Q 2744 1025 2744 1678 
Q 2744 2294 2464 2611 
Q 2184 2928 1769 2928 
Q 1347 2928 1069 2612 
Q 791 2297 791 1659 
z
" transform="scale(0.015625)"/>
       <path id="ArialMT-73" d="M 197 991 
L 753 1078 
Q 800 744 1014 566 
Q 1228 388 1613 388 
Q 2000 388 2187 545 
Q 2375 703 2375 916 
Q 2375 1106 2209 1216 
Q 2094 1291 1634 1406 
Q 1016 1563 777 1677 
Q 538 1791 414 1992 
Q 291 2194 291 2438 
Q 291 2659 392 2848 
Q 494 3038 669 3163 
Q 800 3259 1026 3326 
Q 1253 3394 1513 3394 
Q 1903 3394 2198 3281 
Q 2494 3169 2634 2976 
Q 2775 2784 2828 2463 
L 2278 2388 
Q 2241 2644 2061 2787 
Q 1881 2931 1553 2931 
Q 1166 2931 1000 2803 
Q 834 2675 834 2503 
Q 834 2394 903 2306 
Q 972 2216 1119 2156 
Q 1203 2125 1616 2013 
Q 2213 1853 2448 1751 
Q 2684 1650 2818 1456 
Q 2953 1263 2953 975 
Q 2953 694 2789 445 
Q 2625 197 2315 61 
Q 2006 -75 1616 -75 
Q 969 -75 630 194 
Q 291 463 197 991 
z
" transform="scale(0.015625)"/>
       <path id="ArialMT-69" d="M 425 3934 
L 425 4581 
L 988 4581 
L 988 3934 
L 425 3934 
z
M 425 0 
L 425 3319 
L 988 3319 
L 988 0 
L 425 0 
z
" transform="scale(0.015625)"/>
       <path id="ArialMT-53" d="M 288 1472 
L 859 1522 
Q 900 1178 1048 958 
Q 1197 738 1509 602 
Q 1822 466 2213 466 
Q 2559 466 2825 569 
Q 3091 672 3220 851 
Q 3350 1031 3350 1244 
Q 3350 1459 3225 1620 
Q 3100 1781 2813 1891 
Q 2628 1963 1997 2114 
Q 1366 2266 1113 2400 
Q 784 2572 623 2826 
Q 463 3081 463 3397 
Q 463 3744 659 4045 
Q 856 4347 1234 4503 
Q 1613 4659 2075 4659 
Q 2584 4659 2973 4495 
Q 3363 4331 3572 4012 
Q 3781 3694 3797 3291 
L 3216 3247 
Q 3169 3681 2898 3903 
Q 2628 4125 2100 4125 
Q 1550 4125 1298 3923 
Q 1047 3722 1047 3438 
Q 1047 3191 1225 3031 
Q 1400 2872 2139 2705 
Q 2878 2538 3153 2413 
Q 3553 2228 3743 1945 
Q 3934 1663 3934 1294 
Q 3934 928 3725 604 
Q 3516 281 3123 101 
Q 2731 -78 2241 -78 
Q 1619 -78 1198 103 
Q 778 284 539 648 
Q 300 1013 288 1472 
z
" transform="scale(0.015625)"/>
       <path id="ArialMT-6d" d="M 422 0 
L 422 3319 
L 925 3319 
L 925 2853 
Q 1081 3097 1340 3245 
Q 1600 3394 1931 3394 
Q 2300 3394 2536 3241 
Q 2772 3088 2869 2813 
Q 3263 3394 3894 3394 
Q 4388 3394 4653 3120 
Q 4919 2847 4919 2278 
L 4919 0 
L 4359 0 
L 4359 2091 
Q 4359 2428 4304 2576 
Q 4250 2725 4106 2815 
Q 3963 2906 3769 2906 
Q 3419 2906 3187 2673 
Q 2956 2441 2956 1928 
L 2956 0 
L 2394 0 
L 2394 2156 
Q 2394 2531 2256 2718 
Q 2119 2906 1806 2906 
Q 1569 2906 1367 2781 
Q 1166 2656 1075 2415 
Q 984 2175 984 1722 
L 984 0 
L 422 0 
z
" transform="scale(0.015625)"/>
      </defs>
      <use xlink:href="#ArialMT-43"/>
      <use xlink:href="#ArialMT-6f" x="72.216797"/>
      <use xlink:href="#ArialMT-73" x="127.832031"/>
      <use xlink:href="#ArialMT-69" x="177.832031"/>
      <use xlink:href="#ArialMT-6e" x="200.048828"/>
      <use xlink:href="#ArialMT-65" x="255.664062"/>
      <use xlink:href="#ArialMT-53" x="311.279297"/>
      <use xlink:href="#ArialMT-69" x="377.978516"/>
      <use xlink:href="#ArialMT-6d" x="400.195312"/>
     </g>
    </g>
   </g>
   <g id="line2d_19">
    <path d="M 70.282969 57.669228 
L 86.345932 30.913658 
L 102.408895 27.597353 
L 118.471858 27.390538 
L 134.534821 28.964641 
L 150.597784 28.613413 
L 166.660747 32.451235 
L 182.723709 35.64363 
L 198.786672 34.702513 
L 214.849635 31.116791 
L 230.912598 30.447279 
L 246.975561 28.398537 
L 263.038524 28.71702 
L 279.101487 27.691902 
L 295.16445 27.913348 
L 311.227413 27.10868 
L 327.290376 25.862814 
L 343.353339 26.975116 
L 359.416302 28.888503 
L 375.479265 28.862427 
L 391.542228 30.607815 
L 407.605191 29.372598 
L 423.668154 31.373767 
L 439.731117 28.988427 
L 455.79408 28.203466 
L 471.857043 30.822492 
L 487.920006 31.198899 
L 503.982969 62.567598 
" clip-path="url(#p06934764ff)" style="fill: none; stroke: #4c72b0; stroke-width: 2.3; stroke-linecap: square"/>
    <defs>
     <path id="mec95834fe4" d="M 0 2.5 
C 0.663008 2.5 1.29895 2.236584 1.767767 1.767767 
C 2.236584 1.29895 2.5 0.663008 2.5 0 
C 2.5 -0.663008 2.236584 -1.29895 1.767767 -1.767767 
C 1.29895 -2.236584 0.663008 -2.5 0 -2.5 
C -0.663008 -2.5 -1.29895 -2.236584 -1.767767 -1.767767 
C -2.236584 -1.29895 -2.5 -0.663008 -2.5 0 
C -2.5 0.663008 -2.236584 1.29895 -1.767767 1.767767 
C -1.29895 2.236584 -0.663008 2.5 0 2.5 
z
" style="stroke: #4c72b0"/>
    </defs>
    <g clip-path="url(#p06934764ff)">
     <use xlink:href="#mec95834fe4" x="70.282969" y="57.669228" style="fill: #4c72b0; stroke: #4c72b0"/>
     <use xlink:href="#mec95834fe4" x="86.345932" y="30.913658" style="fill: #4c72b0; stroke: #4c72b0"/>
     <use xlink:href="#mec95834fe4" x="102.408895" y="27.597353" style="fill: #4c72b0; stroke: #4c72b0"/>
     <use xlink:href="#mec95834fe4" x="118.471858" y="27.390538" style="fill: #4c72b0; stroke: #4c72b0"/>
     <use xlink:href="#mec95834fe4" x="134.534821" y="28.964641" style="fill: #4c72b0; stroke: #4c72b0"/>
     <use xlink:href="#mec95834fe4" x="150.597784" y="28.613413" style="fill: #4c72b0; stroke: #4c72b0"/>
     <use xlink:href="#mec95834fe4" x="166.660747" y="32.451235" style="fill: #4c72b0; stroke: #4c72b0"/>
     <use xlink:href="#mec95834fe4" x="182.723709" y="35.64363" style="fill: #4c72b0; stroke: #4c72b0"/>
     <use xlink:href="#mec95834fe4" x="198.786672" y="34.702513" style="fill: #4c72b0; stroke: #4c72b0"/>
     <use xlink:href="#mec95834fe4" x="214.849635" y="31.116791" style="fill: #4c72b0; stroke: #4c72b0"/>
     <use xlink:href="#mec95834fe4" x="230.912598" y="30.447279" style="fill: #4c72b0; stroke: #4c72b0"/>
     <use xlink:href="#mec95834fe4" x="246.975561" y="28.398537" style="fill: #4c72b0; stroke: #4c72b0"/>
     <use xlink:href="#mec95834fe4" x="263.038524" y="28.71702" style="fill: #4c72b0; stroke: #4c72b0"/>
     <use xlink:href="#mec95834fe4" x="279.101487" y="27.691902" style="fill: #4c72b0; stroke: #4c72b0"/>
     <use xlink:href="#mec95834fe4" x="295.16445" y="27.913348" style="fill: #4c72b0; stroke: #4c72b0"/>
     <use xlink:href="#mec95834fe4" x="311.227413" y="27.10868" style="fill: #4c72b0; stroke: #4c72b0"/>
     <use xlink:href="#mec95834fe4" x="327.290376" y="25.862814" style="fill: #4c72b0; stroke: #4c72b0"/>
     <use xlink:href="#mec95834fe4" x="343.353339" y="26.975116" style="fill: #4c72b0; stroke: #4c72b0"/>
     <use xlink:href="#mec95834fe4" x="359.416302" y="28.888503" style="fill: #4c72b0; stroke: #4c72b0"/>
     <use xlink:href="#mec95834fe4" x="375.479265" y="28.862427" style="fill: #4c72b0; stroke: #4c72b0"/>
     <use xlink:href="#mec95834fe4" x="391.542228" y="30.607815" style="fill: #4c72b0; stroke: #4c72b0"/>
     <use xlink:href="#mec95834fe4" x="407.605191" y="29.372598" style="fill: #4c72b0; stroke: #4c72b0"/>
     <use xlink:href="#mec95834fe4" x="423.668154" y="31.373767" style="fill: #4c72b0; stroke: #4c72b0"/>
     <use xlink:href="#mec95834fe4" x="439.731117" y="28.988427" style="fill: #4c72b0; stroke: #4c72b0"/>
     <use xlink:href="#mec95834fe4" x="455.79408" y="28.203466" style="fill: #4c72b0; stroke: #4c72b0"/>
     <use xlink:href="#mec95834fe4" x="471.857043" y="30.822492" style="fill: #4c72b0; stroke: #4c72b0"/>
     <use xlink:href="#mec95834fe4" x="487.920006" y="31.198899" style="fill: #4c72b0; stroke: #4c72b0"/>
     <use xlink:href="#mec95834fe4" x="503.982969" y="62.567598" style="fill: #4c72b0; stroke: #4c72b0"/>
    </g>
   </g>
   <g id="line2d_20">
    <path d="M 70.282969 27.639054 
L 86.345932 22.25649 
L 102.408895 21.377974 
L 118.471858 20.467013 
L 134.534821 20.102847 
L 150.597784 19.863089 
L 166.660747 19.578445 
L 182.723709 20.305283 
L 198.786672 20.847998 
L 214.849635 19.335104 
L 230.912598 19.276085 
L 246.975561 19.174071 
L 263.038524 19.207412 
L 279.101487 19.116146 
L 295.16445 19.068872 
L 311.227413 19.022692 
L 327.290376 18.922369 
L 343.353339 18.978502 
L 359.416302 19.041104 
L 375.479265 19.000398 
L 391.542228 19.053943 
L 407.605191 18.980592 
L 423.668154 19.006469 
L 439.731117 18.891317 
L 455.79408 18.811 
L 471.857043 18.818663 
L 487.920006 18.896194 
L 503.982969 23.540475 
" clip-path="url(#p06934764ff)" style="fill: none; stroke: #55a868; stroke-width: 2.3; stroke-linecap: square"/>
    <defs>
     <path id="mb631c15560" d="M 0 2.5 
C 0.663008 2.5 1.29895 2.236584 1.767767 1.767767 
C 2.236584 1.29895 2.5 0.663008 2.5 0 
C 2.5 -0.663008 2.236584 -1.29895 1.767767 -1.767767 
C 1.29895 -2.236584 0.663008 -2.5 0 -2.5 
C -0.663008 -2.5 -1.29895 -2.236584 -1.767767 -1.767767 
C -2.236584 -1.29895 -2.5 -0.663008 -2.5 0 
C -2.5 0.663008 -2.236584 1.29895 -1.767767 1.767767 
C -1.29895 2.236584 -0.663008 2.5 0 2.5 
z
" style="stroke: #55a868"/>
    </defs>
    <g clip-path="url(#p06934764ff)">
     <use xlink:href="#mb631c15560" x="70.282969" y="27.639054" style="fill: #55a868; stroke: #55a868"/>
     <use xlink:href="#mb631c15560" x="86.345932" y="22.25649" style="fill: #55a868; stroke: #55a868"/>
     <use xlink:href="#mb631c15560" x="102.408895" y="21.377974" style="fill: #55a868; stroke: #55a868"/>
     <use xlink:href="#mb631c15560" x="118.471858" y="20.467013" style="fill: #55a868; stroke: #55a868"/>
     <use xlink:href="#mb631c15560" x="134.534821" y="20.102847" style="fill: #55a868; stroke: #55a868"/>
     <use xlink:href="#mb631c15560" x="150.597784" y="19.863089" style="fill: #55a868; stroke: #55a868"/>
     <use xlink:href="#mb631c15560" x="166.660747" y="19.578445" style="fill: #55a868; stroke: #55a868"/>
     <use xlink:href="#mb631c15560" x="182.723709" y="20.305283" style="fill: #55a868; stroke: #55a868"/>
     <use xlink:href="#mb631c15560" x="198.786672" y="20.847998" style="fill: #55a868; stroke: #55a868"/>
     <use xlink:href="#mb631c15560" x="214.849635" y="19.335104" style="fill: #55a868; stroke: #55a868"/>
     <use xlink:href="#mb631c15560" x="230.912598" y="19.276085" style="fill: #55a868; stroke: #55a868"/>
     <use xlink:href="#mb631c15560" x="246.975561" y="19.174071" style="fill: #55a868; stroke: #55a868"/>
     <use xlink:href="#mb631c15560" x="263.038524" y="19.207412" style="fill: #55a868; stroke: #55a868"/>
     <use xlink:href="#mb631c15560" x="279.101487" y="19.116146" style="fill: #55a868; stroke: #55a868"/>
     <use xlink:href="#mb631c15560" x="295.16445" y="19.068872" style="fill: #55a868; stroke: #55a868"/>
     <use xlink:href="#mb631c15560" x="311.227413" y="19.022692" style="fill: #55a868; stroke: #55a868"/>
     <use xlink:href="#mb631c15560" x="327.290376" y="18.922369" style="fill: #55a868; stroke: #55a868"/>
     <use xlink:href="#mb631c15560" x="343.353339" y="18.978502" style="fill: #55a868; stroke: #55a868"/>
     <use xlink:href="#mb631c15560" x="359.416302" y="19.041104" style="fill: #55a868; stroke: #55a868"/>
     <use xlink:href="#mb631c15560" x="375.479265" y="19.000398" style="fill: #55a868; stroke: #55a868"/>
     <use xlink:href="#mb631c15560" x="391.542228" y="19.053943" style="fill: #55a868; stroke: #55a868"/>
     <use xlink:href="#mb631c15560" x="407.605191" y="18.980592" style="fill: #55a868; stroke: #55a868"/>
     <use xlink:href="#mb631c15560" x="423.668154" y="19.006469" style="fill: #55a868; stroke: #55a868"/>
     <use xlink:href="#mb631c15560" x="439.731117" y="18.891317" style="fill: #55a868; stroke: #55a868"/>
     <use xlink:href="#mb631c15560" x="455.79408" y="18.811" style="fill: #55a868; stroke: #55a868"/>
     <use xlink:href="#mb631c15560" x="471.857043" y="18.818663" style="fill: #55a868; stroke: #55a868"/>
     <use xlink:href="#mb631c15560" x="487.920006" y="18.896194" style="fill: #55a868; stroke: #55a868"/>
     <use xlink:href="#mb631c15560" x="503.982969" y="23.540475" style="fill: #55a868; stroke: #55a868"/>
    </g>
   </g>
   <g id="line2d_21">
    <path d="M 70.282969 20.918263 
L 86.345932 26.159302 
L 102.408895 25.431667 
L 118.471858 21.994139 
L 134.534821 22.032258 
L 150.597784 28.814954 
L 166.660747 26.575022 
L 182.723709 30.779397 
L 198.786672 35.582521 
L 214.849635 28.172712 
L 230.912598 29.647289 
L 246.975561 27.632983 
L 263.038524 28.131708 
L 279.101487 26.207671 
L 295.16445 27.390239 
L 311.227413 26.943268 
L 327.290376 26.394084 
L 343.353339 28.570816 
L 359.416302 30.059526 
L 375.479265 35.148688 
L 391.542228 31.705785 
L 407.605191 34.615228 
L 423.668154 37.619619 
L 439.731117 35.300067 
L 455.79408 43.13107 
L 471.857043 35.432138 
L 487.920006 50.812983 
L 503.982969 96.479485 
" clip-path="url(#p06934764ff)" style="fill: none; stroke: #c44e52; stroke-width: 2.3; stroke-linecap: square"/>
    <defs>
     <path id="mf0c2bbfa2d" d="M 0 2.5 
C 0.663008 2.5 1.29895 2.236584 1.767767 1.767767 
C 2.236584 1.29895 2.5 0.663008 2.5 0 
C 2.5 -0.663008 2.236584 -1.29895 1.767767 -1.767767 
C 1.29895 -2.236584 0.663008 -2.5 0 -2.5 
C -0.663008 -2.5 -1.29895 -2.236584 -1.767767 -1.767767 
C -2.236584 -1.29895 -2.5 -0.663008 -2.5 0 
C -2.5 0.663008 -2.236584 1.29895 -1.767767 1.767767 
C -1.29895 2.236584 -0.663008 2.5 0 2.5 
z
" style="stroke: #c44e52"/>
    </defs>
    <g clip-path="url(#p06934764ff)">
     <use xlink:href="#mf0c2bbfa2d" x="70.282969" y="20.918263" style="fill: #c44e52; stroke: #c44e52"/>
     <use xlink:href="#mf0c2bbfa2d" x="86.345932" y="26.159302" style="fill: #c44e52; stroke: #c44e52"/>
     <use xlink:href="#mf0c2bbfa2d" x="102.408895" y="25.431667" style="fill: #c44e52; stroke: #c44e52"/>
     <use xlink:href="#mf0c2bbfa2d" x="118.471858" y="21.994139" style="fill: #c44e52; stroke: #c44e52"/>
     <use xlink:href="#mf0c2bbfa2d" x="134.534821" y="22.032258" style="fill: #c44e52; stroke: #c44e52"/>
     <use xlink:href="#mf0c2bbfa2d" x="150.597784" y="28.814954" style="fill: #c44e52; stroke: #c44e52"/>
     <use xlink:href="#mf0c2bbfa2d" x="166.660747" y="26.575022" style="fill: #c44e52; stroke: #c44e52"/>
     <use xlink:href="#mf0c2bbfa2d" x="182.723709" y="30.779397" style="fill: #c44e52; stroke: #c44e52"/>
     <use xlink:href="#mf0c2bbfa2d" x="198.786672" y="35.582521" style="fill: #c44e52; stroke: #c44e52"/>
     <use xlink:href="#mf0c2bbfa2d" x="214.849635" y="28.172712" style="fill: #c44e52; stroke: #c44e52"/>
     <use xlink:href="#mf0c2bbfa2d" x="230.912598" y="29.647289" style="fill: #c44e52; stroke: #c44e52"/>
     <use xlink:href="#mf0c2bbfa2d" x="246.975561" y="27.632983" style="fill: #c44e52; stroke: #c44e52"/>
     <use xlink:href="#mf0c2bbfa2d" x="263.038524" y="28.131708" style="fill: #c44e52; stroke: #c44e52"/>
     <use xlink:href="#mf0c2bbfa2d" x="279.101487" y="26.207671" style="fill: #c44e52; stroke: #c44e52"/>
     <use xlink:href="#mf0c2bbfa2d" x="295.16445" y="27.390239" style="fill: #c44e52; stroke: #c44e52"/>
     <use xlink:href="#mf0c2bbfa2d" x="311.227413" y="26.943268" style="fill: #c44e52; stroke: #c44e52"/>
     <use xlink:href="#mf0c2bbfa2d" x="327.290376" y="26.394084" style="fill: #c44e52; stroke: #c44e52"/>
     <use xlink:href="#mf0c2bbfa2d" x="343.353339" y="28.570816" style="fill: #c44e52; stroke: #c44e52"/>
     <use xlink:href="#mf0c2bbfa2d" x="359.416302" y="30.059526" style="fill: #c44e52; stroke: #c44e52"/>
     <use xlink:href="#mf0c2bbfa2d" x="375.479265" y="35.148688" style="fill: #c44e52; stroke: #c44e52"/>
     <use xlink:href="#mf0c2bbfa2d" x="391.542228" y="31.705785" style="fill: #c44e52; stroke: #c44e52"/>
     <use xlink:href="#mf0c2bbfa2d" x="407.605191" y="34.615228" style="fill: #c44e52; stroke: #c44e52"/>
     <use xlink:href="#mf0c2bbfa2d" x="423.668154" y="37.619619" style="fill: #c44e52; stroke: #c44e52"/>
     <use xlink:href="#mf0c2bbfa2d" x="439.731117" y="35.300067" style="fill: #c44e52; stroke: #c44e52"/>
     <use xlink:href="#mf0c2bbfa2d" x="455.79408" y="43.13107" style="fill: #c44e52; stroke: #c44e52"/>
     <use xlink:href="#mf0c2bbfa2d" x="471.857043" y="35.432138" style="fill: #c44e52; stroke: #c44e52"/>
     <use xlink:href="#mf0c2bbfa2d" x="487.920006" y="50.812983" style="fill: #c44e52; stroke: #c44e52"/>
     <use xlink:href="#mf0c2bbfa2d" x="503.982969" y="96.479485" style="fill: #c44e52; stroke: #c44e52"/>
    </g>
   </g>
   <g id="patch_3">
    <path d="M 48.597969 257.56 
L 48.597969 7.2 
" style="fill: none; stroke: #000000; stroke-width: 0.8; stroke-linejoin: miter; stroke-linecap: square"/>
   </g>
   <g id="patch_4">
    <path d="M 525.667969 257.56 
L 525.667969 7.2 
" style="fill: none; stroke: #000000; stroke-width: 0.8; stroke-linejoin: miter; stroke-linecap: square"/>
   </g>
   <g id="patch_5">
    <path d="M 48.597969 257.56 
L 525.667969 257.56 
" style="fill: none; stroke: #000000; stroke-width: 0.8; stroke-linejoin: miter; stroke-linecap: square"/>
   </g>
   <g id="patch_6">
    <path d="M 48.597969 7.2 
L 525.667969 7.2 
" style="fill: none; stroke: #000000; stroke-width: 0.8; stroke-linejoin: miter; stroke-linecap: square"/>
   </g>
   <g id="legend_1">
    <g id="patch_7">
     <path d="M 92.492869 230.0312 
L 216.374119 230.0312 
Q 219.374119 230.0312 219.374119 227.0312 
L 219.374119 164.34995 
Q 219.374119 161.34995 216.374119 161.34995 
L 92.492869 161.34995 
Q 89.492869 161.34995 89.492869 164.34995 
L 89.492869 227.0312 
Q 89.492869 230.0312 92.492869 230.0312 
z
" style="fill: #ffffff; opacity: 0.8; stroke: #cccccc; stroke-linejoin: miter"/>
    </g>
    <g id="line2d_22">
     <path d="M 95.492869 172.836669 
L 110.492869 172.836669 
L 125.492869 172.836669 
" style="fill: none; stroke: #4c72b0; stroke-width: 2.3; stroke-linecap: square"/>
     <g>
      <use xlink:href="#mec95834fe4" x="110.492869" y="172.836669" style="fill: #4c72b0; stroke: #4c72b0"/>
     </g>
    </g>
    <g id="text_15">
     <!-- Embedding -->
     <g transform="translate(137.492869 178.086669) scale(0.15 -0.15)">
      <defs>
       <path id="ArialMT-45" d="M 506 0 
L 506 4581 
L 3819 4581 
L 3819 4041 
L 1113 4041 
L 1113 2638 
L 3647 2638 
L 3647 2100 
L 1113 2100 
L 1113 541 
L 3925 541 
L 3925 0 
L 506 0 
z
" transform="scale(0.015625)"/>
       <path id="ArialMT-62" d="M 941 0 
L 419 0 
L 419 4581 
L 981 4581 
L 981 2947 
Q 1338 3394 1891 3394 
Q 2197 3394 2470 3270 
Q 2744 3147 2920 2923 
Q 3097 2700 3197 2384 
Q 3297 2069 3297 1709 
Q 3297 856 2875 390 
Q 2453 -75 1863 -75 
Q 1275 -75 941 416 
L 941 0 
z
M 934 1684 
Q 934 1088 1097 822 
Q 1363 388 1816 388 
Q 2184 388 2453 708 
Q 2722 1028 2722 1663 
Q 2722 2313 2464 2622 
Q 2206 2931 1841 2931 
Q 1472 2931 1203 2611 
Q 934 2291 934 1684 
z
" transform="scale(0.015625)"/>
       <path id="ArialMT-67" d="M 319 -275 
L 866 -356 
Q 900 -609 1056 -725 
Q 1266 -881 1628 -881 
Q 2019 -881 2231 -725 
Q 2444 -569 2519 -288 
Q 2563 -116 2559 434 
Q 2191 0 1641 0 
Q 956 0 581 494 
Q 206 988 206 1678 
Q 206 2153 378 2554 
Q 550 2956 876 3175 
Q 1203 3394 1644 3394 
Q 2231 3394 2613 2919 
L 2613 3319 
L 3131 3319 
L 3131 450 
Q 3131 -325 2973 -648 
Q 2816 -972 2473 -1159 
Q 2131 -1347 1631 -1347 
Q 1038 -1347 672 -1080 
Q 306 -813 319 -275 
z
M 784 1719 
Q 784 1066 1043 766 
Q 1303 466 1694 466 
Q 2081 466 2343 764 
Q 2606 1063 2606 1700 
Q 2606 2309 2336 2618 
Q 2066 2928 1684 2928 
Q 1309 2928 1046 2623 
Q 784 2319 784 1719 
z
" transform="scale(0.015625)"/>
      </defs>
      <use xlink:href="#ArialMT-45"/>
      <use xlink:href="#ArialMT-6d" x="66.699219"/>
      <use xlink:href="#ArialMT-62" x="150"/>
      <use xlink:href="#ArialMT-65" x="205.615234"/>
      <use xlink:href="#ArialMT-64" x="261.230469"/>
      <use xlink:href="#ArialMT-64" x="316.845703"/>
      <use xlink:href="#ArialMT-69" x="372.460938"/>
      <use xlink:href="#ArialMT-6e" x="394.677734"/>
      <use xlink:href="#ArialMT-67" x="450.292969"/>
     </g>
    </g>
    <g id="line2d_23">
     <path d="M 95.492869 194.230419 
L 110.492869 194.230419 
L 125.492869 194.230419 
" style="fill: none; stroke: #55a868; stroke-width: 2.3; stroke-linecap: square"/>
     <g>
      <use xlink:href="#mb631c15560" x="110.492869" y="194.230419" style="fill: #55a868; stroke: #55a868"/>
     </g>
    </g>
    <g id="text_16">
     <!-- Logit -->
     <g transform="translate(137.492869 199.480419) scale(0.15 -0.15)">
      <defs>
       <path id="ArialMT-74" d="M 1650 503 
L 1731 6 
Q 1494 -44 1306 -44 
Q 1000 -44 831 53 
Q 663 150 594 308 
Q 525 466 525 972 
L 525 2881 
L 113 2881 
L 113 3319 
L 525 3319 
L 525 4141 
L 1084 4478 
L 1084 3319 
L 1650 3319 
L 1650 2881 
L 1084 2881 
L 1084 941 
Q 1084 700 1114 631 
Q 1144 563 1211 522 
Q 1278 481 1403 481 
Q 1497 481 1650 503 
z
" transform="scale(0.015625)"/>
      </defs>
      <use xlink:href="#ArialMT-4c"/>
      <use xlink:href="#ArialMT-6f" x="55.615234"/>
      <use xlink:href="#ArialMT-67" x="111.230469"/>
      <use xlink:href="#ArialMT-69" x="166.845703"/>
      <use xlink:href="#ArialMT-74" x="189.0625"/>
     </g>
    </g>
    <g id="line2d_24">
     <path d="M 95.492869 215.624169 
L 110.492869 215.624169 
L 125.492869 215.624169 
" style="fill: none; stroke: #c44e52; stroke-width: 2.3; stroke-linecap: square"/>
     <g>
      <use xlink:href="#mf0c2bbfa2d" x="110.492869" y="215.624169" style="fill: #c44e52; stroke: #c44e52"/>
     </g>
    </g>
    <g id="text_17">
     <!-- Probability -->
     <g transform="translate(137.492869 220.874169) scale(0.15 -0.15)">
      <defs>
       <path id="ArialMT-50" d="M 494 0 
L 494 4581 
L 2222 4581 
Q 2678 4581 2919 4538 
Q 3256 4481 3484 4323 
Q 3713 4166 3852 3881 
Q 3991 3597 3991 3256 
Q 3991 2672 3619 2267 
Q 3247 1863 2275 1863 
L 1100 1863 
L 1100 0 
L 494 0 
z
M 1100 2403 
L 2284 2403 
Q 2872 2403 3119 2622 
Q 3366 2841 3366 3238 
Q 3366 3525 3220 3729 
Q 3075 3934 2838 4000 
Q 2684 4041 2272 4041 
L 1100 4041 
L 1100 2403 
z
" transform="scale(0.015625)"/>
       <path id="ArialMT-6c" d="M 409 0 
L 409 4581 
L 972 4581 
L 972 0 
L 409 0 
z
" transform="scale(0.015625)"/>
      </defs>
      <use xlink:href="#ArialMT-50"/>
      <use xlink:href="#ArialMT-72" x="66.699219"/>
      <use xlink:href="#ArialMT-6f" x="100"/>
      <use xlink:href="#ArialMT-62" x="155.615234"/>
      <use xlink:href="#ArialMT-61" x="211.230469"/>
      <use xlink:href="#ArialMT-62" x="266.845703"/>
      <use xlink:href="#ArialMT-69" x="322.460938"/>
      <use xlink:href="#ArialMT-6c" x="344.677734"/>
      <use xlink:href="#ArialMT-69" x="366.894531"/>
      <use xlink:href="#ArialMT-74" x="389.111328"/>
      <use xlink:href="#ArialMT-79" x="416.894531"/>
     </g>
    </g>
   </g>
  </g>
 </g>
 <defs>
  <clipPath id="p06934764ff">
   <rect x="48.597969" y="7.2" width="477.07" height="250.36"/>
  </clipPath>
 </defs>
</svg>
