<svg xmlns="http://www.w3.org/2000/svg" xmlns:xlink="http://www.w3.org/1999/xlink" xmlns:inkscape="http://www.inkscape.org/namespaces/inkscape" version="1.1" width="917.2943" height="412.91" viewBox="0 0 917.2943 412.91">
<defs>
<clipPath id="clip_1">
<path transform="matrix(1,0,0,-1,0,412.91)" d="M47.080625 236.605H915.8543V411.47H47.080625Z"/>
</clipPath>
<clipPath id="clip_2">
<path transform="matrix(1,0,0,-1,0,412.91)" d="M47.080625 236.605H915.8543V411.47H47.080625Z"/>
</clipPath>
<clipPath id="clip_3">
<path transform="matrix(1,0,0,-1,0,412.91)" d="M47.080625 236.605H915.8543V411.47H47.080625Z"/>
</clipPath>
<clipPath id="clip_4">
<path transform="matrix(1,0,0,-1,0,412.91)" d="M47.080625 236.605H915.8543V411.47H47.080625Z"/>
</clipPath>
<clipPath id="clip_5">
<path transform="matrix(1,0,0,-1,0,412.91)" d="M47.080625 236.605H915.8543V411.47H47.080625Z"/>
</clipPath>
<clipPath id="clip_6">
<path transform="matrix(1,0,0,-1,0,412.91)" d="M47.080625 236.605H915.8543V411.47H47.080625Z"/>
</clipPath>
<clipPath id="clip_7">
<path transform="matrix(1,0,0,-1,0,412.91)" d="M47.080625 236.605H915.8543V411.47H47.080625Z"/>
</clipPath>
<clipPath id="clip_8">
<path transform="matrix(1,0,0,-1,0,412.91)" d="M47.080625 236.605H915.8543V411.47H47.080625Z"/>
</clipPath>
<clipPath id="clip_9">
<path transform="matrix(1,0,0,-1,0,412.91)" d="M47.080625 236.605H915.8543V411.47H47.080625Z"/>
</clipPath>
<clipPath id="clip_10">
<path transform="matrix(1,0,0,-1,0,412.91)" d="M47.080625 236.605H915.8543V411.47H47.080625Z"/>
</clipPath>
<clipPath id="clip_11">
<path transform="matrix(1,0,0,-1,0,412.91)" d="M47.080625 236.605H915.8543V411.47H47.080625Z"/>
</clipPath>
<clipPath id="clip_12">
<path transform="matrix(1,0,0,-1,0,412.91)" d="M47.080625 47.44H915.8543V222.30501H47.080625Z"/>
</clipPath>
<clipPath id="clip_13">
<path transform="matrix(1,0,0,-1,0,412.91)" d="M47.080625 47.44H915.8543V222.30501H47.080625Z"/>
</clipPath>
<clipPath id="clip_14">
<path transform="matrix(1,0,0,-1,0,412.91)" d="M47.080625 47.44H915.8543V222.30501H47.080625Z"/>
</clipPath>
<clipPath id="clip_15">
<path transform="matrix(1,0,0,-1,0,412.91)" d="M47.080625 47.44H915.8543V222.30501H47.080625Z"/>
</clipPath>
<clipPath id="clip_16">
<path transform="matrix(1,0,0,-1,0,412.91)" d="M47.080625 47.44H915.8543V222.30501H47.080625Z"/>
</clipPath>
<clipPath id="clip_17">
<path transform="matrix(1,0,0,-1,0,412.91)" d="M47.080625 47.44H915.8543V222.30501H47.080625Z"/>
</clipPath>
<clipPath id="clip_18">
<path transform="matrix(1,0,0,-1,0,412.91)" d="M47.080625 47.44H915.8543V222.30501H47.080625Z"/>
</clipPath>
<clipPath id="clip_19">
<path transform="matrix(1,0,0,-1,0,412.91)" d="M47.080625 47.44H915.8543V222.30501H47.080625Z"/>
</clipPath>
<clipPath id="clip_20">
<path transform="matrix(1,0,0,-1,0,412.91)" d="M47.080625 47.44H915.8543V222.30501H47.080625Z"/>
</clipPath>
<clipPath id="clip_21">
<path transform="matrix(1,0,0,-1,0,412.91)" d="M47.080625 47.44H915.8543V222.30501H47.080625Z"/>
</clipPath>
<clipPath id="clip_22">
<path transform="matrix(1,0,0,-1,0,412.91)" d="M47.080625 47.44H915.8543V222.30501H47.080625Z"/>
</clipPath>
<clipPath id="clip_23">
<path transform="matrix(1,0,0,-1,0,412.91)" d="M47.080625 47.44H915.8543V222.30501H47.080625Z"/>
</clipPath>
</defs>
<path transform="matrix(1,0,0,-1,0,412.91)" d="M0 0H917.2943V412.91H0Z" fill="#ffffff"/>
<path transform="matrix(1,0,0,-1,0,412.91)" d="M47.080625 236.605H915.8543V411.47H47.080625Z" fill="#ffffff"/>
<g clip-path="url(#clip_1)">
<path transform="matrix(1,0,0,-1,0,412.91)" stroke-width=".8" stroke-linecap="butt" stroke-dasharray="2.96,1.28" stroke-linejoin="round" fill="none" stroke="#b0b0b0" stroke-opacity=".25" d="M86.570339 236.605V411.47"/>
</g>
<path transform="matrix(1,0,0,-1,0,412.91)" d="M86.570339 236.605V233.105"/>
<path transform="matrix(1,0,0,-1,0,412.91)" stroke-width=".8" stroke-linecap="butt" stroke-linejoin="round" fill="none" stroke="#000000" d="M86.570339 236.605V233.105"/>
<g clip-path="url(#clip_2)">
<path transform="matrix(1,0,0,-1,0,412.91)" stroke-width=".8" stroke-linecap="butt" stroke-dasharray="2.96,1.28" stroke-linejoin="round" fill="none" stroke="#b0b0b0" stroke-opacity=".25" d="M265.25685 236.605V411.47"/>
</g>
<path transform="matrix(1,0,0,-1,0,412.91)" d="M265.25685 236.605V233.105"/>
<path transform="matrix(1,0,0,-1,0,412.91)" stroke-width=".8" stroke-linecap="butt" stroke-linejoin="round" fill="none" stroke="#000000" d="M265.25685 236.605V233.105"/>
<g clip-path="url(#clip_3)">
<path transform="matrix(1,0,0,-1,0,412.91)" stroke-width=".8" stroke-linecap="butt" stroke-dasharray="2.96,1.28" stroke-linejoin="round" fill="none" stroke="#b0b0b0" stroke-opacity=".25" d="M443.94334 236.605V411.47"/>
</g>
<path transform="matrix(1,0,0,-1,0,412.91)" d="M443.94334 236.605V233.105"/>
<path transform="matrix(1,0,0,-1,0,412.91)" stroke-width=".8" stroke-linecap="butt" stroke-linejoin="round" fill="none" stroke="#000000" d="M443.94334 236.605V233.105"/>
<g clip-path="url(#clip_4)">
<path transform="matrix(1,0,0,-1,0,412.91)" stroke-width=".8" stroke-linecap="butt" stroke-dasharray="2.96,1.28" stroke-linejoin="round" fill="none" stroke="#b0b0b0" stroke-opacity=".25" d="M622.6298 236.605V411.47"/>
</g>
<path transform="matrix(1,0,0,-1,0,412.91)" d="M622.6298 236.605V233.105"/>
<path transform="matrix(1,0,0,-1,0,412.91)" stroke-width=".8" stroke-linecap="butt" stroke-linejoin="round" fill="none" stroke="#000000" d="M622.6298 236.605V233.105"/>
<g clip-path="url(#clip_5)">
<path transform="matrix(1,0,0,-1,0,412.91)" stroke-width=".8" stroke-linecap="butt" stroke-dasharray="2.96,1.28" stroke-linejoin="round" fill="none" stroke="#b0b0b0" stroke-opacity=".25" d="M801.3163 236.605V411.47"/>
</g>
<path transform="matrix(1,0,0,-1,0,412.91)" d="M801.3163 236.605V233.105"/>
<path transform="matrix(1,0,0,-1,0,412.91)" stroke-width=".8" stroke-linecap="butt" stroke-linejoin="round" fill="none" stroke="#000000" d="M801.3163 236.605V233.105"/>
<g clip-path="url(#clip_6)">
<path transform="matrix(1,0,0,-1,0,412.91)" stroke-width=".8" stroke-linecap="butt" stroke-dasharray="2.96,1.28" stroke-linejoin="round" fill="none" stroke="#b0b0b0" stroke-opacity=".25" d="M47.080625 244.5534H915.8543"/>
</g>
<path transform="matrix(1,0,0,-1,0,412.91)" d="M47.080625 244.5534H43.580625"/>
<path transform="matrix(1,0,0,-1,0,412.91)" stroke-width=".8" stroke-linecap="butt" stroke-linejoin="round" fill="none" stroke="#000000" d="M47.080625 244.5534H43.580625"/>
<text xml:space="preserve" transform="matrix(1 0 -0 1 20.080626 173.36441)" font-size="14" font-family="ArialMT"><tspan y="-.9375" x="0 7.786133 11.675781">0.0</tspan></text>
<g clip-path="url(#clip_7)">
<path transform="matrix(1,0,0,-1,0,412.91)" stroke-width=".8" stroke-linecap="butt" stroke-dasharray="2.96,1.28" stroke-linejoin="round" fill="none" stroke="#b0b0b0" stroke-opacity=".25" d="M47.080625 279.77183H915.8543"/>
</g>
<path transform="matrix(1,0,0,-1,0,412.91)" d="M47.080625 279.77183H43.580625"/>
<path transform="matrix(1,0,0,-1,0,412.91)" stroke-width=".8" stroke-linecap="butt" stroke-linejoin="round" fill="none" stroke="#000000" d="M47.080625 279.77183H43.580625"/>
<text xml:space="preserve" transform="matrix(1 0 -0 1 20.080626 138.146)" font-size="14" font-family="ArialMT"><tspan y="-.9375" x="0 7.786133 11.675781">0.1</tspan></text>
<g clip-path="url(#clip_8)">
<path transform="matrix(1,0,0,-1,0,412.91)" stroke-width=".8" stroke-linecap="butt" stroke-dasharray="2.96,1.28" stroke-linejoin="round" fill="none" stroke="#b0b0b0" stroke-opacity=".25" d="M47.080625 314.9902H915.8543"/>
</g>
<path transform="matrix(1,0,0,-1,0,412.91)" d="M47.080625 314.9902H43.580625"/>
<path transform="matrix(1,0,0,-1,0,412.91)" stroke-width=".8" stroke-linecap="butt" stroke-linejoin="round" fill="none" stroke="#000000" d="M47.080625 314.9902H43.580625"/>
<text xml:space="preserve" transform="matrix(1 0 -0 1 20.080626 102.92761)" font-size="14" font-family="ArialMT"><tspan y="-.9375" x="0 7.786133 11.675781">0.2</tspan></text>
<g clip-path="url(#clip_9)">
<path transform="matrix(1,0,0,-1,0,412.91)" stroke-width=".8" stroke-linecap="butt" stroke-dasharray="2.96,1.28" stroke-linejoin="round" fill="none" stroke="#b0b0b0" stroke-opacity=".25" d="M47.080625 350.20863H915.8543"/>
</g>
<path transform="matrix(1,0,0,-1,0,412.91)" d="M47.080625 350.20863H43.580625"/>
<path transform="matrix(1,0,0,-1,0,412.91)" stroke-width=".8" stroke-linecap="butt" stroke-linejoin="round" fill="none" stroke="#000000" d="M47.080625 350.20863H43.580625"/>
<text xml:space="preserve" transform="matrix(1 0 -0 1 20.080626 67.7092)" font-size="14" font-family="ArialMT"><tspan y="-.9375" x="0 7.786133 11.675781">0.3</tspan></text>
<g clip-path="url(#clip_10)">
<path transform="matrix(1,0,0,-1,0,412.91)" stroke-width=".8" stroke-linecap="butt" stroke-dasharray="2.96,1.28" stroke-linejoin="round" fill="none" stroke="#b0b0b0" stroke-opacity=".25" d="M47.080625 385.42704H915.8543"/>
</g>
<path transform="matrix(1,0,0,-1,0,412.91)" d="M47.080625 385.42704H43.580625"/>
<path transform="matrix(1,0,0,-1,0,412.91)" stroke-width=".8" stroke-linecap="butt" stroke-linejoin="round" fill="none" stroke="#000000" d="M47.080625 385.42704H43.580625"/>
<text xml:space="preserve" transform="matrix(1 0 -0 1 20.080626 32.490785)" font-size="14" font-family="ArialMT"><tspan y="-.9375" x="0 7.786133 11.675781">0.4</tspan></text>
<text xml:space="preserve" transform="matrix(0 -1 1 0 12.893125 127.57562)" font-size="16" font-family="ArialMT"><tspan y="0" x="0 11.552001 20.448002 28.448002 32.000005 40.896005 49.792005 60.464006 64.01601">CosineSim</tspan></text>
<g clip-path="url(#clip_11)">
<path transform="matrix(1,0,0,-1,0,412.91)" stroke-width="2.2" stroke-linecap="square" stroke-linejoin="round" fill="none" stroke="#008000" d="M86.570339 403.52159 90.144069 249.32245 93.7178 244.69649 97.29153 244.5577 100.86526 275.2992 104.43899 335.9515 108.01272 260.94895 111.58645 293.84776 115.16018 246.66617 118.73391 244.61687 125.88137 244.5535 133.02883 244.5534 136.60256 245.15001 140.17629 244.5713 161.61867 244.5534 165.1924 275.3396 168.76613 246.1651 172.33986 244.60176 183.06105 244.5534H200.92969L204.50342 244.76633 208.07715 244.79875 211.65088 244.56078 240.24073 244.5534 243.81446 273.71614 247.38819 245.43749 250.96192 244.57993 268.83058 244.5534H322.4365L326.01023 272.6018 329.58396 283.5049 333.15769 246.35588 336.7314 244.60749 347.4526 244.55344 397.48484 244.5534 401.05857 248.42519 404.6323 244.66956 411.77976 244.55352 572.5976 244.5534 576.1713 261.82188 579.74508 288.7564 583.3188 246.51343 586.8925 257.9227 590.46627 244.95449 594.04 244.56545 597.6137 244.5538 601.18746 246.2175 604.76119 276.41365 608.3349 246.14316 611.9086 244.60112 622.6298 244.55356 783.44766 244.64037 787.02139 244.74895 790.5951 244.55928 862.0697 244.55342 865.64346 285.1856 869.21719 308.8935 872.7909 247.11754 876.3646 244.63034"/>
</g>
<path transform="matrix(1,0,0,-1,0,412.91)" stroke-width=".8" stroke-linecap="square" stroke-miterlimit="10" stroke-linejoin="miter" fill="none" stroke="#000000" d="M47.080625 236.605V411.47"/>
<path transform="matrix(1,0,0,-1,0,412.91)" stroke-width=".8" stroke-linecap="square" stroke-miterlimit="10" stroke-linejoin="miter" fill="none" stroke="#000000" d="M915.8543 236.605V411.47"/>
<path transform="matrix(1,0,0,-1,0,412.91)" stroke-width=".8" stroke-linecap="square" stroke-miterlimit="10" stroke-linejoin="miter" fill="none" stroke="#000000" d="M47.080625 236.605H915.8543"/>
<path transform="matrix(1,0,0,-1,0,412.91)" stroke-width=".8" stroke-linecap="square" stroke-miterlimit="10" stroke-linejoin="miter" fill="none" stroke="#000000" d="M47.080625 411.47H915.8543"/>
<path transform="matrix(1,0,0,-1,0,412.91)" d="M47.080625 47.44H915.8543V222.305H47.080625Z" fill="#ffffff"/>
<g clip-path="url(#clip_12)">
<path transform="matrix(1,0,0,-1,0,412.91)" stroke-width=".8" stroke-linecap="butt" stroke-dasharray="2.96,1.28" stroke-linejoin="round" fill="none" stroke="#b0b0b0" stroke-opacity=".25" d="M86.570339 47.44V222.305"/>
</g>
<path transform="matrix(1,0,0,-1,0,412.91)" d="M86.570339 47.44V43.94"/>
<path transform="matrix(1,0,0,-1,0,412.91)" stroke-width=".8" stroke-linecap="butt" stroke-linejoin="round" fill="none" stroke="#000000" d="M86.570339 47.44V43.94"/>
<text xml:space="preserve" transform="matrix(1 0 -0 1 81.56252 385.36064)" font-size="18" font-family="ArialMT"><tspan y="0" x="0">0</tspan></text>
<g clip-path="url(#clip_13)">
<path transform="matrix(1,0,0,-1,0,412.91)" stroke-width=".8" stroke-linecap="butt" stroke-dasharray="2.96,1.28" stroke-linejoin="round" fill="none" stroke="#b0b0b0" stroke-opacity=".25" d="M265.25685 47.44V222.305"/>
</g>
<path transform="matrix(1,0,0,-1,0,412.91)" d="M265.25685 47.44V43.94"/>
<path transform="matrix(1,0,0,-1,0,412.91)" stroke-width=".8" stroke-linecap="butt" stroke-linejoin="round" fill="none" stroke="#000000" d="M265.25685 47.44V43.94"/>
<text xml:space="preserve" transform="matrix(1 0 -0 1 255.2412 385.36064)" font-size="18" font-family="ArialMT"><tspan y="0" x="0 10.008001">50</tspan></text>
<g clip-path="url(#clip_14)">
<path transform="matrix(1,0,0,-1,0,412.91)" stroke-width=".8" stroke-linecap="butt" stroke-dasharray="2.96,1.28" stroke-linejoin="round" fill="none" stroke="#b0b0b0" stroke-opacity=".25" d="M443.94334 47.44V222.305"/>
</g>
<path transform="matrix(1,0,0,-1,0,412.91)" d="M443.94334 47.44V43.94"/>
<path transform="matrix(1,0,0,-1,0,412.91)" stroke-width=".8" stroke-linecap="butt" stroke-linejoin="round" fill="none" stroke="#000000" d="M443.94334 47.44V43.94"/>
<text xml:space="preserve" transform="matrix(1 0 -0 1 428.9199 385.36064)" font-size="18" font-family="ArialMT"><tspan y="0" x="0 10.008001 20.016003">100</tspan></text>
<g clip-path="url(#clip_15)">
<path transform="matrix(1,0,0,-1,0,412.91)" stroke-width=".8" stroke-linecap="butt" stroke-dasharray="2.96,1.28" stroke-linejoin="round" fill="none" stroke="#b0b0b0" stroke-opacity=".25" d="M622.6298 47.44V222.305"/>
</g>
<path transform="matrix(1,0,0,-1,0,412.91)" d="M622.6298 47.44V43.94"/>
<path transform="matrix(1,0,0,-1,0,412.91)" stroke-width=".8" stroke-linecap="butt" stroke-linejoin="round" fill="none" stroke="#000000" d="M622.6298 47.44V43.94"/>
<text xml:space="preserve" transform="matrix(1 0 -0 1 607.6064 385.36064)" font-size="18" font-family="ArialMT"><tspan y="0" x="0 10.008001 20.016003">150</tspan></text>
<g clip-path="url(#clip_16)">
<path transform="matrix(1,0,0,-1,0,412.91)" stroke-width=".8" stroke-linecap="butt" stroke-dasharray="2.96,1.28" stroke-linejoin="round" fill="none" stroke="#b0b0b0" stroke-opacity=".25" d="M801.3163 47.44V222.305"/>
</g>
<path transform="matrix(1,0,0,-1,0,412.91)" d="M801.3163 47.44V43.94"/>
<path transform="matrix(1,0,0,-1,0,412.91)" stroke-width=".8" stroke-linecap="butt" stroke-linejoin="round" fill="none" stroke="#000000" d="M801.3163 47.44V43.94"/>
<text xml:space="preserve" transform="matrix(1 0 -0 1 786.29287 385.36064)" font-size="18" font-family="ArialMT"><tspan y="0" x="0 10.008001 20.016003">200</tspan></text>
<text xml:space="preserve" transform="matrix(1 0 -0 1 408.62373 407.50126)" font-size="20" font-family="ArialMT"><tspan y="0" x="0 15.560001 26.680003 37.800004 48.920007 55.580007 66.700008 72.26 76.700008 87.82001 98.94001 104.50001 117.84001 123.40001 134.52">Generation Step</tspan></text>
<g clip-path="url(#clip_17)">
<path transform="matrix(1,0,0,-1,0,412.91)" stroke-width=".8" stroke-linecap="butt" stroke-dasharray="2.96,1.28" stroke-linejoin="round" fill="none" stroke="#b0b0b0" stroke-opacity=".25" d="M47.080625 55.38841H915.8543"/>
</g>
<path transform="matrix(1,0,0,-1,0,412.91)" d="M47.080625 55.38841H43.580625"/>
<path transform="matrix(1,0,0,-1,0,412.91)" stroke-width=".8" stroke-linecap="butt" stroke-linejoin="round" fill="none" stroke="#000000" d="M47.080625 55.38841H43.580625"/>
<text xml:space="preserve" transform="matrix(1 0 -0 1 32.299375 362.52943)" font-size="14" font-family="ArialMT"><tspan y="0" x="0">0</tspan></text>
<g clip-path="url(#clip_18)">
<path transform="matrix(1,0,0,-1,0,412.91)" stroke-width=".8" stroke-linecap="butt" stroke-dasharray="2.96,1.28" stroke-linejoin="round" fill="none" stroke="#b0b0b0" stroke-opacity=".25" d="M47.080625 88.75893H915.8543"/>
</g>
<path transform="matrix(1,0,0,-1,0,412.91)" d="M47.080625 88.75893H43.580625"/>
<path transform="matrix(1,0,0,-1,0,412.91)" stroke-width=".8" stroke-linecap="butt" stroke-linejoin="round" fill="none" stroke="#000000" d="M47.080625 88.75893H43.580625"/>
<text xml:space="preserve" transform="matrix(1 0 -0 1 24.518126 329.15888)" font-size="14" font-family="ArialMT"><tspan y="0" x="0 7.784001">10</tspan></text>
<g clip-path="url(#clip_19)">
<path transform="matrix(1,0,0,-1,0,412.91)" stroke-width=".8" stroke-linecap="butt" stroke-dasharray="2.96,1.28" stroke-linejoin="round" fill="none" stroke="#b0b0b0" stroke-opacity=".25" d="M47.080625 122.12944H915.8543"/>
</g>
<path transform="matrix(1,0,0,-1,0,412.91)" d="M47.080625 122.12944H43.580625"/>
<path transform="matrix(1,0,0,-1,0,412.91)" stroke-width=".8" stroke-linecap="butt" stroke-linejoin="round" fill="none" stroke="#000000" d="M47.080625 122.12944H43.580625"/>
<text xml:space="preserve" transform="matrix(1 0 -0 1 24.518126 295.7884)" font-size="14" font-family="ArialMT"><tspan y="0" x="0 7.784001">20</tspan></text>
<g clip-path="url(#clip_20)">
<path transform="matrix(1,0,0,-1,0,412.91)" stroke-width=".8" stroke-linecap="butt" stroke-dasharray="2.96,1.28" stroke-linejoin="round" fill="none" stroke="#b0b0b0" stroke-opacity=".25" d="M47.080625 155.49996H915.8543"/>
</g>
<path transform="matrix(1,0,0,-1,0,412.91)" d="M47.080625 155.49996H43.580625"/>
<path transform="matrix(1,0,0,-1,0,412.91)" stroke-width=".8" stroke-linecap="butt" stroke-linejoin="round" fill="none" stroke="#000000" d="M47.080625 155.49996H43.580625"/>
<text xml:space="preserve" transform="matrix(1 0 -0 1 24.518126 262.41786)" font-size="14" font-family="ArialMT"><tspan y="0" x="0 7.784001">30</tspan></text>
<g clip-path="url(#clip_21)">
<path transform="matrix(1,0,0,-1,0,412.91)" stroke-width=".8" stroke-linecap="butt" stroke-dasharray="2.96,1.28" stroke-linejoin="round" fill="none" stroke="#b0b0b0" stroke-opacity=".25" d="M47.080625 188.87047H915.8543"/>
</g>
<path transform="matrix(1,0,0,-1,0,412.91)" d="M47.080625 188.87047H43.580625"/>
<path transform="matrix(1,0,0,-1,0,412.91)" stroke-width=".8" stroke-linecap="butt" stroke-linejoin="round" fill="none" stroke="#000000" d="M47.080625 188.87047H43.580625"/>
<text xml:space="preserve" transform="matrix(1 0 -0 1 24.518126 229.04735)" font-size="14" font-family="ArialMT"><tspan y="0" x="0 7.784001">40</tspan></text>
<g clip-path="url(#clip_22)">
<path transform="matrix(1,0,0,-1,0,412.91)" stroke-width=".8" stroke-linecap="butt" stroke-dasharray="2.96,1.28" stroke-linejoin="round" fill="none" stroke="#b0b0b0" stroke-opacity=".25" d="M47.080625 222.24098H915.8543"/>
</g>
<path transform="matrix(1,0,0,-1,0,412.91)" d="M47.080625 222.24098H43.580625"/>
<path transform="matrix(1,0,0,-1,0,412.91)" stroke-width=".8" stroke-linecap="butt" stroke-linejoin="round" fill="none" stroke="#000000" d="M47.080625 222.24098H43.580625"/>
<text xml:space="preserve" transform="matrix(1 0 -0 1 24.518126 195.67684)" font-size="14" font-family="ArialMT"><tspan y="0" x="0 7.784001">50</tspan></text>
<text xml:space="preserve" transform="matrix(0 -1 1 0 17.143126 330.23283)" font-size="16" font-family="ArialMT"><tspan y="0" x="0 10.672001 18.97425 23.42225 34.97425 38.526254 46.526254 55.422254 60.75025 69.646259 78.54226 87.43826 95.43826">KL Divergence</tspan></text>
<g clip-path="url(#clip_23)">
<path transform="matrix(1,0,0,-1,0,412.91)" stroke-width="2.2" stroke-linecap="square" stroke-linejoin="round" fill="none" stroke="#ff0000" d="M86.570339 57.39314 90.144069 177.8063 93.7178 122.86117 97.29153 210.39638 100.86526 55.388479 104.43899 55.38841 108.01272 64.86206 111.58645 64.40444 115.16018 127.680698 118.73391 107.76578 122.30764 100.46465 125.88137 146.01764 129.4551 140.02629 133.02883 128.6972 136.60256 78.17391 140.17629 133.92687 143.75002 132.32778 147.32375 105.663417 150.89748 149.28757 154.4712 165.90796 158.04494 140.41445 161.61867 121.96247 165.1924 62.96528 168.76613 84.73946 172.33986 167.69202 175.91359 146.2866 179.48732 131.87871 183.06105 149.24127 186.63477 181.96527 190.2085 168.05107 193.78223 149.57454 197.35596 145.66323 200.92969 148.51079 204.50342 80.08666 208.07715 80.1832 211.65088 182.68898 215.22461 172.16449 218.79834 174.83969 222.37207 149.6507 225.9458 182.4355 229.51953 173.17154 233.09326 158.24546 236.66699 211.00704 240.24073 164.73079 243.81446 65.99808 247.38819 90.511928 250.96192 214.3566 254.53565 209.07343 258.10939 204.91092 261.6831 185.73696 265.25685 209.42996 268.83058 197.9683 272.4043 176.01749 275.97804 168.40537 279.55177 156.23181 283.1255 165.80467 286.69923 148.98383 290.27296 128.13266 293.84669 179.69797 297.4204 103.82536 300.99415 177.19327 304.56785 193.0805 308.14158 205.55167 311.7153 190.44489 315.28904 167.16745 318.86277 166.52281 322.4365 142.9483 326.01023 64.94319 329.58396 64.29012 333.15769 187.9256 336.7314 145.21599 340.30516 178.01454 343.87889 100.06631 347.4526 124.52198 351.02635 139.89315 354.60008 105.557147 358.1738 148.257 361.74754 179.76226 365.32127 153.56729 368.895 153.26047 376.04246 171.86801 379.61619 189.31291 383.1899 179.86562 386.76365 192.68933 390.33738 173.04178 393.9111 147.48459 397.48484 151.46332 401.05857 72.89374 404.6323 188.78896 408.20603 155.1865 411.77976 156.83922 415.3535 185.3678 418.92723 99.47129 422.50096 172.43636 426.07469 191.64417 429.6484 202.02574 433.22215 149.18099 436.79588 184.21071 440.3696 193.65319 443.94334 131.09413 447.51707 133.90834 451.0908 167.04198 454.66453 175.89041 458.23826 162.64685 461.81196 172.56304 465.38569 136.91413 468.9594 168.93555 472.53315 186.14484 476.10688 99.91182 479.6806 186.60839 483.25434 192.31552 486.82807 117.91264 490.4018 180.61023 493.97554 173.35387 497.54927 206.82668 501.123 183.22509 504.69673 142.14076 508.27046 174.14183 511.84419 181.35124 515.4179 174.88979 518.99166 121.488239 522.56539 131.4783 526.1391 142.83353 529.7128 118.04042 533.28659 148.82263 536.8603 123.38905 540.434 145.99141 544.00778 140.9148 547.5815 175.35558 551.1552 121.944889 554.72897 150.07509 558.3027 104.17194 561.8764 136.80591 565.45016 131.02227 569.02389 152.5969 572.5976 133.96631 576.1713 65.35565 579.74508 64.27312 583.3188 132.83246 586.8925 66.59569 590.46627 128.89946 594.04 120.26928 597.6137 109.078258 601.18746 73.31513 604.76119 59.903608 608.3349 116.983959 611.9086 115.696498 615.48239 152.28893 619.0561 133.46515 622.6298 106.448238 626.20358 154.01253 629.7773 168.24427 633.351 157.93634 636.92477 178.45099 640.4985 134.79746 644.0722 194.28334 647.64596 165.01 651.21969 139.75673 654.7934 160.80294 658.3671 152.77037 661.94088 161.44657 665.5146 156.30872 669.0883 178.43595 672.66207 160.47403 676.2358 176.60868 679.8095 162.16515 683.38327 153.45384 686.957 198.27285 690.5307 182.92179 694.10446 165.64835 697.6781 170.45221 701.25186 176.87273 704.82559 165.2509 708.3993 142.0419 711.973 111.07739 715.54678 140.41614 719.1205 123.05849 722.6942 153.00662 726.26797 131.92618 729.8417 151.03632 733.4154 162.2747 736.98916 177.27562 740.56289 118.81383 744.1366 121.52541 747.7103 85.30223 751.28408 92.15725 754.8578 92.56961 758.4315 123.93108 762.00527 84.1509 765.579 86.40369 769.1527 103.928508 772.72647 131.77109 776.3002 83.94527 779.8739 95.879398 783.44766 83.02946 787.02139 80.42595 790.5951 119.86111 794.1688 128.4894 797.74258 107.8172 801.3163 104.50009 804.89 124.38886 808.46377 137.75177 812.0375 122.56029 815.6112 111.17145 819.18496 172.20159 822.75869 155.953 826.3324 111.96318 829.9061 147.5789 833.47988 111.68747 837.0536 111.70491 840.6273 127.380107 844.20108 137.87874 847.7748 145.31093 851.3485 135.38454 854.92227 106.870159 858.496 173.62493 862.0697 115.10622 865.64346 64.002979 869.21719 62.947664 872.7909 144.97209 876.3646 123.62211"/>
</g>
<path transform="matrix(1,0,0,-1,0,412.91)" stroke-width=".8" stroke-linecap="square" stroke-miterlimit="10" stroke-linejoin="miter" fill="none" stroke="#000000" d="M47.080625 47.44V222.305"/>
<path transform="matrix(1,0,0,-1,0,412.91)" stroke-width=".8" stroke-linecap="square" stroke-miterlimit="10" stroke-linejoin="miter" fill="none" stroke="#000000" d="M915.8543 47.44V222.305"/>
<path transform="matrix(1,0,0,-1,0,412.91)" stroke-width=".8" stroke-linecap="square" stroke-miterlimit="10" stroke-linejoin="miter" fill="none" stroke="#000000" d="M47.080625 47.44H915.8543"/>
<path transform="matrix(1,0,0,-1,0,412.91)" stroke-width=".8" stroke-linecap="square" stroke-miterlimit="10" stroke-linejoin="miter" fill="none" stroke="#000000" d="M47.080625 222.305H915.8543"/>
</svg>
