<svg xmlns="http://www.w3.org/2000/svg" xmlns:xlink="http://www.w3.org/1999/xlink" xmlns:inkscape="http://www.inkscape.org/namespaces/inkscape" version="1.1" width="550.0106" height="280.32237" viewBox="0 0 550.0106 280.32237">
<defs>
<clipPath id="clip_1">
<path transform="matrix(1,0,0,-1,0,280.32237)" d="M32.080625 36.393125H548.5706V267.2886H32.080625Z"/>
</clipPath>
<clipPath id="clip_2">
<path transform="matrix(1,0,0,-1,0,280.32237)" d="M32.080625 36.393125H548.5706V267.2886H32.080625Z"/>
</clipPath>
<clipPath id="clip_3">
<path transform="matrix(1,0,0,-1,0,280.32237)" d="M32.080625 36.393125H548.5706V267.2886H32.080625Z"/>
</clipPath>
<clipPath id="clip_4">
<path transform="matrix(1,0,0,-1,0,280.32237)" d="M32.080625 36.393125H548.5706V267.2886H32.080625Z"/>
</clipPath>
<clipPath id="clip_5">
<path transform="matrix(1,0,0,-1,0,280.32237)" d="M32.080625 36.393125H548.5706V267.2886H32.080625Z"/>
</clipPath>
<clipPath id="clip_6">
<path transform="matrix(1,0,0,-1,0,280.32237)" d="M32.080625 36.393125H548.5706V267.2886H32.080625Z"/>
</clipPath>
<clipPath id="clip_7">
<path transform="matrix(1,0,0,-1,0,280.32237)" d="M32.080625 36.393125H548.5706V267.2886H32.080625Z"/>
</clipPath>
<clipPath id="clip_8">
<path transform="matrix(1,0,0,-1,0,280.32237)" d="M32.080625 36.393125H548.5706V267.2886H32.080625Z"/>
</clipPath>
<clipPath id="clip_9">
<path transform="matrix(1,0,0,-1,0,280.32237)" d="M32.080625 36.393125H548.5706V267.2886H32.080625Z"/>
</clipPath>
<clipPath id="clip_10">
<path transform="matrix(1,0,0,-1,0,280.32237)" d="M32.080625 36.393125H548.5706V267.2886H32.080625Z"/>
</clipPath>
<clipPath id="clip_11">
<path transform="matrix(1,0,0,-1,0,280.32237)" d="M32.080625 36.393125H548.5706V267.2886H32.080625Z"/>
</clipPath>
<clipPath id="clip_12">
<path transform="matrix(1,0,0,-1,0,280.32237)" d="M32.080625 36.393125H548.5706V267.2886H32.080625Z"/>
</clipPath>
<clipPath id="clip_13">
<path transform="matrix(1,0,0,-1,0,280.32237)" d="M32.080625 36.393125H548.5706V267.2886H32.080625Z"/>
</clipPath>
<clipPath id="clip_14">
<path transform="matrix(1,0,0,-1,0,280.32237)" d="M32.080625 36.393125H548.5706V267.2886H32.080625Z"/>
</clipPath>
<clipPath id="clip_15">
<path transform="matrix(1,0,0,-1,0,280.32237)" d="M32.080625 36.393125H548.5706V267.2886H32.080625Z"/>
</clipPath>
<clipPath id="clip_16">
<path transform="matrix(1,0,0,-1,0,280.32237)" d="M32.080625 36.393125H548.5706V267.2886H32.080625Z"/>
</clipPath>
<clipPath id="clip_17">
<path transform="matrix(1,0,0,-1,0,280.32237)" d="M32.080625 36.393125H548.5706V267.2886H32.080625Z"/>
</clipPath>
<clipPath id="clip_18">
<path transform="matrix(1,0,0,-1,0,280.32237)" d="M32.080625 36.393125H548.5706V267.2886H32.080625Z"/>
</clipPath>
<clipPath id="clip_19">
<path transform="matrix(.012,0,0,-.012,45.42828,10.033752)" d="M-665-325H2000V1006H-665Z"/>
</clipPath>
<clipPath id="clip_20">
<path transform="matrix(1,0,0,-1,0,280.32237)" d="M32.080625 36.393125H548.5706V267.2886H32.080625Z"/>
</clipPath>
<clipPath id="clip_21">
<path transform="matrix(1,0,0,-1,0,280.32237)" d="M32.080625 36.393125H548.5706V267.2886H32.080625Z"/>
</clipPath>
</defs>
<path transform="matrix(1,0,0,-1,0,280.32237)" d="M0 0H550.0106V280.32237H0Z" fill="#ffffff"/>
<path transform="matrix(1,0,0,-1,0,280.32237)" d="M32.080625 36.393125H548.5706V267.2886H32.080625Z" fill="#ffffff"/>
<g clip-path="url(#clip_1)">
<path transform="matrix(1,0,0,-1,0,280.32237)" stroke-width=".8" stroke-linecap="square" stroke-linejoin="round" fill="none" stroke="#b0b0b0" stroke-opacity=".35" d="M53.244459 36.393125V267.2886"/>
</g>
<path transform="matrix(1,0,0,-1,0,280.32237)" d="M53.244459 36.393125V32.893125"/>
<path transform="matrix(1,0,0,-1,0,280.32237)" stroke-width=".8" stroke-linecap="butt" stroke-linejoin="round" fill="none" stroke="#000000" d="M53.244459 36.393125V32.893125"/>
<text xml:space="preserve" transform="matrix(1 0 -0 1 49.90852 259.52299)" font-size="12" font-family="ArialMT"><tspan y="0" x="0">0</tspan></text>
<g clip-path="url(#clip_2)">
<path transform="matrix(1,0,0,-1,0,280.32237)" stroke-width=".8" stroke-linecap="square" stroke-linejoin="round" fill="none" stroke="#b0b0b0" stroke-opacity=".35" d="M111.06913 36.393125V267.2886"/>
</g>
<path transform="matrix(1,0,0,-1,0,280.32237)" d="M111.06913 36.393125V32.893125"/>
<path transform="matrix(1,0,0,-1,0,280.32237)" stroke-width=".8" stroke-linecap="butt" stroke-linejoin="round" fill="none" stroke="#000000" d="M111.06913 36.393125V32.893125"/>
<text xml:space="preserve" transform="matrix(1 0 -0 1 104.397258 259.52299)" font-size="12" font-family="ArialMT"><tspan y="0" x="0 6.672001">25</tspan></text>
<g clip-path="url(#clip_3)">
<path transform="matrix(1,0,0,-1,0,280.32237)" stroke-width=".8" stroke-linecap="square" stroke-linejoin="round" fill="none" stroke="#b0b0b0" stroke-opacity=".35" d="M168.89382 36.393125V267.2886"/>
</g>
<path transform="matrix(1,0,0,-1,0,280.32237)" d="M168.89382 36.393125V32.893125"/>
<path transform="matrix(1,0,0,-1,0,280.32237)" stroke-width=".8" stroke-linecap="butt" stroke-linejoin="round" fill="none" stroke="#000000" d="M168.89382 36.393125V32.893125"/>
<text xml:space="preserve" transform="matrix(1 0 -0 1 162.22193 259.52299)" font-size="12" font-family="ArialMT"><tspan y="0" x="0 6.672001">50</tspan></text>
<g clip-path="url(#clip_4)">
<path transform="matrix(1,0,0,-1,0,280.32237)" stroke-width=".8" stroke-linecap="square" stroke-linejoin="round" fill="none" stroke="#b0b0b0" stroke-opacity=".35" d="M226.71848 36.393125V267.2886"/>
</g>
<path transform="matrix(1,0,0,-1,0,280.32237)" d="M226.71848 36.393125V32.893125"/>
<path transform="matrix(1,0,0,-1,0,280.32237)" stroke-width=".8" stroke-linecap="butt" stroke-linejoin="round" fill="none" stroke="#000000" d="M226.71848 36.393125V32.893125"/>
<text xml:space="preserve" transform="matrix(1 0 -0 1 220.0466 259.52299)" font-size="12" font-family="ArialMT"><tspan y="0" x="0 6.672001">75</tspan></text>
<g clip-path="url(#clip_5)">
<path transform="matrix(1,0,0,-1,0,280.32237)" stroke-width=".8" stroke-linecap="square" stroke-linejoin="round" fill="none" stroke="#b0b0b0" stroke-opacity=".35" d="M284.54316 36.393125V267.2886"/>
</g>
<path transform="matrix(1,0,0,-1,0,280.32237)" d="M284.54316 36.393125V32.893125"/>
<path transform="matrix(1,0,0,-1,0,280.32237)" stroke-width=".8" stroke-linecap="butt" stroke-linejoin="round" fill="none" stroke="#000000" d="M284.54316 36.393125V32.893125"/>
<text xml:space="preserve" transform="matrix(1 0 -0 1 274.53535 259.52299)" font-size="12" font-family="ArialMT"><tspan y="0" x="0 6.672001 13.344002">100</tspan></text>
<g clip-path="url(#clip_6)">
<path transform="matrix(1,0,0,-1,0,280.32237)" stroke-width=".8" stroke-linecap="square" stroke-linejoin="round" fill="none" stroke="#b0b0b0" stroke-opacity=".35" d="M342.36784 36.393125V267.2886"/>
</g>
<path transform="matrix(1,0,0,-1,0,280.32237)" d="M342.36784 36.393125V32.893125"/>
<path transform="matrix(1,0,0,-1,0,280.32237)" stroke-width=".8" stroke-linecap="butt" stroke-linejoin="round" fill="none" stroke="#000000" d="M342.36784 36.393125V32.893125"/>
<text xml:space="preserve" transform="matrix(1 0 -0 1 332.36003 259.52299)" font-size="12" font-family="ArialMT"><tspan y="0" x="0 6.672001 13.344002">125</tspan></text>
<g clip-path="url(#clip_7)">
<path transform="matrix(1,0,0,-1,0,280.32237)" stroke-width=".8" stroke-linecap="square" stroke-linejoin="round" fill="none" stroke="#b0b0b0" stroke-opacity=".35" d="M400.1925 36.393125V267.2886"/>
</g>
<path transform="matrix(1,0,0,-1,0,280.32237)" d="M400.1925 36.393125V32.893125"/>
<path transform="matrix(1,0,0,-1,0,280.32237)" stroke-width=".8" stroke-linecap="butt" stroke-linejoin="round" fill="none" stroke="#000000" d="M400.1925 36.393125V32.893125"/>
<text xml:space="preserve" transform="matrix(1 0 -0 1 390.1847 259.52299)" font-size="12" font-family="ArialMT"><tspan y="0" x="0 6.672001 13.344002">150</tspan></text>
<g clip-path="url(#clip_8)">
<path transform="matrix(1,0,0,-1,0,280.32237)" stroke-width=".8" stroke-linecap="square" stroke-linejoin="round" fill="none" stroke="#b0b0b0" stroke-opacity=".35" d="M458.01719 36.393125V267.2886"/>
</g>
<path transform="matrix(1,0,0,-1,0,280.32237)" d="M458.01719 36.393125V32.893125"/>
<path transform="matrix(1,0,0,-1,0,280.32237)" stroke-width=".8" stroke-linecap="butt" stroke-linejoin="round" fill="none" stroke="#000000" d="M458.01719 36.393125V32.893125"/>
<text xml:space="preserve" transform="matrix(1 0 -0 1 448.00938 259.52299)" font-size="12" font-family="ArialMT"><tspan y="0" x="0 6.672001 13.344002">175</tspan></text>
<g clip-path="url(#clip_9)">
<path transform="matrix(1,0,0,-1,0,280.32237)" stroke-width=".8" stroke-linecap="square" stroke-linejoin="round" fill="none" stroke="#b0b0b0" stroke-opacity=".35" d="M515.84188 36.393125V267.2886"/>
</g>
<path transform="matrix(1,0,0,-1,0,280.32237)" d="M515.84188 36.393125V32.893125"/>
<path transform="matrix(1,0,0,-1,0,280.32237)" stroke-width=".8" stroke-linecap="butt" stroke-linejoin="round" fill="none" stroke="#000000" d="M515.84188 36.393125V32.893125"/>
<text xml:space="preserve" transform="matrix(1 0 -0 1 505.83406 259.52299)" font-size="12" font-family="ArialMT"><tspan y="0" x="0 6.672001 13.344002">200</tspan></text>
<text xml:space="preserve" transform="matrix(1 0 -0 1 239.36469 276.1011)" font-size="14" font-family="ArialMT"><tspan y="0" x="0 10.892001 18.676003 26.460003 34.244005 38.906003 46.690004 50.582006 53.690008 61.474008 69.25801 73.15001 82.48801 86.380008 94.16401">Generation Step</tspan></text>
<g clip-path="url(#clip_10)">
<path transform="matrix(1,0,0,-1,0,280.32237)" stroke-width=".8" stroke-linecap="square" stroke-linejoin="round" fill="none" stroke="#b0b0b0" stroke-opacity=".35" d="M32.080625 45.012258H548.5706"/>
</g>
<path transform="matrix(1,0,0,-1,0,280.32237)" d="M32.080625 45.012258H28.580626"/>
<path transform="matrix(1,0,0,-1,0,280.32237)" stroke-width=".8" stroke-linecap="butt" stroke-linejoin="round" fill="none" stroke="#000000" d="M32.080625 45.012258H28.580626"/>
<text xml:space="preserve" transform="matrix(1 0 -0 1 18.40875 239.60698)" font-size="12" font-family="ArialMT"><tspan y="0" x="0">0</tspan></text>
<g clip-path="url(#clip_11)">
<path transform="matrix(1,0,0,-1,0,280.32237)" stroke-width=".8" stroke-linecap="square" stroke-linejoin="round" fill="none" stroke="#b0b0b0" stroke-opacity=".35" d="M32.080625 72.753139H548.5706"/>
</g>
<path transform="matrix(1,0,0,-1,0,280.32237)" d="M32.080625 72.753139H28.580626"/>
<path transform="matrix(1,0,0,-1,0,280.32237)" stroke-width=".8" stroke-linecap="butt" stroke-linejoin="round" fill="none" stroke="#000000" d="M32.080625 72.753139H28.580626"/>
<text xml:space="preserve" transform="matrix(1 0 -0 1 18.40875 211.86609)" font-size="12" font-family="ArialMT"><tspan y="0" x="0">1</tspan></text>
<g clip-path="url(#clip_12)">
<path transform="matrix(1,0,0,-1,0,280.32237)" stroke-width=".8" stroke-linecap="square" stroke-linejoin="round" fill="none" stroke="#b0b0b0" stroke-opacity=".35" d="M32.080625 100.49402H548.5706"/>
</g>
<path transform="matrix(1,0,0,-1,0,280.32237)" d="M32.080625 100.49402H28.580626"/>
<path transform="matrix(1,0,0,-1,0,280.32237)" stroke-width=".8" stroke-linecap="butt" stroke-linejoin="round" fill="none" stroke="#000000" d="M32.080625 100.49402H28.580626"/>
<text xml:space="preserve" transform="matrix(1 0 -0 1 18.40875 184.12522)" font-size="12" font-family="ArialMT"><tspan y="0" x="0">2</tspan></text>
<g clip-path="url(#clip_13)">
<path transform="matrix(1,0,0,-1,0,280.32237)" stroke-width=".8" stroke-linecap="square" stroke-linejoin="round" fill="none" stroke="#b0b0b0" stroke-opacity=".35" d="M32.080625 128.2349H548.5706"/>
</g>
<path transform="matrix(1,0,0,-1,0,280.32237)" d="M32.080625 128.2349H28.580626"/>
<path transform="matrix(1,0,0,-1,0,280.32237)" stroke-width=".8" stroke-linecap="butt" stroke-linejoin="round" fill="none" stroke="#000000" d="M32.080625 128.2349H28.580626"/>
<text xml:space="preserve" transform="matrix(1 0 -0 1 18.40875 156.38434)" font-size="12" font-family="ArialMT"><tspan y="0" x="0">3</tspan></text>
<g clip-path="url(#clip_14)">
<path transform="matrix(1,0,0,-1,0,280.32237)" stroke-width=".8" stroke-linecap="square" stroke-linejoin="round" fill="none" stroke="#b0b0b0" stroke-opacity=".35" d="M32.080625 155.97579H548.5706"/>
</g>
<path transform="matrix(1,0,0,-1,0,280.32237)" d="M32.080625 155.97579H28.580626"/>
<path transform="matrix(1,0,0,-1,0,280.32237)" stroke-width=".8" stroke-linecap="butt" stroke-linejoin="round" fill="none" stroke="#000000" d="M32.080625 155.97579H28.580626"/>
<text xml:space="preserve" transform="matrix(1 0 -0 1 18.40875 128.64345)" font-size="12" font-family="ArialMT"><tspan y="0" x="0">4</tspan></text>
<g clip-path="url(#clip_15)">
<path transform="matrix(1,0,0,-1,0,280.32237)" stroke-width=".8" stroke-linecap="square" stroke-linejoin="round" fill="none" stroke="#b0b0b0" stroke-opacity=".35" d="M32.080625 183.71666H548.5706"/>
</g>
<path transform="matrix(1,0,0,-1,0,280.32237)" d="M32.080625 183.71666H28.580626"/>
<path transform="matrix(1,0,0,-1,0,280.32237)" stroke-width=".8" stroke-linecap="butt" stroke-linejoin="round" fill="none" stroke="#000000" d="M32.080625 183.71666H28.580626"/>
<text xml:space="preserve" transform="matrix(1 0 -0 1 18.40875 100.90257)" font-size="12" font-family="ArialMT"><tspan y="0" x="0">5</tspan></text>
<g clip-path="url(#clip_16)">
<path transform="matrix(1,0,0,-1,0,280.32237)" stroke-width=".8" stroke-linecap="square" stroke-linejoin="round" fill="none" stroke="#b0b0b0" stroke-opacity=".35" d="M32.080625 211.45755H548.5706"/>
</g>
<path transform="matrix(1,0,0,-1,0,280.32237)" d="M32.080625 211.45755H28.580626"/>
<path transform="matrix(1,0,0,-1,0,280.32237)" stroke-width=".8" stroke-linecap="butt" stroke-linejoin="round" fill="none" stroke="#000000" d="M32.080625 211.45755H28.580626"/>
<text xml:space="preserve" transform="matrix(1 0 -0 1 18.40875 73.16168)" font-size="12" font-family="ArialMT"><tspan y="0" x="0">6</tspan></text>
<g clip-path="url(#clip_17)">
<path transform="matrix(1,0,0,-1,0,280.32237)" stroke-width=".8" stroke-linecap="square" stroke-linejoin="round" fill="none" stroke="#b0b0b0" stroke-opacity=".35" d="M32.080625 239.19843H548.5706"/>
</g>
<path transform="matrix(1,0,0,-1,0,280.32237)" d="M32.080625 239.19843H28.580626"/>
<path transform="matrix(1,0,0,-1,0,280.32237)" stroke-width=".8" stroke-linecap="butt" stroke-linejoin="round" fill="none" stroke="#000000" d="M32.080625 239.19843H28.580626"/>
<text xml:space="preserve" transform="matrix(1 0 -0 1 18.40875 45.420808)" font-size="12" font-family="ArialMT"><tspan y="0" x="0">7</tspan></text>
<g clip-path="url(#clip_18)">
<path transform="matrix(1,0,0,-1,0,280.32237)" stroke-width=".8" stroke-linecap="square" stroke-linejoin="round" fill="none" stroke="#b0b0b0" stroke-opacity=".35" d="M32.080625 266.9393H548.5706"/>
</g>
<path transform="matrix(1,0,0,-1,0,280.32237)" d="M32.080625 266.9393H28.580626"/>
<path transform="matrix(1,0,0,-1,0,280.32237)" stroke-width=".8" stroke-linecap="butt" stroke-linejoin="round" fill="none" stroke="#000000" d="M32.080625 266.9393H28.580626"/>
<text xml:space="preserve" transform="matrix(1 0 -0 1 18.40875 17.679932)" font-size="12" font-family="ArialMT"><tspan y="0" x="0">8</tspan></text>
<text xml:space="preserve" transform="matrix(0 -1 1 0 11.455625 174.12993)" font-size="14" font-family="ArialMT"><tspan y="0" x="0 9.338001 16.606377 20.498377 30.606377 33.71438 40.71438 48.49838 53.160379 60.944379 68.72838 76.51238 83.51238">KL Divergence</tspan></text>
<text xml:space="preserve" transform="matrix(1 0 -0 1 32.080625 10.033752)" font-size="12" font-family="ArialMT"><tspan y="0" x="0 6.672001 20.355469">1e1</tspan></text>
<g clip-path="url(#clip_19)">
<path transform="matrix(.012,0,0,-.012,45.42828,10.033752)" d="M528 312H56V394H528V312Z"/>
</g>
<g clip-path="url(#clip_20)">
<path transform="matrix(1,0,0,-1,0,280.32237)" stroke-width="2" stroke-linecap="square" stroke-linejoin="round" fill="none" stroke="#1f77b4" stroke-opacity=".85" d="M55.55744 88.7305 57.87043 173.69 60.18342 98.14215 62.496404 52.43461 64.80939 54.53709 67.122379 66.11447 69.43536 69.11825 74.06134 49.91102 76.37433 49.785078 78.68731 109.97613 81.0003 49.82863 83.313289 52.056226 85.626277 59.93796 87.93926 62.09648 90.25225 141.49837 92.56523 52.8829 94.87822 92.40034 97.19121 55.491376 99.504199 50.177057 101.817188 58.444395 104.13017 49.190038 106.44315 71.21685 108.75614 57.22518 111.06913 50.244745 113.38212 124.248538 115.69511 85.758899 118.008098 90.71203 120.32108 52.00629 122.63406 60.798486 124.94705 73.58259 127.26004 81.255168 129.57303 50.713567 131.88602 106.49964 134.199 66.46151 136.512 99.12223 138.82498 67.26904 141.13797 104.75363 143.45095 100.50234 145.76393 64.17205 148.07692 75.592418 150.38991 50.875848 152.7029 51.392663 155.01589 54.09906 157.32888 75.96581 159.64186 66.92007 161.95485 49.34816 164.26784 81.90652 166.58083 89.245098 168.89382 75.92836 171.20679 50.534635 173.51978 56.075044 175.83277 72.43024 178.14575 67.61664 180.45874 48.188867 182.77173 70.171298 185.08472 131.35991 187.3977 116.44447 189.7107 46.903909 192.02368 75.73084 194.33667 47.87706 196.64966 149.05887 198.96263 53.467126 201.27562 55.26168 203.58861 47.75389 205.9016 78.57234 208.21459 50.26527 210.52758 58.542875 212.84056 65.92805 215.15355 76.70677 217.46654 73.83614 219.77953 48.51399 222.09252 79.16378 224.4055 50.388998 226.71848 84.639 229.03147 156.10672 231.34445 153.50823 233.65744 50.858926 235.97043 58.99921 238.28342 49.031915 240.5964 58.234395 242.9094 47.309759 245.22238 58.932355 247.53537 50.00534 249.84836 59.41643 252.16135 51.534139 254.47432 51.579637 256.78733 56.421808 259.1003 48.316198 261.4133 75.13719 263.7263 89.01429 266.03929 61.587438 268.35224 49.296285 270.66523 47.545278 272.9782 48.04323 275.2912 63.34981 277.6042 90.97862 279.91719 86.46962 282.23017 73.31711 284.54316 52.44931 286.85615 160.12471 289.16914 159.8681 291.48213 52.09506 293.7951 59.496606 296.1081 61.724199 298.42109 47.904523 300.73408 62.648248 303.04707 114.59943 305.36006 53.56727 307.67304 90.33947 309.98603 111.3002 312.299 154.45169 314.612 112.22147 316.925 64.02336 319.23799 66.112529 321.55097 50.43643 323.86393 54.720735 326.1769 79.67532 328.4899 83.07746 330.8029 161.71204 333.11589 68.539859 335.42887 60.119665 337.74186 221.28614 340.05485 48.3395 342.36784 58.073778 344.68083 56.26063 346.9938 130.89719 349.3068 65.59932 351.61979 82.559818 353.93278 47.929769 356.24577 139.70909 358.55876 256.79338 360.87174 59.728796 363.18473 66.0809 365.4977 49.70435 367.8107 112.61401 370.1237 73.09213 372.43669 82.83279 374.74967 63.92155 377.06266 113.77857 379.3756 69.57986 381.6886 53.365316 384.0016 108.817119 386.31459 87.68744 388.62757 74.33992 390.94056 161.7434 393.25355 122.35023 395.56654 53.73538 397.87953 89.350788 400.1925 76.36167 402.5055 59.047204 404.81849 93.39957 407.13148 95.1625 409.44447 212.9955 411.75746 78.097148 414.07044 57.044588 416.38343 185.69763 418.6964 100.25267 421.0094 125.18091 423.3224 146.72809 425.63539 62.104528 427.94837 170.02515 430.26136 170.65598 432.57435 148.25855 434.8873 61.997446 437.2003 136.30583 439.51329 113.89287 441.82627 136.95664 444.13926 78.474147 446.45225 116.95102 448.76524 95.61356 451.07823 160.97164 453.3912 170.38718 455.7042 142.51342 460.33018 215.51798 462.64317 135.86281 464.95616 201.36542 467.26914 185.25684 469.58213 69.066379 471.8951 69.78348 474.2081 240.7067 476.5211 132.93033 478.83409 186.60755 481.14707 95.05098 483.46006 176.95038 485.77305 143.61417 488.08604 48.32091 490.399 132.81937 492.71199 73.437229 495.02497 150.12218 497.33796 123.32781 499.65095 53.6086 501.96394 122.712528 504.27693 100.083179 506.5899 123.79636 508.9029 57.59469 511.21589 96.581729 513.5289 57.552248 515.84188 112.83621 518.15487 246.65822 520.46786 183.08168 522.7808 104.045688 525.0938 51.309164"/>
</g>
<g clip-path="url(#clip_21)">
<path transform="matrix(1,0,0,-1,0,280.32237)" stroke-width="2" stroke-linecap="square" stroke-linejoin="round" fill="none" stroke="#ff7f0e" d="M55.55744 89.778827 57.87043 172.94571 60.18342 95.50926 62.496404 52.839349 64.80939 54.541807 67.122379 66.96861 69.43536 66.51255 71.74835 60.495279 74.06134 49.94625 76.37433 49.914907 78.68731 110.08848 81.0003 50.163187 83.313289 52.58829 85.626277 59.719087 87.93926 62.38554 90.25225 145.11856 92.56523 52.70758 94.87822 84.91335 97.19121 55.598733 99.504199 50.162355 101.817188 59.162328 104.13017 49.093774 106.44315 71.184398 108.75614 57.052358 111.06913 50.2367 113.38212 126.73079 115.69511 88.00147 118.008098 90.88874 120.32108 51.6734 122.63406 61.23346 124.94705 74.067508 127.26004 81.28568 129.57303 50.80067 131.88602 109.80885 134.199 66.637668 136.512 106.96513 138.82498 67.10621 141.13797 103.01345 143.45095 100.10426 145.76393 64.491909 148.07692 76.7728 150.38991 50.560159 152.7029 51.535806 155.01589 54.07437 157.32888 76.15112 159.64186 66.855709 161.95485 49.22055 164.26784 81.26404 166.58083 90.623538 168.89382 77.07711 171.20679 50.612035 173.51978 56.07643 175.83277 72.26268 178.14575 68.99536 180.45874 48.18304 182.77173 72.50708 185.08472 131.06975 187.3977 114.63383 189.7107 46.888376 192.02368 79.89974 194.33667 47.86319 196.64966 154.07164 198.96263 53.51706 201.27562 55.739934 203.58861 47.772478 205.9016 82.46522 208.21459 50.474718 212.84056 66.38689 215.15355 79.163509 217.46654 74.11605 219.77953 48.605813 222.09252 78.241397 224.4055 50.35321 226.71848 85.52892 229.03147 150.59044 231.34445 151.54807 233.65744 50.537134 235.97043 59.397848 238.28342 49.068254 240.5964 58.254369 242.9094 47.31364 245.22238 58.72097 247.53537 50.38012 249.84836 59.155946 252.16135 51.42678 254.47432 51.44315 256.78733 56.161874 259.1003 48.312036 261.4133 76.681529 263.7263 90.67125 266.03929 61.70006 268.35224 49.249956 270.66523 47.57801 272.9782 48.057378 275.2912 64.52575 277.6042 89.22484 279.91719 86.55783 282.23017 73.98456 284.54316 53.016336 286.85615 161.8097 289.16914 152.64022 291.48213 51.66147 293.7951 60.37294 296.1081 62.869066 298.42109 47.94308 300.73408 61.62516 303.04707 120.040248 305.36006 53.197484 307.67304 89.98522 309.98603 109.08565 312.299 161.3367 314.612 111.39841 316.925 65.42372 319.23799 68.78287 321.55097 50.43033 323.86393 54.380079 326.1769 78.90607 328.4899 81.53257 330.8029 159.90528 333.11589 70.5347 335.42887 60.62205 337.74186 225.00868 340.05485 48.43382 342.36784 57.94866 344.68083 57.203268 346.9938 132.76194 349.3068 66.97998 351.61979 80.59465 353.93278 47.904523 356.24577 135.39066 358.55876 240.2437 360.87174 59.39119 363.18473 64.884998 365.4977 49.669675 367.8107 110.90323 370.1237 73.20338 372.43669 80.27702 374.74967 63.801435 377.06266 119.33896 379.3756 71.594409 381.6886 53.264894 384.0016 116.985698 386.31459 91.04104 388.62757 78.76903 390.94056 158.96347 393.25355 120.48604 395.56654 53.646055 397.87953 94.93503 400.1925 75.57688 402.5055 59.76708 404.81849 101.23969 407.13148 93.165439 409.44447 208.42159 411.75746 78.378719 414.07044 57.542814 416.38343 188.52999 418.6964 107.36904 421.0094 128.5309 423.3224 147.35114 425.63539 63.592546 427.94837 182.65863 430.26136 175.3428 432.57435 156.54032 434.8873 64.21089 437.2003 150.9949 439.51329 128.1772 441.82627 138.01883 444.13926 76.80303 446.45225 110.61001 448.76524 103.11082 451.07823 151.82964 453.3912 166.63771 455.7042 147.8477 458.01719 186.55733 460.33018 202.1921 462.64317 130.74323 464.95616 184.88205 467.26914 177.5887 469.58213 67.53952 471.8951 71.990268 474.2081 235.05283 476.5211 125.64057 478.83409 180.86212 481.14707 92.31767 483.46006 168.67528 485.77305 147.89958 488.08604 48.30094 490.399 140.82955 492.71199 75.06728 495.02497 149.45862 497.33796 129.11457 499.65095 54.079645 501.96394 131.04506 504.27693 109.56223 506.5899 139.27883 508.9029 57.570558 511.21589 96.433589 513.5289 57.497877 515.84188 110.97064 518.15487 231.4504 520.46786 183.96967 522.7808 102.63395 525.0938 51.232873"/>
</g>
<path transform="matrix(1,0,0,-1,0,280.32237)" stroke-width=".8" stroke-linecap="square" stroke-miterlimit="10" stroke-linejoin="miter" fill="none" stroke="#000000" d="M32.080625 36.393125V267.2886"/>
<path transform="matrix(1,0,0,-1,0,280.32237)" stroke-width=".8" stroke-linecap="square" stroke-miterlimit="10" stroke-linejoin="miter" fill="none" stroke="#000000" d="M548.5706 36.393125V267.2886"/>
<path transform="matrix(1,0,0,-1,0,280.32237)" stroke-width=".8" stroke-linecap="square" stroke-miterlimit="10" stroke-linejoin="miter" fill="none" stroke="#000000" d="M32.080625 36.393125H548.5706"/>
<path transform="matrix(1,0,0,-1,0,280.32237)" stroke-width=".8" stroke-linecap="square" stroke-miterlimit="10" stroke-linejoin="miter" fill="none" stroke="#000000" d="M32.080625 267.2886H548.5706"/>
<g>
<path transform="matrix(1,0,0,-1,0,280.32237)" d="M42.580625 234.06986H309.36189C311.36189 234.06986 312.36189 235.06986 312.36189 237.06986V256.7886C312.36189 258.7886 311.36189 259.7886 309.36189 259.7886H42.580625C40.580625 259.7886 39.580625 258.7886 39.580625 256.7886V237.06986C39.580625 235.06986 40.580625 234.06986 42.580625 234.06986Z" fill="#ffffff" fill-opacity=".85"/>
<path transform="matrix(1,0,0,-1,0,280.32237)" stroke-width="1" stroke-linecap="butt" stroke-miterlimit="10" stroke-linejoin="miter" fill="none" stroke="#cccccc" stroke-opacity=".85" d="M42.580625 234.06986H309.36189C311.36189 234.06986 312.36189 235.06986 312.36189 237.06986V256.7886C312.36189 258.7886 311.36189 259.7886 309.36189 259.7886H42.580625C40.580625 259.7886 39.580625 258.7886 39.580625 256.7886V237.06986C39.580625 235.06986 40.580625 234.06986 42.580625 234.06986Z"/>
</g>
<path transform="matrix(1,0,0,-1,0,280.32237)" stroke-width="2" stroke-linecap="square" stroke-linejoin="round" fill="none" stroke="#1f77b4" stroke-opacity=".85" d="M45.580625 248.30423H60.580625 75.58063"/>
<text xml:space="preserve" transform="matrix(1 0 -0 1 87.58063 37.268129)" font-size="15" font-family="ArialMT"><tspan y="0" x="0 11.670001 16.665 25.005002 33.345 41.685 50.025 54.195005 59.190004 67.53001 71.700008">Groundtruth</tspan></text>
<path transform="matrix(1,0,0,-1,0,280.32237)" stroke-width="2" stroke-linecap="square" stroke-linejoin="round" fill="none" stroke="#ff7f0e" d="M197.65876 248.30423H212.65876 227.65876"/>
<text xml:space="preserve" transform="matrix(1 0 -0 1 239.65876 37.268129)" font-size="15" font-family="ArialMT"><tspan y="0" x="0 10.005001 17.505002 21.675002 25.005002 37.5 45.84 50.010004 58.350004">Estimated</tspan></text>
</svg>
